Amiamie-Regular.ufo
<glyph name="dollar" format="2">
	<advance width="601"/>
	<unicode hex="0024"/>
	<note>
		dollar
	</note>
	<outline>
		<contour>
			<point x="549" y="183" type="curve" smooth="yes"/>
			<point x="549" y="291"/>
			<point x="492" y="354"/>
			<point x="340" y="402" type="curve"/>
			<point x="340" y="620" type="line"/>
			<point x="398" y="608"/>
			<point x="425" y="565"/>
			<point x="432" y="504" type="curve"/>
			<point x="544" y="504" type="line"/>
			<point x="531" y="609"/>
			<point x="466" y="691"/>
			<point x="340" y="703" type="curve"/>
			<point x="340" y="780" type="line"/>
			<point x="272" y="780" type="line"/>
			<point x="272" y="702" type="line"/>
			<point x="162" y="690"/>
			<point x="76" y="624"/>
			<point x="76" y="506" type="curve" smooth="yes"/>
			<point x="76" y="391"/>
			<point x="151" y="339"/>
			<point x="272" y="303" type="curve"/>
			<point x="272" y="71" type="line"/>
			<point x="210" y="83"/>
			<point x="170" y="125"/>
			<point x="162" y="190" type="curve"/>
			<point x="50" y="190" type="line"/>
			<point x="57" y="68"/>
			<point x="142" y="-3"/>
			<point x="272" y="-13" type="curve"/>
			<point x="272" y="-90" type="line"/>
			<point x="340" y="-90" type="line"/>
			<point x="340" y="-12" type="line"/>
			<point x="459" y="0"/>
			<point x="549" y="69"/>
		</contour>
		<contour>
			<point x="186" y="520" type="curve" smooth="yes"/>
			<point x="186" y="577"/>
			<point x="219" y="611"/>
			<point x="272" y="620" type="curve"/>
			<point x="272" y="414" type="line"/>
			<point x="214" y="433"/>
			<point x="186" y="461"/>
		</contour>
		<contour>
			<point x="340" y="70" type="curve"/>
			<point x="340" y="289" type="line"/>
			<point x="414" y="263"/>
			<point x="437" y="224"/>
			<point x="437" y="173" type="curve" smooth="yes"/>
			<point x="437" y="110"/>
			<point x="399" y="78"/>
		</contour>
	</outline>
</glyph>
<glyph name="ampersand" format="2">
	<advance width="663"/>
	<unicode hex="0026"/>
	<note>
		ampersand
	</note>
	<outline>
		<contour>
			<point x="640" y="306" type="line"/>
			<point x="640" y="394" type="line"/>
			<point x="545" y="394" type="line"/>
			<point x="545" y="497" type="line"/>
			<point x="435" y="497" type="line"/>
			<point x="435" y="394" type="line"/>
			<point x="386" y="394" type="line" smooth="yes"/>
			<point x="365" y="394"/>
			<point x="343" y="394"/>
			<point x="325" y="395" type="curve" smooth="yes"/>
			<point x="260" y="398"/>
			<point x="210" y="425"/>
			<point x="210" y="508" type="curve" smooth="yes"/>
			<point x="210" y="578"/>
			<point x="257" y="620"/>
			<point x="340" y="620" type="curve" smooth="yes"/>
			<point x="385" y="620"/>
			<point x="415" y="618"/>
			<point x="456" y="610" type="curve"/>
			<point x="456" y="694" type="line"/>
			<point x="421" y="701"/>
			<point x="388" y="704"/>
			<point x="341" y="704" type="curve" smooth="yes"/>
			<point x="191" y="704"/>
			<point x="91" y="627"/>
			<point x="91" y="507" type="curve" smooth="yes"/>
			<point x="91" y="428"/>
			<point x="144" y="372"/>
			<point x="220" y="352" type="curve"/>
			<point x="121" y="332"/>
			<point x="59" y="262"/>
			<point x="59" y="174" type="curve" smooth="yes"/>
			<point x="59" y="28"/>
			<point x="174" y="-14"/>
			<point x="335" y="-14" type="curve" smooth="yes"/>
			<point x="412" y="-14"/>
			<point x="483" y="-5"/>
			<point x="545" y="9" type="curve"/>
			<point x="545" y="306" type="line"/>
		</contour>
		<contour>
			<point x="178" y="190" type="curve" smooth="yes"/>
			<point x="178" y="250"/>
			<point x="221" y="296"/>
			<point x="323" y="305" type="curve" smooth="yes"/>
			<point x="343" y="306"/>
			<point x="360" y="306"/>
			<point x="382" y="306" type="curve" smooth="yes"/>
			<point x="435" y="306" type="line"/>
			<point x="435" y="78" type="line"/>
			<point x="400" y="72"/>
			<point x="375" y="70"/>
			<point x="337" y="70" type="curve" smooth="yes"/>
			<point x="229" y="70"/>
			<point x="178" y="101"/>
		</contour>
	</outline>
</glyph>
<glyph name="quotesingle" format="2">
	<advance width="187"/>
	<unicode hex="0027"/>
	<note>
		quotesingle
	</note>
	<outline>
		<contour>
			<point x="51" y="474" type="line"/>
			<point x="133" y="474" type="line"/>
			<point x="145" y="735" type="line"/>
			<point x="40" y="735" type="line"/>
		</contour>
	</outline>
</glyph>
<glyph name="parenleft" format="2">
	<advance width="337"/>
	<unicode hex="0028"/>
	<note>
		parenleft
	</note>
	<outline>
		<contour>
			<point x="300" y="780" type="curve"/>
			<point x="235" y="780" type="line"/>
			<point x="153" y="669"/>
			<point x="105" y="516"/>
			<point x="105" y="350" type="curve" smooth="yes"/>
			<point x="105" y="185"/>
			<point x="153" y="31"/>
			<point x="235" y="-80" type="curve"/>
			<point x="300" y="-80" type="line"/>
			<point x="222" y="46"/>
			<point x="178" y="195"/>
			<point x="178" y="350" type="curve" smooth="yes"/>
			<point x="178" y="505"/>
			<point x="222" y="654"/>
		</contour>
	</outline>
</glyph>
<glyph name="asterisk" format="2">
	<advance width="578"/>
	<unicode hex="002A"/>
	<note>
		asterisk
	</note>
	<outline>
		<contour>
			<point x="463" y="364" type="line"/>
			<point x="316" y="305" type="line"/>
			<point x="327" y="475" type="line"/>
			<point x="251" y="475" type="line"/>
			<point x="262" y="305" type="line"/>
			<point x="115" y="364" type="line"/>
			<point x="92" y="292" type="line"/>
			<point x="245" y="254" type="line"/>
			<point x="135" y="123" type="line"/>
			<point x="196" y="78" type="line"/>
			<point x="289" y="224" type="line"/>
			<point x="382" y="78" type="line"/>
			<point x="443" y="123" type="line"/>
			<point x="333" y="254" type="line"/>
			<point x="486" y="292" type="line"/>
		</contour>
	</outline>
</glyph>
<glyph name="comma" format="2">
	<advance width="232"/>
	<unicode hex="002C"/>
	<note>
		comma
	</note>
	<outline>
		<contour>
			<point x="66" y="-121" type="line"/>
			<point x="160" y="108" type="line"/>
			<point x="160" y="118" type="line"/>
			<point x="49" y="118" type="line"/>
			<point x="-30" y="-121" type="line"/>
		</contour>
	</outline>
</glyph>
<glyph name="hyphen" format="2">
	<advance width="284"/>
	<unicode hex="002D"/>
	<note>
		hyphen
	</note>
	<outline>
		<contour>
			<point x="32" y="250" type="line"/>
			<point x="252" y="250" type="line"/>
			<point x="252" y="316" type="line"/>
			<point x="32" y="316" type="line"/>
		</contour>
	</outline>
</glyph>
<glyph name="period" format="2">
	<advance width="232"/>
	<unicode hex="002E"/>
	<note>
		period
	</note>
	<outline>
		<contour>
			<point x="38" y="132" type="line"/>
			<point x="38" y="-14" type="line"/>
			<point x="185" y="-14" type="line"/>
			<point x="185" y="132" type="line"/>
		</contour>
	</outline>
</glyph>
<glyph name="slash" format="2">
	<advance width="314"/>
	<unicode hex="002F"/>
	<note>
		slash
	</note>
	<outline>
		<contour>
			<point x="-5" y="-30" type="line"/>
			<point x="68" y="-30" type="line"/>
			<point x="319" y="720" type="line"/>
			<point x="246" y="720" type="line"/>
		</contour>
	</outline>
</glyph>
<glyph name="six" format="2">
	<advance width="601"/>
	<unicode hex="0036"/>
	<note>
		six
	</note>
	<outline>
		<contour>
			<point x="324" y="465" type="curve" smooth="yes"/>
			<point x="274" y="465"/>
			<point x="236" y="454"/>
			<point x="199" y="423" type="curve"/>
			<point x="162" y="361" type="line"/>
			<point x="169" y="548"/>
			<point x="227" y="620"/>
			<point x="313" y="620" type="curve" smooth="yes"/>
			<point x="376" y="620"/>
			<point x="413" y="585"/>
			<point x="429" y="515" type="curve" smooth="yes"/>
			<point x="431" y="505" type="line"/>
			<point x="545" y="505" type="line"/>
			<point x="544" y="515" type="line" smooth="yes"/>
			<point x="531" y="630"/>
			<point x="448" y="704"/>
			<point x="321" y="704" type="curve" smooth="yes"/>
			<point x="169" y="704"/>
			<point x="46" y="585"/>
			<point x="46" y="317" type="curve" smooth="yes"/>
			<point x="46" y="86"/>
			<point x="137" y="-14"/>
			<point x="299" y="-14" type="curve" smooth="yes"/>
			<point x="440" y="-14"/>
			<point x="552" y="82"/>
			<point x="552" y="235" type="curve" smooth="yes"/>
			<point x="552" y="367"/>
			<point x="471" y="465"/>
		</contour>
		<contour>
			<point x="299" y="70" type="curve" smooth="yes"/>
			<point x="219" y="70"/>
			<point x="168" y="136"/>
			<point x="168" y="224" type="curve" smooth="yes"/>
			<point x="168" y="327"/>
			<point x="228" y="381"/>
			<point x="298" y="381" type="curve" smooth="yes"/>
			<point x="392" y="381"/>
			<point x="433" y="311"/>
			<point x="433" y="222" type="curve" smooth="yes"/>
			<point x="433" y="133"/>
			<point x="379" y="70"/>
		</contour>
	</outline>
</glyph>
<glyph name="colon" format="2">
	<advance width="232"/>
	<unicode hex="003A"/>
	<note>
		colon
	</note>
	<outline>
		<contour>
			<point x="38" y="545" type="line"/>
			<point x="38" y="399" type="line"/>
			<point x="185" y="399" type="line"/>
			<point x="185" y="545" type="line"/>
		</contour>
		<contour>
			<point x="38" y="134" type="line"/>
			<point x="38" y="-12" type="line"/>
			<point x="185" y="-12" type="line"/>
			<point x="185" y="134" type="line"/>
		</contour>
	</outline>
</glyph>
<glyph name="semicolon" format="2">
	<advance width="232"/>
	<unicode hex="003B"/>
	<note>
		semicolon
	</note>
	<outline>
		<contour>
			<point x="66" y="-121" type="line"/>
			<point x="161" y="112" type="line"/>
			<point x="161" y="126" type="line"/>
			<point x="49" y="126" type="line"/>
			<point x="-30" y="-121" type="line"/>
		</contour>
		<contour>
			<point x="49" y="545" type="line"/>
			<point x="49" y="399" type="line"/>
			<point x="161" y="399" type="line"/>
			<point x="161" y="545" type="line"/>
		</contour>
	</outline>
</glyph>
<glyph name="equal" format="2">
	<advance width="601"/>
	<unicode hex="003D"/>
	<note>
		equal
	</note>
	<outline>
		<contour>
			<point x="82" y="384" type="line"/>
			<point x="519" y="384" type="line"/>
			<point x="519" y="448" type="line"/>
			<point x="82" y="448" type="line"/>
		</contour>
		<contour>
			<point x="82" y="184" type="line"/>
			<point x="519" y="184" type="line"/>
			<point x="519" y="248" type="line"/>
			<point x="82" y="248" type="line"/>
		</contour>
	</outline>
</glyph>
<glyph name="question" format="2">
	<advance width="522"/>
	<unicode hex="003F"/>
	<note>
		question
	</note>
	<outline>
		<contour>
			<point x="269" y="704" type="curve" smooth="yes"/>
			<point x="131" y="704"/>
			<point x="38" y="621"/>
			<point x="34" y="489" type="curve"/>
			<point x="146" y="489" type="line"/>
			<point x="152" y="576"/>
			<point x="196" y="620"/>
			<point x="264" y="620" type="curve" smooth="yes"/>
			<point x="330" y="620"/>
			<point x="367" y="579"/>
			<point x="367" y="515" type="curve" smooth="yes"/>
			<point x="367" y="461"/>
			<point x="345" y="423"/>
			<point x="278" y="348" type="curve" smooth="yes"/>
			<point x="226" y="289"/>
			<point x="207" y="252"/>
			<point x="202" y="188" type="curve"/>
			<point x="303" y="188" type="line"/>
			<point x="307" y="238"/>
			<point x="323" y="264"/>
			<point x="381" y="320" type="curve" smooth="yes"/>
			<point x="452" y="388"/>
			<point x="486" y="446"/>
			<point x="486" y="519" type="curve" smooth="yes"/>
			<point x="486" y="627"/>
			<point x="408" y="704"/>
		</contour>
		<contour>
			<point x="202" y="132" type="line"/>
			<point x="202" y="-14" type="line"/>
			<point x="305" y="-14" type="line"/>
			<point x="305" y="132" type="line"/>
		</contour>
	</outline>
</glyph>
<glyph name="at" format="2">
	<advance width="872"/>
	<unicode hex="0040"/>
	<note>
		at
	</note>
	<outline>
		<contour>
			<point x="596" y="236" type="curve" smooth="yes"/>
			<point x="651" y="467" type="line"/>
			<point x="553" y="467" type="line"/>
			<point x="534" y="403" type="line"/>
			<point x="524" y="455" type="line"/>
			<point x="507" y="474"/>
			<point x="475" y="485"/>
			<point x="439" y="485" type="curve" smooth="yes"/>
			<point x="315" y="485"/>
			<point x="229" y="366"/>
			<point x="229" y="232" type="curve" smooth="yes"/>
			<point x="229" y="108"/>
			<point x="303" y="69"/>
			<point x="369" y="69" type="curve" smooth="yes"/>
			<point x="403" y="69"/>
			<point x="434" y="80"/>
			<point x="466" y="106" type="curve"/>
			<point x="489" y="153" type="line"/>
			<point x="501" y="97"/>
			<point x="544" y="73"/>
			<point x="602" y="73" type="curve" smooth="yes"/>
			<point x="707" y="73"/>
			<point x="815" y="149"/>
			<point x="815" y="336" type="curve" smooth="yes"/>
			<point x="815" y="530"/>
			<point x="683" y="674"/>
			<point x="478" y="674" type="curve" smooth="yes"/>
			<point x="259" y="674"/>
			<point x="52" y="508"/>
			<point x="52" y="245" type="curve" smooth="yes"/>
			<point x="52" y="-1"/>
			<point x="229" y="-112"/>
			<point x="407" y="-112" type="curve" smooth="yes"/>
			<point x="489" y="-112"/>
			<point x="590" y="-89"/>
			<point x="684" y="-26" type="curve"/>
			<point x="657" y="32" type="line"/>
			<point x="587" y="-19"/>
			<point x="495" y="-44"/>
			<point x="413" y="-44" type="curve" smooth="yes"/>
			<point x="247" y="-44"/>
			<point x="125" y="57"/>
			<point x="125" y="248" type="curve" smooth="yes"/>
			<point x="125" y="476"/>
			<point x="305" y="606"/>
			<point x="475" y="606" type="curve" smooth="yes"/>
			<point x="625" y="606"/>
			<point x="742" y="512"/>
			<point x="742" y="332" type="curve" smooth="yes"/>
			<point x="742" y="203"/>
			<point x="684" y="141"/>
			<point x="627" y="141" type="curve" smooth="yes"/>
			<point x="595" y="141"/>
			<point x="588" y="161"/>
			<point x="588" y="184" type="curve" smooth="yes"/>
			<point x="588" y="195"/>
			<point x="589" y="208"/>
		</contour>
		<contour>
			<point x="507" y="297" type="curve" smooth="yes"/>
			<point x="496" y="250" type="line" smooth="yes"/>
			<point x="484" y="198"/>
			<point x="448" y="149"/>
			<point x="400" y="149" type="curve" smooth="yes"/>
			<point x="366" y="149"/>
			<point x="341" y="173"/>
			<point x="341" y="239" type="curve" smooth="yes"/>
			<point x="341" y="325"/>
			<point x="384" y="405"/>
			<point x="454" y="405" type="curve" smooth="yes"/>
			<point x="496" y="405"/>
			<point x="525" y="376"/>
		</contour>
	</outline>
</glyph>
<glyph name="A" format="2">
	<advance width="656"/>
	<unicode hex="0041"/>
	<note>
		A
	</note>
	<outline>
		<contour>
			<point x="215" y="228" type="line"/>
			<point x="460" y="228" type="line"/>
			<point x="535" y="0" type="line"/>
			<point x="654" y="0" type="line"/>
			<point x="413" y="690" type="line"/>
			<point x="271" y="690" type="line"/>
			<point x="23" y="0" type="line"/>
			<point x="140" y="0" type="line"/>
		</contour>
		<contour>
			<point x="431" y="315" type="line"/>
			<point x="244" y="315" type="line"/>
			<point x="340" y="599" type="line"/>
		</contour>
	</outline>
</glyph>
<glyph name="E" format="2">
	<advance width="600"/>
	<unicode hex="0045"/>
	<note>
		E
	</note>
	<outline>
		<contour>
			<point x="572" y="0" type="line"/>
			<point x="572" y="88" type="line"/>
			<point x="205" y="88" type="line"/>
			<point x="205" y="302" type="line"/>
			<point x="534" y="302" type="line"/>
			<point x="534" y="389" type="line"/>
			<point x="205" y="389" type="line"/>
			<point x="205" y="603" type="line"/>
			<point x="562" y="603" type="line"/>
			<point x="562" y="690" type="line"/>
			<point x="95" y="690" type="line"/>
			<point x="95" y="0" type="line"/>
		</contour>
	</outline>
</glyph>
<glyph name="H" format="2">
	<advance width="740"/>
	<unicode hex="0048"/>
	<note>
		H
	</note>
	<outline>
		<contour>
			<point x="668" y="0" type="line"/>
			<point x="668" y="690" type="line"/>
			<point x="559" y="690" type="line"/>
			<point x="559" y="383" type="line"/>
			<point x="205" y="383" type="line"/>
			<point x="205" y="690" type="line"/>
			<point x="95" y="690" type="line"/>
			<point x="95" y="0" type="line"/>
			<point x="205" y="0" type="line"/>
			<point x="205" y="294" type="line"/>
			<point x="559" y="294" type="line"/>
			<point x="559" y="0" type="line"/>
		</contour>
	</outline>
</glyph>
<glyph name="I" format="2">
	<advance width="277"/>
	<unicode hex="0049"/>
	<note>
		I
	</note>
	<outline>
		<contour>
			<point x="95" y="0" type="line"/>
			<point x="205" y="0" type="line"/>
			<point x="205" y="690" type="line"/>
			<point x="95" y="690" type="line"/>
		</contour>
	</outline>
</glyph>
<glyph name="M" format="2">
	<advance width="880"/>
	<unicode hex="004D"/>
	<note>
		M
	</note>
	<outline>
		<contour>
			<point x="808" y="0" type="line"/>
			<point x="808" y="690" type="line"/>
			<point x="636" y="690" type="line"/>
			<point x="454" y="98" type="line"/>
			<point x="272" y="690" type="line"/>
			<point x="95" y="690" type="line"/>
			<point x="95" y="0" type="line"/>
			<point x="205" y="0" type="line"/>
			<point x="205" y="339" type="line" smooth="yes"/>
			<point x="205" y="418"/>
			<point x="205" y="511"/>
			<point x="203" y="585" type="curve"/>
			<point x="222" y="512"/>
			<point x="251" y="418"/>
			<point x="276" y="341" type="curve" smooth="yes"/>
			<point x="388" y="0" type="line"/>
			<point x="515" y="0" type="line"/>
			<point x="626" y="340" type="line" smooth="yes"/>
			<point x="652" y="418"/>
			<point x="681" y="513"/>
			<point x="701" y="586" type="curve"/>
			<point x="699" y="513"/>
			<point x="699" y="418"/>
			<point x="699" y="339" type="curve" smooth="yes"/>
			<point x="699" y="0" type="line"/>
		</contour>
	</outline>
</glyph>
<glyph name="T" format="2">
	<advance width="617"/>
	<unicode hex="0054"/>
	<note>
		T
	</note>
	<outline>
		<contour>
			<point x="379" y="603" type="line"/>
			<point x="620" y="603" type="line"/>
			<point x="620" y="690" type="line"/>
			<point x="29" y="690" type="line"/>
			<point x="29" y="603" type="line"/>
			<point x="270" y="603" type="line"/>
			<point x="270" y="0" type="line"/>
			<point x="379" y="0" type="line"/>
		</contour>
	</outline>
</glyph>
<glyph name="U" format="2">
	<advance width="691"/>
	<unicode hex="0055"/>
	<note>
		U
	</note>
	<outline>
		<contour>
			<point x="629" y="267" type="curve" smooth="yes"/>
			<point x="629" y="690" type="line"/>
			<point x="520" y="690" type="line"/>
			<point x="520" y="265" type="line" smooth="yes"/>
			<point x="520" y="244"/>
			<point x="520" y="225"/>
			<point x="518" y="209" type="curve" smooth="yes"/>
			<point x="511" y="126"/>
			<point x="458" y="70"/>
			<point x="358" y="70" type="curve" smooth="yes"/>
			<point x="259" y="70"/>
			<point x="206" y="126"/>
			<point x="199" y="209" type="curve" smooth="yes"/>
			<point x="197" y="225"/>
			<point x="197" y="244"/>
			<point x="197" y="265" type="curve" smooth="yes"/>
			<point x="197" y="690" type="line"/>
			<point x="88" y="690" type="line"/>
			<point x="88" y="267" type="line" smooth="yes"/>
			<point x="88" y="242"/>
			<point x="88" y="222"/>
			<point x="90" y="196" type="curve" smooth="yes"/>
			<point x="99" y="81"/>
			<point x="178" y="-14"/>
			<point x="358" y="-14" type="curve" smooth="yes"/>
			<point x="538" y="-14"/>
			<point x="617" y="81"/>
			<point x="627" y="196" type="curve" smooth="yes"/>
			<point x="629" y="222"/>
			<point x="629" y="242"/>
		</contour>
	</outline>
</glyph>
<glyph name="V" format="2">
	<advance width="652"/>
	<unicode hex="0056"/>
	<note>
		V
	</note>
	<outline>
		<contour>
			<point x="273" y="0" type="line"/>
			<point x="415" y="0" type="line"/>
			<point x="663" y="690" type="line"/>
			<point x="546" y="690" type="line"/>
			<point x="346" y="84" type="line"/>
			<point x="151" y="690" type="line"/>
			<point x="32" y="690" type="line"/>
		</contour>
	</outline>
</glyph>
<glyph name="Z" format="2">
	<advance width="605"/>
	<unicode hex="005A"/>
	<note>
		Z
	</note>
	<outline>
		<contour>
			<point x="581" y="0" type="line"/>
			<point x="581" y="88" type="line"/>
			<point x="179" y="88" type="line"/>
			<point x="576" y="604" type="line"/>
			<point x="576" y="690" type="line"/>
			<point x="76" y="690" type="line"/>
			<point x="76" y="603" type="line"/>
			<point x="448" y="603" type="line"/>
			<point x="48" y="84" type="line"/>
			<point x="48" y="0" type="line"/>
		</contour>
	</outline>
</glyph>
<glyph name="grave" format="2">
	<advance width="300"/>
	<unicode hex="0060"/>
	<note>
		grave
	</note>
	<outline>
		<contour>
			<point x="125" y="578" type="line"/>
			<point x="191" y="578" type="line"/>
			<point x="123" y="692" type="line"/>
			<point x="23" y="692" type="line"/>
		</contour>
	</outline>
</glyph>
<glyph name="h" format="2">
	<advance width="606"/>
	<unicode hex="0068"/>
	<note>
		h
	</note>
	<outline>
		<contour>
			<point x="538" y="393" type="curve" smooth="yes"/>
			<point x="528" y="486"/>
			<point x="463" y="545"/>
			<point x="349" y="545" type="curve" smooth="yes"/>
			<point x="296" y="545"/>
			<point x="257" y="536"/>
			<point x="215" y="504" type="curve"/>
			<point x="179" y="443" type="line"/>
			<point x="179" y="740" type="line"/>
			<point x="69" y="740" type="line"/>
			<point x="69" y="0" type="line"/>
			<point x="179" y="0" type="line"/>
			<point x="179" y="238" type="line" smooth="yes"/>
			<point x="179" y="404"/>
			<point x="241" y="462"/>
			<point x="317" y="464" type="curve" smooth="yes"/>
			<point x="392" y="465"/>
			<point x="424" y="422"/>
			<point x="429" y="362" type="curve" smooth="yes"/>
			<point x="431" y="335"/>
			<point x="431" y="312"/>
			<point x="431" y="287" type="curve" smooth="yes"/>
			<point x="431" y="0" type="line"/>
			<point x="541" y="0" type="line"/>
			<point x="541" y="299" type="line" smooth="yes"/>
			<point x="541" y="342"/>
			<point x="540" y="366"/>
		</contour>
	</outline>
</glyph>
<glyph name="i" format="2">
	<advance width="251"/>
	<unicode hex="0069"/>
	<note>
		i
	</note>
	<outline>
		<contour>
			<point x="69" y="0" type="line"/>
			<point x="179" y="0" type="line"/>
			<point x="179" y="531" type="line"/>
			<point x="69" y="531" type="line"/>
		</contour>
		<contour>
			<point x="69" y="716" type="line"/>
			<point x="69" y="589" type="line"/>
			<point x="180" y="589" type="line"/>
			<point x="180" y="716" type="line"/>
		</contour>
	</outline>
</glyph>
<glyph name="j" format="2">
	<advance width="245"/>
	<unicode hex="006A"/>
	<note>
		j
	</note>
	<outline>
		<contour>
			<point x="174" y="-31" type="curve" smooth="yes"/>
			<point x="174" y="531" type="line"/>
			<point x="65" y="531" type="line"/>
			<point x="65" y="-34" type="line" smooth="yes"/>
			<point x="65" y="-49"/>
			<point x="65" y="-65"/>
			<point x="63" y="-79" type="curve" smooth="yes"/>
			<point x="59" y="-115"/>
			<point x="35" y="-130"/>
			<point x="-22" y="-125" type="curve"/>
			<point x="-22" y="-208" type="line"/>
			<point x="-8" y="-210"/>
			<point x="6" y="-210"/>
			<point x="24" y="-210" type="curve" smooth="yes"/>
			<point x="124" y="-210"/>
			<point x="165" y="-168"/>
			<point x="172" y="-95" type="curve" smooth="yes"/>
			<point x="173" y="-77"/>
			<point x="174" y="-51"/>
		</contour>
		<contour>
			<point x="64" y="718" type="line"/>
			<point x="64" y="591" type="line"/>
			<point x="175" y="591" type="line"/>
			<point x="175" y="718" type="line"/>
		</contour>
	</outline>
</glyph>
<glyph name="x" format="2">
	<advance width="509"/>
	<unicode hex="0078"/>
	<note>
		x
	</note>
	<outline>
		<contour>
			<point x="500" y="0" type="line"/>
			<point x="313" y="270" type="line"/>
			<point x="498" y="531" type="line"/>
			<point x="372" y="531" type="line"/>
			<point x="252" y="339" type="line"/>
			<point x="131" y="531" type="line"/>
			<point x="2" y="531" type="line"/>
			<point x="184" y="269" type="line"/>
			<point x="-5" y="0" type="line"/>
			<point x="121" y="0" type="line"/>
			<point x="247" y="200" type="line"/>
			<point x="373" y="0" type="line"/>
		</contour>
	</outline>
</glyph>
<glyph name="braceleft" format="2">
	<advance width="335"/>
	<unicode hex="007B"/>
	<note>
		braceleft
	</note>
	<outline>
		<contour>
			<point x="278" y="714" type="curve" smooth="yes"/>
			<point x="293" y="714" type="line"/>
			<point x="293" y="780" type="line"/>
			<point x="272" y="780" type="line" smooth="yes"/>
			<point x="182" y="780"/>
			<point x="136" y="753"/>
			<point x="136" y="672" type="curve" smooth="yes"/>
			<point x="136" y="647"/>
			<point x="138" y="626"/>
			<point x="148" y="560" type="curve" smooth="yes"/>
			<point x="155" y="509"/>
			<point x="158" y="482"/>
			<point x="158" y="455" type="curve" smooth="yes"/>
			<point x="158" y="416"/>
			<point x="139" y="389"/>
			<point x="76" y="383" type="curve"/>
			<point x="76" y="317" type="line"/>
			<point x="139" y="312"/>
			<point x="158" y="285"/>
			<point x="158" y="245" type="curve" smooth="yes"/>
			<point x="158" y="218"/>
			<point x="155" y="191"/>
			<point x="148" y="140" type="curve" smooth="yes"/>
			<point x="138" y="74"/>
			<point x="136" y="53"/>
			<point x="136" y="29" type="curve" smooth="yes"/>
			<point x="136" y="-53"/>
			<point x="182" y="-80"/>
			<point x="272" y="-80" type="curve" smooth="yes"/>
			<point x="293" y="-80" type="line"/>
			<point x="293" y="-14" type="line"/>
			<point x="278" y="-14" type="line" smooth="yes"/>
			<point x="222" y="-14"/>
			<point x="204" y="1"/>
			<point x="204" y="33" type="curve" smooth="yes"/>
			<point x="204" y="54"/>
			<point x="206" y="69"/>
			<point x="215" y="130" type="curve" smooth="yes"/>
			<point x="224" y="194"/>
			<point x="228" y="221"/>
			<point x="228" y="248" type="curve" smooth="yes"/>
			<point x="228" y="305"/>
			<point x="197" y="342"/>
			<point x="143" y="351" type="curve"/>
			<point x="198" y="361"/>
			<point x="228" y="396"/>
			<point x="228" y="452" type="curve" smooth="yes"/>
			<point x="228" y="479"/>
			<point x="224" y="506"/>
			<point x="215" y="570" type="curve" smooth="yes"/>
			<point x="206" y="632"/>
			<point x="204" y="647"/>
			<point x="204" y="667" type="curve" smooth="yes"/>
			<point x="204" y="699"/>
			<point x="222" y="714"/>
		</contour>
	</outline>
</glyph>
<glyph name="bar" format="2">
	<advance width="266"/>
	<unicode hex="007C"/>
	<note>
		bar
	</note>
	<outline>
		<contour>
			<point x="97" y="-200" type="line"/>
			<point x="169" y="-200" type="line"/>
			<point x="169" y="800" type="line"/>
			<point x="97" y="800" type="line"/>
		</contour>
	</outline>
</glyph>
<glyph name="exclamdown" format="2">
	<advance width="252"/>
	<unicode hex="00A1"/>
	<note>
		exclamdown
	</note>
	<outline>
		<contour>
			<point x="172" y="343" type="line"/>
			<point x="79" y="343" type="line"/>
			<point x="67" y="-160" type="line"/>
			<point x="184" y="-160" type="line"/>
		</contour>
		<contour>
			<point x="79" y="545" type="line"/>
			<point x="79" y="399" type="line"/>
			<point x="172" y="399" type="line"/>
			<point x="172" y="545" type="line"/>
		</contour>
	</outline>
</glyph>
<glyph name="currency" format="2">
	<advance width="601"/>
	<unicode hex="00A4"/>
	<note>
		currency
	</note>
	<outline>
		<contour>
			<point x="480" y="301" type="curve" smooth="yes"/>
			<point x="480" y="339"/>
			<point x="468" y="375"/>
			<point x="448" y="404" type="curve"/>
			<point x="507" y="462" type="line"/>
			<point x="462" y="507" type="line"/>
			<point x="403" y="449" type="line"/>
			<point x="374" y="469"/>
			<point x="338" y="481"/>
			<point x="300" y="481" type="curve" smooth="yes"/>
			<point x="262" y="481"/>
			<point x="227" y="469"/>
			<point x="198" y="449" type="curve"/>
			<point x="140" y="507" type="line"/>
			<point x="95" y="462" type="line"/>
			<point x="152" y="405" type="line"/>
			<point x="132" y="375"/>
			<point x="120" y="340"/>
			<point x="120" y="301" type="curve" smooth="yes"/>
			<point x="120" y="263"/>
			<point x="132" y="227"/>
			<point x="152" y="198" type="curve"/>
			<point x="95" y="141" type="line"/>
			<point x="140" y="96" type="line"/>
			<point x="197" y="153" type="line"/>
			<point x="226" y="133"/>
			<point x="262" y="121"/>
			<point x="300" y="121" type="curve" smooth="yes"/>
			<point x="339" y="121"/>
			<point x="374" y="133"/>
			<point x="404" y="154" type="curve"/>
			<point x="462" y="96" type="line"/>
			<point x="507" y="141" type="line"/>
			<point x="448" y="199" type="line"/>
			<point x="468" y="228"/>
			<point x="480" y="263"/>
		</contour>
		<contour>
			<point x="300" y="188" type="curve" smooth="yes"/>
			<point x="239" y="188"/>
			<point x="193" y="235"/>
			<point x="193" y="301" type="curve" smooth="yes"/>
			<point x="193" y="367"/>
			<point x="239" y="414"/>
			<point x="300" y="414" type="curve" smooth="yes"/>
			<point x="362" y="414"/>
			<point x="408" y="367"/>
			<point x="408" y="301" type="curve" smooth="yes"/>
			<point x="408" y="235"/>
			<point x="362" y="188"/>
		</contour>
	</outline>
</glyph>
<glyph name="copyright" format="2">
	<advance width="844"/>
	<unicode hex="00A9"/>
	<note>
		copyright
	</note>
	<outline>
		<contour>
			<point x="422" y="748" type="curve" smooth="yes"/>
			<point x="200" y="748"/>
			<point x="31" y="579"/>
			<point x="31" y="355" type="curve" smooth="yes"/>
			<point x="31" y="131"/>
			<point x="200" y="-38"/>
			<point x="422" y="-38" type="curve" smooth="yes"/>
			<point x="644" y="-38"/>
			<point x="813" y="131"/>
			<point x="813" y="355" type="curve" smooth="yes"/>
			<point x="813" y="579"/>
			<point x="644" y="748"/>
		</contour>
		<contour>
			<point x="422" y="680" type="curve" smooth="yes"/>
			<point x="602" y="680"/>
			<point x="739" y="540"/>
			<point x="739" y="355" type="curve" smooth="yes"/>
			<point x="739" y="169"/>
			<point x="602" y="30"/>
			<point x="422" y="30" type="curve" smooth="yes"/>
			<point x="241" y="30"/>
			<point x="105" y="169"/>
			<point x="105" y="355" type="curve" smooth="yes"/>
			<point x="105" y="540"/>
			<point x="241" y="680"/>
		</contour>
		<contour>
			<point x="429" y="585" type="curve" smooth="yes"/>
			<point x="297" y="585"/>
			<point x="209" y="496"/>
			<point x="209" y="354" type="curve" smooth="yes"/>
			<point x="209" y="214"/>
			<point x="296" y="125"/>
			<point x="420" y="125" type="curve" smooth="yes"/>
			<point x="543" y="125"/>
			<point x="608" y="193"/>
			<point x="629" y="292" type="curve"/>
			<point x="523" y="292" type="line"/>
			<point x="516" y="238"/>
			<point x="480" y="201"/>
			<point x="428" y="201" type="curve" smooth="yes"/>
			<point x="362" y="201"/>
			<point x="320" y="259"/>
			<point x="320" y="356" type="curve" smooth="yes"/>
			<point x="320" y="449"/>
			<point x="356" y="509"/>
			<point x="427" y="509" type="curve" smooth="yes"/>
			<point x="488" y="509"/>
			<point x="516" y="470"/>
			<point x="524" y="417" type="curve"/>
			<point x="630" y="417" type="line"/>
			<point x="613" y="517"/>
			<point x="543" y="585"/>
		</contour>
	</outline>
</glyph>
<glyph name="guillemotleft" format="2">
	<advance width="592"/>
	<unicode hex="00AB"/>
	<note>
		guillemotleft
	</note>
	<outline>
		<contour>
			<point x="214" y="248" type="line"/>
			<point x="351" y="414" type="line"/>
			<point x="264" y="414" type="line"/>
			<point x="127" y="248" type="line"/>
			<point x="264" y="82" type="line"/>
			<point x="351" y="82" type="line"/>
		</contour>
		<contour>
			<point x="401" y="248" type="line"/>
			<point x="538" y="414" type="line"/>
			<point x="451" y="414" type="line"/>
			<point x="314" y="248" type="line"/>
			<point x="451" y="82" type="line"/>
			<point x="538" y="82" type="line"/>
		</contour>
	</outline>
</glyph>
<glyph name="logicalnot" format="2">
	<advance width="601"/>
	<unicode hex="00AC"/>
	<note>
		logicalnot
	</note>
	<outline>
		<contour>
			<point x="416" y="201" type="line"/>
			<point x="485" y="201" type="line"/>
			<point x="485" y="388" type="line"/>
			<point x="105" y="388" type="line"/>
			<point x="105" y="322" type="line"/>
			<point x="416" y="322" type="line"/>
		</contour>
	</outline>
</glyph>
<glyph name="registered" format="2">
	<advance width="503"/>
	<unicode hex="00AE"/>
	<note>
		registered
	</note>
	<outline>
		<contour>
			<point x="251" y="764" type="curve" smooth="yes"/>
			<point x="128" y="764"/>
			<point x="41" y="677"/>
			<point x="41" y="554" type="curve" smooth="yes"/>
			<point x="41" y="431"/>
			<point x="128" y="344"/>
			<point x="251" y="344" type="curve" smooth="yes"/>
			<point x="375" y="344"/>
			<point x="461" y="431"/>
			<point x="461" y="554" type="curve" smooth="yes"/>
			<point x="461" y="677"/>
			<point x="375" y="764"/>
		</contour>
		<contour>
			<point x="251" y="393" type="curve" smooth="yes"/>
			<point x="158" y="393"/>
			<point x="92" y="460"/>
			<point x="92" y="554" type="curve" smooth="yes"/>
			<point x="92" y="649"/>
			<point x="158" y="716"/>
			<point x="251" y="716" type="curve" smooth="yes"/>
			<point x="345" y="716"/>
			<point x="410" y="649"/>
			<point x="410" y="554" type="curve" smooth="yes"/>
			<point x="410" y="460"/>
			<point x="345" y="393"/>
		</contour>
		<contour>
			<point x="300" y="554" type="curve"/>
			<point x="323" y="561"/>
			<point x="341" y="577"/>
			<point x="341" y="604" type="curve" smooth="yes"/>
			<point x="341" y="638"/>
			<point x="315" y="656"/>
			<point x="274" y="660" type="curve" smooth="yes"/>
			<point x="265" y="661"/>
			<point x="257" y="661"/>
			<point x="247" y="661" type="curve" smooth="yes"/>
			<point x="175" y="661" type="line"/>
			<point x="175" y="455" type="line"/>
			<point x="227" y="455" type="line"/>
			<point x="227" y="523" type="line"/>
			<point x="248" y="523" type="line" smooth="yes"/>
			<point x="264" y="523"/>
			<point x="275" y="517"/>
			<point x="277" y="499" type="curve" smooth="yes"/>
			<point x="279" y="481"/>
			<point x="281" y="467"/>
			<point x="284" y="455" type="curve"/>
			<point x="343" y="455" type="line"/>
			<point x="338" y="466"/>
			<point x="333" y="482"/>
			<point x="330" y="509" type="curve" smooth="yes"/>
			<point x="328" y="531"/>
			<point x="320" y="549"/>
		</contour>
		<contour>
			<point x="264" y="567" type="curve" smooth="yes"/>
			<point x="258" y="566"/>
			<point x="253" y="566"/>
			<point x="245" y="566" type="curve" smooth="yes"/>
			<point x="227" y="566" type="line"/>
			<point x="227" y="619" type="line"/>
			<point x="245" y="619" type="line" smooth="yes"/>
			<point x="254" y="619"/>
			<point x="258" y="619"/>
			<point x="264" y="618" type="curve" smooth="yes"/>
			<point x="276" y="615"/>
			<point x="284" y="608"/>
			<point x="284" y="593" type="curve" smooth="yes"/>
			<point x="284" y="579"/>
			<point x="278" y="570"/>
		</contour>
	</outline>
</glyph>
<glyph name="degree" format="2">
	<advance width="304"/>
	<unicode hex="00B0"/>
	<note>
		degree
	</note>
	<outline>
		<contour>
			<point x="152" y="704" type="curve" smooth="yes"/>
			<point x="78" y="704"/>
			<point x="26" y="654"/>
			<point x="26" y="581" type="curve" smooth="yes"/>
			<point x="26" y="508"/>
			<point x="78" y="458"/>
			<point x="152" y="458" type="curve" smooth="yes"/>
			<point x="226" y="458"/>
			<point x="278" y="508"/>
			<point x="278" y="581" type="curve" smooth="yes"/>
			<point x="278" y="654"/>
			<point x="226" y="704"/>
		</contour>
		<contour>
			<point x="152" y="640" type="curve" smooth="yes"/>
			<point x="183" y="640"/>
			<point x="208" y="616"/>
			<point x="208" y="581" type="curve" smooth="yes"/>
			<point x="208" y="546"/>
			<point x="183" y="522"/>
			<point x="152" y="522" type="curve" smooth="yes"/>
			<point x="120" y="522"/>
			<point x="96" y="546"/>
			<point x="96" y="581" type="curve" smooth="yes"/>
			<point x="96" y="616"/>
			<point x="120" y="640"/>
		</contour>
	</outline>
</glyph>
<glyph name="paragraph" format="2">
	<advance width="579"/>
	<unicode hex="00B6"/>
	<note>
		paragraph
	</note>
	<outline>
		<contour>
			<point x="507" y="-110" type="line"/>
			<point x="507" y="690" type="line"/>
			<point x="256" y="690" type="line" smooth="yes"/>
			<point x="238" y="690"/>
			<point x="217" y="690"/>
			<point x="200" y="689" type="curve" smooth="yes"/>
			<point x="98" y="683"/>
			<point x="43" y="600"/>
			<point x="43" y="505" type="curve" smooth="yes"/>
			<point x="43" y="410"/>
			<point x="98" y="327"/>
			<point x="200" y="321" type="curve" smooth="yes"/>
			<point x="217" y="320"/>
			<point x="238" y="320"/>
			<point x="256" y="320" type="curve" smooth="yes"/>
			<point x="273" y="320" type="line"/>
			<point x="273" y="-110" type="line"/>
			<point x="341" y="-110" type="line"/>
			<point x="341" y="624" type="line"/>
			<point x="439" y="624" type="line"/>
			<point x="439" y="-110" type="line"/>
		</contour>
	</outline>
</glyph>
<glyph name="periodcentered" format="2">
	<advance width="222"/>
	<unicode hex="00B7"/>
	<note>
		periodcentered
	</note>
	<outline>
		<contour>
			<point x="38" y="378" type="line"/>
			<point x="38" y="232" type="line"/>
			<point x="185" y="232" type="line"/>
			<point x="185" y="378" type="line"/>
		</contour>
	</outline>
</glyph>
<glyph name="cedilla" format="2">
	<advance width="300"/>
	<unicode hex="00B8"/>
	<note>
		cedilla
	</note>
	<outline>
		<contour>
			<point x="161" y="-41" type="curve"/>
			<point x="187" y="9" type="line"/>
			<point x="126" y="9" type="line"/>
			<point x="79" y="-81" type="line"/>
			<point x="149" y="-76"/>
			<point x="175" y="-91"/>
			<point x="175" y="-122" type="curve" smooth="yes"/>
			<point x="175" y="-146"/>
			<point x="155" y="-161"/>
			<point x="113" y="-161" type="curve" smooth="yes"/>
			<point x="94" y="-161"/>
			<point x="77" y="-159"/>
			<point x="59" y="-151" type="curve"/>
			<point x="59" y="-202" type="line"/>
			<point x="74" y="-208"/>
			<point x="92" y="-210"/>
			<point x="111" y="-210" type="curve" smooth="yes"/>
			<point x="189" y="-210"/>
			<point x="245" y="-181"/>
			<point x="245" y="-122" type="curve" smooth="yes"/>
			<point x="245" y="-76"/>
			<point x="216" y="-48"/>
		</contour>
	</outline>
</glyph>
<glyph name="guillemotright" format="2">
	<advance width="584"/>
	<unicode hex="00BB"/>
	<note>
		guillemotright
	</note>
	<outline>
		<contour>
			<point x="141" y="82" type="line"/>
			<point x="278" y="248" type="line"/>
			<point x="141" y="414" type="line"/>
			<point x="54" y="414" type="line"/>
			<point x="191" y="248" type="line"/>
			<point x="54" y="82" type="line"/>
		</contour>
		<contour>
			<point x="328" y="82" type="line"/>
			<point x="465" y="248" type="line"/>
			<point x="328" y="414" type="line"/>
			<point x="241" y="414" type="line"/>
			<point x="378" y="248" type="line"/>
			<point x="241" y="82" type="line"/>
		</contour>
	</outline>
</glyph>
<glyph name="questiondown" format="2">
	<advance width="508"/>
	<unicode hex="00BF"/>
	<note>
		questiondown
	</note>
	<outline>
		<contour>
			<point x="279" y="-173" type="curve" smooth="yes"/>
			<point x="417" y="-173"/>
			<point x="510" y="-90"/>
			<point x="514" y="42" type="curve"/>
			<point x="402" y="42" type="line"/>
			<point x="396" y="-45"/>
			<point x="352" y="-89"/>
			<point x="284" y="-89" type="curve" smooth="yes"/>
			<point x="218" y="-89"/>
			<point x="181" y="-48"/>
			<point x="181" y="16" type="curve" smooth="yes"/>
			<point x="181" y="70"/>
			<point x="203" y="108"/>
			<point x="270" y="183" type="curve" smooth="yes"/>
			<point x="322" y="242"/>
			<point x="341" y="279"/>
			<point x="346" y="344" type="curve"/>
			<point x="245" y="344" type="line"/>
			<point x="241" y="294"/>
			<point x="225" y="267"/>
			<point x="167" y="211" type="curve" smooth="yes"/>
			<point x="96" y="144"/>
			<point x="62" y="85"/>
			<point x="62" y="13" type="curve" smooth="yes"/>
			<point x="62" y="-96"/>
			<point x="140" y="-173"/>
		</contour>
		<contour>
			<point x="244" y="544" type="line"/>
			<point x="244" y="398" type="line"/>
			<point x="347" y="398" type="line"/>
			<point x="347" y="544" type="line"/>
		</contour>
	</outline>
</glyph>
<glyph name="Agrave" format="2">
	<advance width="656"/>
	<unicode hex="00C0"/>
	<note>
		Agrave
	</note>
	<outline>
		<contour>
			<point x="218" y="838" type="line"/>
			<point x="315" y="736" type="line"/>
			<point x="381" y="736" type="line"/>
			<point x="318" y="838" type="line"/>
		</contour>
		<contour>
			<point x="215" y="228" type="line"/>
			<point x="460" y="228" type="line"/>
			<point x="535" y="0" type="line"/>
			<point x="654" y="0" type="line"/>
			<point x="413" y="690" type="line"/>
			<point x="271" y="690" type="line"/>
			<point x="23" y="0" type="line"/>
			<point x="140" y="0" type="line"/>
		</contour>
		<contour>
			<point x="431" y="315" type="line"/>
			<point x="244" y="315" type="line"/>
			<point x="340" y="599" type="line"/>
		</contour>
	</outline>
</glyph>
<glyph name="Adieresis" format="2">
	<advance width="656"/>
	<unicode hex="00C4"/>
	<note>
		Adieresis
	</note>
	<outline>
		<contour>
			<point x="215" y="228" type="line"/>
			<point x="460" y="228" type="line"/>
			<point x="535" y="0" type="line"/>
			<point x="654" y="0" type="line"/>
			<point x="413" y="690" type="line"/>
			<point x="271" y="690" type="line"/>
			<point x="23" y="0" type="line"/>
			<point x="140" y="0" type="line"/>
		</contour>
		<contour>
			<point x="431" y="315" type="line"/>
			<point x="244" y="315" type="line"/>
			<point x="340" y="599" type="line"/>
		</contour>
		<contour>
			<point x="211" y="839" type="line"/>
			<point x="211" y="733" type="line"/>
			<point x="319" y="733" type="line"/>
			<point x="319" y="839" type="line"/>
		</contour>
		<contour>
			<point x="366" y="839" type="line"/>
			<point x="366" y="733" type="line"/>
			<point x="474" y="733" type="line"/>
			<point x="474" y="839" type="line"/>
		</contour>
	</outline>
</glyph>
<glyph name="AE" format="2">
	<advance width="930"/>
	<unicode hex="00C6"/>
	<note>
		AE
	</note>
	<outline>
		<contour>
			<point x="902" y="0" type="line"/>
			<point x="902" y="88" type="line"/>
			<point x="555" y="88" type="line"/>
			<point x="539" y="302" type="line"/>
			<point x="864" y="302" type="line"/>
			<point x="864" y="389" type="line"/>
			<point x="533" y="389" type="line"/>
			<point x="517" y="603" type="line"/>
			<point x="892" y="603" type="line"/>
			<point x="892" y="690" type="line"/>
			<point x="352" y="690" type="line"/>
			<point x="-37" y="0" type="line"/>
			<point x="81" y="0" type="line"/>
			<point x="208" y="235" type="line"/>
			<point x="434" y="235" type="line"/>
			<point x="451" y="0" type="line"/>
		</contour>
		<contour>
			<point x="407" y="602" type="line"/>
			<point x="428" y="323" type="line"/>
			<point x="256" y="323" type="line"/>
		</contour>
	</outline>
</glyph>
<glyph name="Ecircumflex" format="2">
	<advance width="600"/>
	<unicode hex="00CA"/>
	<note>
		Ecircumflex
	</note>
	<outline>
		<contour>
			<point x="231" y="736" type="line"/>
			<point x="306" y="736" type="line"/>
			<point x="337" y="796" type="line"/>
			<point x="368" y="736" type="line"/>
			<point x="444" y="736" type="line"/>
			<point x="378" y="838" type="line"/>
			<point x="297" y="838" type="line"/>
		</contour>
		<contour>
			<point x="572" y="0" type="line"/>
			<point x="572" y="88" type="line"/>
			<point x="205" y="88" type="line"/>
			<point x="205" y="302" type="line"/>
			<point x="534" y="302" type="line"/>
			<point x="534" y="389" type="line"/>
			<point x="205" y="389" type="line"/>
			<point x="205" y="603" type="line"/>
			<point x="562" y="603" type="line"/>
			<point x="562" y="690" type="line"/>
			<point x="95" y="690" type="line"/>
			<point x="95" y="0" type="line"/>
		</contour>
	</outline>
</glyph>
<glyph name="Ntilde" format="2">
	<advance width="737"/>
	<unicode hex="00D1"/>
	<note>
		Ntilde
	</note>
	<outline>
		<contour>
			<point x="320" y="835" type="curve" smooth="yes"/>
			<point x="281" y="835"/>
			<point x="259" y="813"/>
			<point x="259" y="748" type="curve"/>
			<point x="311" y="748" type="line"/>
			<point x="311" y="765"/>
			<point x="317" y="771"/>
			<point x="327" y="771" type="curve" smooth="yes"/>
			<point x="336" y="771"/>
			<point x="347" y="767"/>
			<point x="371" y="759" type="curve" smooth="yes"/>
			<point x="401" y="748"/>
			<point x="417" y="744"/>
			<point x="438" y="744" type="curve" smooth="yes"/>
			<point x="478" y="744"/>
			<point x="500" y="766"/>
			<point x="500" y="831" type="curve"/>
			<point x="447" y="831" type="line"/>
			<point x="447" y="814"/>
			<point x="442" y="808"/>
			<point x="431" y="808" type="curve" smooth="yes"/>
			<point x="423" y="808"/>
			<point x="411" y="812"/>
			<point x="387" y="820" type="curve" smooth="yes"/>
			<point x="358" y="831"/>
			<point x="342" y="835"/>
		</contour>
		<contour>
			<point x="507" y="0" type="line"/>
			<point x="665" y="0" type="line"/>
			<point x="664" y="690" type="line"/>
			<point x="556" y="690" type="line"/>
			<point x="556" y="358" type="line" smooth="yes"/>
			<point x="556" y="287"/>
			<point x="557" y="195"/>
			<point x="559" y="117" type="curve"/>
			<point x="250" y="690" type="line"/>
			<point x="95" y="690" type="line"/>
			<point x="95" y="0" type="line"/>
			<point x="205" y="0" type="line"/>
			<point x="205" y="330" type="line" smooth="yes"/>
			<point x="205" y="401"/>
			<point x="204" y="490"/>
			<point x="201" y="569" type="curve"/>
		</contour>
	</outline>
</glyph>
<glyph name="Otilde" format="2">
	<advance width="750"/>
	<unicode hex="00D5"/>
	<note>
		Otilde
	</note>
	<outline>
		<contour>
			<point x="330" y="771" type="curve" smooth="yes"/>
			<point x="339" y="771"/>
			<point x="350" y="767"/>
			<point x="374" y="759" type="curve" smooth="yes"/>
			<point x="404" y="748"/>
			<point x="420" y="744"/>
			<point x="441" y="744" type="curve" smooth="yes"/>
			<point x="481" y="744"/>
			<point x="503" y="766"/>
			<point x="503" y="831" type="curve"/>
			<point x="450" y="831" type="line"/>
			<point x="450" y="814"/>
			<point x="445" y="808"/>
			<point x="434" y="808" type="curve" smooth="yes"/>
			<point x="426" y="808"/>
			<point x="414" y="812"/>
			<point x="390" y="820" type="curve" smooth="yes"/>
			<point x="361" y="831"/>
			<point x="345" y="835"/>
			<point x="323" y="835" type="curve" smooth="yes"/>
			<point x="284" y="835"/>
			<point x="262" y="813"/>
			<point x="262" y="748" type="curve"/>
			<point x="314" y="748" type="line"/>
			<point x="314" y="765"/>
			<point x="320" y="771"/>
		</contour>
		<contour>
			<point x="382" y="704" type="curve" smooth="yes"/>
			<point x="170" y="704"/>
			<point x="49" y="559"/>
			<point x="49" y="345" type="curve" smooth="yes"/>
			<point x="49" y="132"/>
			<point x="170" y="-14"/>
			<point x="382" y="-14" type="curve" smooth="yes"/>
			<point x="593" y="-14"/>
			<point x="714" y="132"/>
			<point x="714" y="345" type="curve" smooth="yes"/>
			<point x="714" y="559"/>
			<point x="593" y="704"/>
		</contour>
		<contour>
			<point x="382" y="70" type="curve" smooth="yes"/>
			<point x="247" y="70"/>
			<point x="167" y="174"/>
			<point x="167" y="345" type="curve" smooth="yes"/>
			<point x="167" y="517"/>
			<point x="247" y="620"/>
			<point x="382" y="620" type="curve" smooth="yes"/>
			<point x="516" y="620"/>
			<point x="596" y="517"/>
			<point x="596" y="345" type="curve" smooth="yes"/>
			<point x="596" y="174"/>
			<point x="516" y="70"/>
		</contour>
	</outline>
</glyph>
<glyph name="multiply" format="2">
	<advance width="601"/>
	<unicode hex="00D7"/>
	<note>
		multiply
	</note>
	<outline>
		<contour>
			<point x="491" y="176" type="line"/>
			<point x="349" y="318" type="line"/>
			<point x="491" y="460" type="line"/>
			<point x="442" y="508" type="line"/>
			<point x="300" y="366" type="line"/>
			<point x="158" y="508" type="line"/>
			<point x="110" y="460" type="line"/>
			<point x="252" y="318" type="line"/>
			<point x="110" y="176" type="line"/>
			<point x="158" y="128" type="line"/>
			<point x="300" y="270" type="line"/>
			<point x="442" y="128" type="line"/>
		</contour>
	</outline>
</glyph>
<glyph name="Oslash" format="2">
	<advance width="756"/>
	<unicode hex="00D8"/>
	<note>
		Oslash
	</note>
	<outline>
		<contour>
			<point x="658" y="570" type="curve"/>
			<point x="725" y="637" type="line"/>
			<point x="677" y="685" type="line"/>
			<point x="614" y="622" type="line"/>
			<point x="558" y="674"/>
			<point x="481" y="704"/>
			<point x="385" y="704" type="curve" smooth="yes"/>
			<point x="174" y="704"/>
			<point x="52" y="559"/>
			<point x="52" y="345" type="curve" smooth="yes"/>
			<point x="52" y="257"/>
			<point x="73" y="180"/>
			<point x="112" y="120" type="curve"/>
			<point x="45" y="53" type="line"/>
			<point x="93" y="5" type="line"/>
			<point x="156" y="68" type="line"/>
			<point x="212" y="16"/>
			<point x="290" y="-14"/>
			<point x="385" y="-14" type="curve" smooth="yes"/>
			<point x="596" y="-14"/>
			<point x="718" y="132"/>
			<point x="718" y="345" type="curve" smooth="yes"/>
			<point x="718" y="434"/>
			<point x="697" y="510"/>
		</contour>
		<contour>
			<point x="170" y="345" type="curve" smooth="yes"/>
			<point x="170" y="517"/>
			<point x="250" y="620"/>
			<point x="385" y="620" type="curve" smooth="yes"/>
			<point x="451" y="620"/>
			<point x="504" y="595"/>
			<point x="541" y="549" type="curve"/>
			<point x="194" y="202" type="line"/>
			<point x="178" y="242"/>
			<point x="170" y="290"/>
		</contour>
		<contour>
			<point x="600" y="345" type="curve" smooth="yes"/>
			<point x="600" y="174"/>
			<point x="520" y="70"/>
			<point x="385" y="70" type="curve" smooth="yes"/>
			<point x="319" y="70"/>
			<point x="266" y="95"/>
			<point x="229" y="141" type="curve"/>
			<point x="576" y="488" type="line"/>
			<point x="592" y="448"/>
			<point x="600" y="400"/>
		</contour>
	</outline>
</glyph>
<glyph name="Ucircumflex" format="2">
	<advance width="691"/>
	<unicode hex="00DB"/>
	<note>
		Ucircumflex
	</note>
	<outline>
		<contour>
			<point x="252" y="736" type="line"/>
			<point x="327" y="736" type="line"/>
			<point x="358" y="796" type="line"/>
			<point x="389" y="736" type="line"/>
			<point x="465" y="736" type="line"/>
			<point x="399" y="838" type="line"/>
			<point x="318" y="838" type="line"/>
		</contour>
		<contour>
			<point x="629" y="267" type="curve" smooth="yes"/>
			<point x="629" y="690" type="line"/>
			<point x="520" y="690" type="line"/>
			<point x="520" y="265" type="line" smooth="yes"/>
			<point x="520" y="244"/>
			<point x="520" y="225"/>
			<point x="518" y="209" type="curve" smooth="yes"/>
			<point x="511" y="126"/>
			<point x="458" y="70"/>
			<point x="358" y="70" type="curve" smooth="yes"/>
			<point x="259" y="70"/>
			<point x="206" y="126"/>
			<point x="199" y="209" type="curve" smooth="yes"/>
			<point x="197" y="225"/>
			<point x="197" y="244"/>
			<point x="197" y="265" type="curve" smooth="yes"/>
			<point x="197" y="690" type="line"/>
			<point x="88" y="690" type="line"/>
			<point x="88" y="267" type="line" smooth="yes"/>
			<point x="88" y="242"/>
			<point x="88" y="222"/>
			<point x="90" y="196" type="curve" smooth="yes"/>
			<point x="99" y="81"/>
			<point x="178" y="-14"/>
			<point x="358" y="-14" type="curve" smooth="yes"/>
			<point x="538" y="-14"/>
			<point x="617" y="81"/>
			<point x="627" y="196" type="curve" smooth="yes"/>
			<point x="629" y="222"/>
			<point x="629" y="242"/>
		</contour>
	</outline>
</glyph>
<glyph name="germandbls" format="2">
	<advance width="623"/>
	<unicode hex="00DF"/>
	<note>
		germandbls
	</note>
	<outline>
		<contour>
			<point x="313" y="754" type="curve" smooth="yes"/>
			<point x="180" y="754"/>
			<point x="79" y="683"/>
			<point x="71" y="542" type="curve" smooth="yes"/>
			<point x="70" y="524"/>
			<point x="69" y="498"/>
			<point x="69" y="468" type="curve" smooth="yes"/>
			<point x="69" y="0" type="line"/>
			<point x="179" y="0" type="line"/>
			<point x="179" y="476" type="line" smooth="yes"/>
			<point x="179" y="507"/>
			<point x="180" y="526"/>
			<point x="181" y="540" type="curve" smooth="yes"/>
			<point x="187" y="626"/>
			<point x="238" y="670"/>
			<point x="309" y="670" type="curve" smooth="yes"/>
			<point x="388" y="670"/>
			<point x="426" y="633"/>
			<point x="426" y="573" type="curve" smooth="yes"/>
			<point x="426" y="552"/>
			<point x="422" y="535"/>
			<point x="409" y="514" type="curve"/>
			<point x="350" y="483"/>
			<point x="325" y="446"/>
			<point x="325" y="398" type="curve" smooth="yes"/>
			<point x="325" y="341"/>
			<point x="349" y="311"/>
			<point x="408" y="257" type="curve" smooth="yes"/>
			<point x="456" y="214"/>
			<point x="467" y="187"/>
			<point x="467" y="156" type="curve" smooth="yes"/>
			<point x="467" y="109"/>
			<point x="440" y="79"/>
			<point x="381" y="79" type="curve" smooth="yes"/>
			<point x="359" y="79"/>
			<point x="331" y="81"/>
			<point x="287" y="92" type="curve"/>
			<point x="287" y="6" type="line"/>
			<point x="326" y="-2"/>
			<point x="352" y="-4"/>
			<point x="395" y="-4" type="curve" smooth="yes"/>
			<point x="498" y="-4"/>
			<point x="586" y="49"/>
			<point x="586" y="145" type="curve" smooth="yes"/>
			<point x="586" y="218"/>
			<point x="561" y="256"/>
			<point x="504" y="305" type="curve" smooth="yes"/>
			<point x="462" y="342"/>
			<point x="444" y="364"/>
			<point x="444" y="398" type="curve" smooth="yes"/>
			<point x="444" y="426"/>
			<point x="467" y="450"/>
			<point x="515" y="476" type="curve"/>
			<point x="537" y="510"/>
			<point x="545" y="544"/>
			<point x="545" y="574" type="curve" smooth="yes"/>
			<point x="545" y="682"/>
			<point x="458" y="754"/>
		</contour>
	</outline>
</glyph>
<glyph name="ae" format="2">
	<advance width="910"/>
	<unicode hex="00E6"/>
	<note>
		ae
	</note>
	<outline>
		<contour>
			<point x="874" y="279" type="curve" smooth="yes"/>
			<point x="874" y="429"/>
			<point x="790" y="545"/>
			<point x="639" y="545" type="curve" smooth="yes"/>
			<point x="556" y="545"/>
			<point x="492" y="511"/>
			<point x="451" y="450" type="curve"/>
			<point x="425" y="511"/>
			<point x="369" y="545"/>
			<point x="271" y="545" type="curve" smooth="yes"/>
			<point x="144" y="545"/>
			<point x="59" y="479"/>
			<point x="56" y="363" type="curve"/>
			<point x="166" y="363" type="line"/>
			<point x="169" y="429"/>
			<point x="205" y="465"/>
			<point x="272" y="465" type="curve" smooth="yes"/>
			<point x="347" y="465"/>
			<point x="378" y="415"/>
			<point x="378" y="334" type="curve" smooth="yes"/>
			<point x="378" y="312" type="line"/>
			<point x="338" y="312" type="line" smooth="yes"/>
			<point x="139" y="312"/>
			<point x="35" y="261"/>
			<point x="35" y="140" type="curve" smooth="yes"/>
			<point x="35" y="40"/>
			<point x="117" y="-14"/>
			<point x="221" y="-14" type="curve" smooth="yes"/>
			<point x="279" y="-14"/>
			<point x="335" y="0"/>
			<point x="384" y="41" type="curve"/>
			<point x="421" y="103" type="line"/>
			<point x="463" y="19"/>
			<point x="537" y="-14"/>
			<point x="626" y="-14" type="curve" smooth="yes"/>
			<point x="742" y="-14"/>
			<point x="842" y="46"/>
			<point x="866" y="172" type="curve"/>
			<point x="754" y="172" type="line"/>
			<point x="743" y="105"/>
			<point x="694" y="66"/>
			<point x="629" y="66" type="curve" smooth="yes"/>
			<point x="558" y="66"/>
			<point x="500" y="114"/>
			<point x="492" y="235" type="curve"/>
			<point x="871" y="235" type="line"/>
			<point x="873" y="254"/>
			<point x="874" y="269"/>
		</contour>
		<contour>
			<point x="761" y="312" type="curve"/>
			<point x="493" y="312" type="line"/>
			<point x="505" y="413"/>
			<point x="557" y="465"/>
			<point x="633" y="465" type="curve" smooth="yes"/>
			<point x="710" y="465"/>
			<point x="752" y="410"/>
		</contour>
		<contour>
			<point x="378" y="235" type="curve"/>
			<point x="378" y="210" type="line" smooth="yes"/>
			<point x="378" y="121"/>
			<point x="322" y="66"/>
			<point x="249" y="66" type="curve" smooth="yes"/>
			<point x="188" y="66"/>
			<point x="151" y="92"/>
			<point x="151" y="149" type="curve" smooth="yes"/>
			<point x="151" y="225"/>
			<point x="233" y="241"/>
		</contour>
	</outline>
</glyph>
<glyph name="ccedilla" format="2">
	<advance width="544"/>
	<unicode hex="00E7"/>
	<note>
		ccedilla
	</note>
	<outline>
		<contour>
			<point x="279" y="66" type="curve" smooth="yes"/>
			<point x="205" y="66"/>
			<point x="145" y="127"/>
			<point x="145" y="271" type="curve" smooth="yes"/>
			<point x="145" y="404"/>
			<point x="206" y="465"/>
			<point x="283" y="465" type="curve" smooth="yes"/>
			<point x="348" y="465"/>
			<point x="391" y="428"/>
			<point x="407" y="347" type="curve"/>
			<point x="518" y="347" type="line"/>
			<point x="505" y="464"/>
			<point x="420" y="545"/>
			<point x="286" y="545" type="curve" smooth="yes"/>
			<point x="147" y="545"/>
			<point x="29" y="444"/>
			<point x="29" y="263" type="curve" smooth="yes"/>
			<point x="29" y="92"/>
			<point x="114" y="4"/>
			<point x="233" y="-11" type="curve"/>
			<point x="197" y="-81" type="line"/>
			<point x="267" y="-76"/>
			<point x="293" y="-91"/>
			<point x="293" y="-122" type="curve" smooth="yes"/>
			<point x="293" y="-146"/>
			<point x="273" y="-161"/>
			<point x="231" y="-161" type="curve" smooth="yes"/>
			<point x="212" y="-161"/>
			<point x="195" y="-159"/>
			<point x="177" y="-151" type="curve"/>
			<point x="177" y="-202" type="line"/>
			<point x="192" y="-208"/>
			<point x="210" y="-210"/>
			<point x="229" y="-210" type="curve" smooth="yes"/>
			<point x="307" y="-210"/>
			<point x="363" y="-181"/>
			<point x="363" y="-122" type="curve" smooth="yes"/>
			<point x="363" y="-76"/>
			<point x="334" y="-48"/>
			<point x="279" y="-41" type="curve"/>
			<point x="293" y="-13" type="line"/>
			<point x="408" y="-7"/>
			<point x="491" y="56"/>
			<point x="515" y="176" type="curve"/>
			<point x="403" y="176" type="line"/>
			<point x="387" y="104"/>
			<point x="342" y="66"/>
		</contour>
	</outline>
</glyph>
<glyph name="igrave" format="2">
	<advance width="251"/>
	<unicode hex="00EC"/>
	<note>
		igrave
	</note>
	<outline>
		<contour>
			<point x="99" y="578" type="line"/>
			<point x="165" y="578" type="line"/>
			<point x="97" y="692" type="line"/>
			<point x="-3" y="692" type="line"/>
		</contour>
		<contour>
			<point x="69" y="0" type="line"/>
			<point x="179" y="0" type="line"/>
			<point x="179" y="531" type="line"/>
			<point x="69" y="531" type="line"/>
		</contour>
	</outline>
</glyph>
<glyph name="iacute" format="2">
	<advance width="251"/>
	<unicode hex="00ED"/>
	<note>
		iacute
	</note>
	<outline>
		<contour>
			<point x="85" y="578" type="line"/>
			<point x="151" y="578" type="line"/>
			<point x="254" y="692" type="line"/>
			<point x="154" y="692" type="line"/>
		</contour>
		<contour>
			<point x="69" y="0" type="line"/>
			<point x="179" y="0" type="line"/>
			<point x="179" y="531" type="line"/>
			<point x="69" y="531" type="line"/>
		</contour>
	</outline>
</glyph>
<glyph name="eth" format="2">
	<advance width="604"/>
	<unicode hex="00F0"/>
	<note>
		eth
	</note>
	<outline>
		<contour>
			<point x="469" y="638" type="curve"/>
			<point x="511" y="652" type="line"/>
			<point x="493" y="710" type="line"/>
			<point x="421" y="685" type="line"/>
			<point x="392" y="709"/>
			<point x="358" y="728"/>
			<point x="319" y="745" type="curve"/>
			<point x="240" y="687" type="line"/>
			<point x="269" y="676"/>
			<point x="294" y="664"/>
			<point x="316" y="650" type="curve"/>
			<point x="215" y="615" type="line"/>
			<point x="233" y="558" type="line"/>
			<point x="370" y="604" type="line"/>
			<point x="406" y="565"/>
			<point x="426" y="516"/>
			<point x="432" y="457" type="curve"/>
			<point x="387" y="516" type="line"/>
			<point x="350" y="538"/>
			<point x="320" y="545"/>
			<point x="276" y="545" type="curve" smooth="yes"/>
			<point x="144" y="545"/>
			<point x="29" y="440"/>
			<point x="29" y="260" type="curve" smooth="yes"/>
			<point x="29" y="102"/>
			<point x="115" y="-14"/>
			<point x="290" y="-14" type="curve" smooth="yes"/>
			<point x="427" y="-14"/>
			<point x="558" y="72"/>
			<point x="558" y="307" type="curve" smooth="yes"/>
			<point x="558" y="453"/>
			<point x="532" y="560"/>
		</contour>
		<contour>
			<point x="442" y="289" type="curve" smooth="yes"/>
			<point x="442" y="260" type="line" smooth="yes"/>
			<point x="442" y="132"/>
			<point x="379" y="69"/>
			<point x="294" y="69" type="curve" smooth="yes"/>
			<point x="197" y="69"/>
			<point x="146" y="142"/>
			<point x="146" y="267" type="curve" smooth="yes"/>
			<point x="146" y="384"/>
			<point x="204" y="463"/>
			<point x="294" y="463" type="curve" smooth="yes"/>
			<point x="367" y="463"/>
			<point x="442" y="411"/>
		</contour>
	</outline>
</glyph>
<glyph name="ntilde" format="2">
	<advance width="606"/>
	<unicode hex="00F1"/>
	<note>
		ntilde
	</note>
	<outline>
		<contour>
			<point x="257" y="616" type="curve" smooth="yes"/>
			<point x="266" y="616"/>
			<point x="277" y="613"/>
			<point x="301" y="604" type="curve" smooth="yes"/>
			<point x="331" y="594"/>
			<point x="347" y="590"/>
			<point x="368" y="590" type="curve" smooth="yes"/>
			<point x="408" y="590"/>
			<point x="430" y="611"/>
			<point x="430" y="677" type="curve"/>
			<point x="377" y="677" type="line"/>
			<point x="377" y="660"/>
			<point x="372" y="654"/>
			<point x="361" y="654" type="curve" smooth="yes"/>
			<point x="353" y="654"/>
			<point x="341" y="657"/>
			<point x="317" y="666" type="curve" smooth="yes"/>
			<point x="288" y="677"/>
			<point x="272" y="680"/>
			<point x="250" y="680" type="curve" smooth="yes"/>
			<point x="211" y="680"/>
			<point x="189" y="659"/>
			<point x="189" y="594" type="curve"/>
			<point x="241" y="594" type="line"/>
			<point x="241" y="610"/>
			<point x="247" y="616"/>
		</contour>
		<contour>
			<point x="538" y="393" type="curve" smooth="yes"/>
			<point x="528" y="486"/>
			<point x="463" y="545"/>
			<point x="349" y="545" type="curve" smooth="yes"/>
			<point x="296" y="545"/>
			<point x="257" y="536"/>
			<point x="215" y="504" type="curve"/>
			<point x="179" y="443" type="line"/>
			<point x="179" y="531" type="line"/>
			<point x="69" y="531" type="line"/>
			<point x="69" y="0" type="line"/>
			<point x="179" y="0" type="line"/>
			<point x="179" y="238" type="line" smooth="yes"/>
			<point x="179" y="404"/>
			<point x="241" y="464"/>
			<point x="317" y="464" type="curve" smooth="yes"/>
			<point x="392" y="464"/>
			<point x="424" y="422"/>
			<point x="429" y="362" type="curve" smooth="yes"/>
			<point x="431" y="335"/>
			<point x="431" y="312"/>
			<point x="431" y="287" type="curve" smooth="yes"/>
			<point x="431" y="0" type="line"/>
			<point x="541" y="0" type="line"/>
			<point x="541" y="299" type="line" smooth="yes"/>
			<point x="541" y="342"/>
			<point x="540" y="366"/>
		</contour>
	</outline>
</glyph>
<glyph name="ocircumflex" format="2">
	<advance width="595"/>
	<unicode hex="00F4"/>
	<note>
		ocircumflex
	</note>
	<outline>
		<contour>
			<point x="192" y="578" type="line"/>
			<point x="265" y="578" type="line"/>
			<point x="298" y="643" type="line"/>
			<point x="331" y="578" type="line"/>
			<point x="405" y="578" type="line"/>
			<point x="339" y="692" type="line"/>
			<point x="258" y="692" type="line"/>
		</contour>
		<contour>
			<point x="298" y="545" type="curve" smooth="yes"/>
			<point x="119" y="545"/>
			<point x="29" y="421"/>
			<point x="29" y="266" type="curve" smooth="yes"/>
			<point x="29" y="111"/>
			<point x="119" y="-14"/>
			<point x="298" y="-14" type="curve" smooth="yes"/>
			<point x="476" y="-14"/>
			<point x="567" y="111"/>
			<point x="567" y="266" type="curve" smooth="yes"/>
			<point x="567" y="421"/>
			<point x="476" y="545"/>
		</contour>
		<contour>
			<point x="298" y="66" type="curve" smooth="yes"/>
			<point x="201" y="66"/>
			<point x="145" y="146"/>
			<point x="145" y="266" type="curve" smooth="yes"/>
			<point x="145" y="386"/>
			<point x="201" y="465"/>
			<point x="298" y="465" type="curve" smooth="yes"/>
			<point x="394" y="465"/>
			<point x="450" y="386"/>
			<point x="450" y="266" type="curve" smooth="yes"/>
			<point x="450" y="146"/>
			<point x="394" y="66"/>
		</contour>
	</outline>
</glyph>
<glyph name="otilde" format="2">
	<advance width="595"/>
	<unicode hex="00F5"/>
	<note>
		otilde
	</note>
	<outline>
		<contour>
			<point x="246" y="616" type="curve" smooth="yes"/>
			<point x="255" y="616"/>
			<point x="266" y="613"/>
			<point x="290" y="604" type="curve" smooth="yes"/>
			<point x="320" y="594"/>
			<point x="336" y="590"/>
			<point x="357" y="590" type="curve" smooth="yes"/>
			<point x="397" y="590"/>
			<point x="419" y="611"/>
			<point x="419" y="677" type="curve"/>
			<point x="366" y="677" type="line"/>
			<point x="366" y="660"/>
			<point x="361" y="654"/>
			<point x="350" y="654" type="curve" smooth="yes"/>
			<point x="342" y="654"/>
			<point x="330" y="657"/>
			<point x="306" y="666" type="curve" smooth="yes"/>
			<point x="277" y="677"/>
			<point x="261" y="680"/>
			<point x="239" y="680" type="curve" smooth="yes"/>
			<point x="200" y="680"/>
			<point x="178" y="659"/>
			<point x="178" y="594" type="curve"/>
			<point x="230" y="594" type="line"/>
			<point x="230" y="610"/>
			<point x="236" y="616"/>
		</contour>
		<contour>
			<point x="298" y="545" type="curve" smooth="yes"/>
			<point x="119" y="545"/>
			<point x="29" y="421"/>
			<point x="29" y="266" type="curve" smooth="yes"/>
			<point x="29" y="111"/>
			<point x="119" y="-14"/>
			<point x="298" y="-14" type="curve" smooth="yes"/>
			<point x="476" y="-14"/>
			<point x="567" y="111"/>
			<point x="567" y="266" type="curve" smooth="yes"/>
			<point x="567" y="421"/>
			<point x="476" y="545"/>
		</contour>
		<contour>
			<point x="298" y="66" type="curve" smooth="yes"/>
			<point x="201" y="66"/>
			<point x="145" y="146"/>
			<point x="145" y="266" type="curve" smooth="yes"/>
			<point x="145" y="386"/>
			<point x="201" y="465"/>
			<point x="298" y="465" type="curve" smooth="yes"/>
			<point x="394" y="465"/>
			<point x="450" y="386"/>
			<point x="450" y="266" type="curve" smooth="yes"/>
			<point x="450" y="146"/>
			<point x="394" y="66"/>
		</contour>
	</outline>
</glyph>
<glyph name="ucircumflex" format="2">
	<advance width="604"/>
	<unicode hex="00FB"/>
	<note>
		ucircumflex
	</note>
	<outline>
		<contour>
			<point x="190" y="578" type="line"/>
			<point x="263" y="578" type="line"/>
			<point x="296" y="643" type="line"/>
			<point x="329" y="578" type="line"/>
			<point x="403" y="578" type="line"/>
			<point x="337" y="692" type="line"/>
			<point x="256" y="692" type="line"/>
		</contour>
		<contour>
			<point x="532" y="0" type="line"/>
			<point x="532" y="531" type="line"/>
			<point x="423" y="531" type="line"/>
			<point x="423" y="281" type="line" smooth="yes"/>
			<point x="423" y="127"/>
			<point x="365" y="68"/>
			<point x="288" y="68" type="curve" smooth="yes"/>
			<point x="220" y="68"/>
			<point x="182" y="106"/>
			<point x="174" y="164" type="curve" smooth="yes"/>
			<point x="171" y="191"/>
			<point x="170" y="220"/>
			<point x="170" y="237" type="curve" smooth="yes"/>
			<point x="170" y="531" type="line"/>
			<point x="61" y="531" type="line"/>
			<point x="61" y="215" type="line" smooth="yes"/>
			<point x="61" y="172"/>
			<point x="62" y="148"/>
			<point x="66" y="121" type="curve" smooth="yes"/>
			<point x="78" y="48"/>
			<point x="142" y="-14"/>
			<point x="252" y="-14" type="curve" smooth="yes"/>
			<point x="305" y="-14"/>
			<point x="344" y="-5"/>
			<point x="386" y="25" type="curve"/>
			<point x="423" y="91" type="line"/>
			<point x="423" y="0" type="line"/>
		</contour>
	</outline>
</glyph>
<glyph name="Abreve" format="2">
	<advance width="656"/>
	<unicode hex="0102"/>
	<note>
		Abreve
	</note>
	<outline>
		<contour>
			<point x="342" y="724" type="curve" smooth="yes"/>
			<point x="413" y="724"/>
			<point x="452" y="761"/>
			<point x="452" y="838" type="curve"/>
			<point x="390" y="838" type="line"/>
			<point x="389" y="803"/>
			<point x="371" y="786"/>
			<point x="342" y="786" type="curve" smooth="yes"/>
			<point x="313" y="786"/>
			<point x="295" y="803"/>
			<point x="294" y="838" type="curve"/>
			<point x="232" y="838" type="line"/>
			<point x="232" y="761"/>
			<point x="270" y="724"/>
		</contour>
		<contour>
			<point x="215" y="228" type="line"/>
			<point x="460" y="228" type="line"/>
			<point x="535" y="0" type="line"/>
			<point x="654" y="0" type="line"/>
			<point x="413" y="690" type="line"/>
			<point x="271" y="690" type="line"/>
			<point x="23" y="0" type="line"/>
			<point x="140" y="0" type="line"/>
		</contour>
		<contour>
			<point x="431" y="315" type="line"/>
			<point x="244" y="315" type="line"/>
			<point x="340" y="599" type="line"/>
		</contour>
	</outline>
</glyph>
<glyph name="Aogonek" format="2">
	<advance width="656"/>
	<unicode hex="0104"/>
	<note>
		Aogonek
	</note>
	<outline>
		<contour>
			<point x="529" y="-107" type="curve" smooth="yes"/>
			<point x="529" y="-50"/>
			<point x="567" y="-7"/>
			<point x="611" y="0" type="curve"/>
			<point x="654" y="0" type="line"/>
			<point x="413" y="690" type="line"/>
			<point x="271" y="690" type="line"/>
			<point x="23" y="0" type="line"/>
			<point x="140" y="0" type="line"/>
			<point x="215" y="228" type="line"/>
			<point x="460" y="228" type="line"/>
			<point x="532" y="10" type="line"/>
			<point x="477" y="-14"/>
			<point x="427" y="-67"/>
			<point x="427" y="-138" type="curve" smooth="yes"/>
			<point x="427" y="-201"/>
			<point x="467" y="-223"/>
			<point x="525" y="-223" type="curve" smooth="yes"/>
			<point x="566" y="-223"/>
			<point x="600" y="-212"/>
			<point x="626" y="-192" type="curve"/>
			<point x="626" y="-137" type="line"/>
			<point x="608" y="-151"/>
			<point x="591" y="-157"/>
			<point x="573" y="-157" type="curve" smooth="yes"/>
			<point x="546" y="-157"/>
			<point x="529" y="-144"/>
		</contour>
		<contour>
			<point x="431" y="315" type="line"/>
			<point x="244" y="315" type="line"/>
			<point x="340" y="599" type="line"/>
		</contour>
	</outline>
</glyph>
<glyph name="Cacute" format="2">
	<advance width="708"/>
	<unicode hex="0106"/>
	<note>
		Cacute
	</note>
	<outline>
		<contour>
			<point x="333" y="736" type="line"/>
			<point x="399" y="736" type="line"/>
			<point x="496" y="838" type="line"/>
			<point x="396" y="838" type="line"/>
		</contour>
		<contour>
			<point x="379" y="704" type="curve" smooth="yes"/>
			<point x="185" y="704"/>
			<point x="49" y="559"/>
			<point x="49" y="342" type="curve" smooth="yes"/>
			<point x="49" y="132"/>
			<point x="170" y="-14"/>
			<point x="367" y="-14" type="curve" smooth="yes"/>
			<point x="547" y="-14"/>
			<point x="648" y="89"/>
			<point x="662" y="224" type="curve" smooth="yes"/>
			<point x="663" y="234" type="line"/>
			<point x="554" y="234" type="line"/>
			<point x="552" y="224" type="line" smooth="yes"/>
			<point x="533" y="131"/>
			<point x="476" y="70"/>
			<point x="372" y="70" type="curve" smooth="yes"/>
			<point x="250" y="70"/>
			<point x="168" y="176"/>
			<point x="168" y="347" type="curve" smooth="yes"/>
			<point x="168" y="510"/>
			<point x="249" y="620"/>
			<point x="377" y="620" type="curve" smooth="yes"/>
			<point x="481" y="620"/>
			<point x="538" y="561"/>
			<point x="557" y="468" type="curve" smooth="yes"/>
			<point x="559" y="458" type="line"/>
			<point x="668" y="458" type="line"/>
			<point x="667" y="468" type="line" smooth="yes"/>
			<point x="653" y="604"/>
			<point x="559" y="704"/>
		</contour>
	</outline>
</glyph>
<glyph name="Ccaron" format="2">
	<advance width="708"/>
	<unicode hex="010C"/>
	<note>
		Ccaron
	</note>
	<outline>
		<contour>
			<point x="265" y="838" type="line"/>
			<point x="331" y="736" type="line"/>
			<point x="412" y="736" type="line"/>
			<point x="478" y="838" type="line"/>
			<point x="403" y="838" type="line"/>
			<point x="372" y="777" type="line"/>
			<point x="341" y="838" type="line"/>
		</contour>
		<contour>
			<point x="663" y="234" type="line"/>
			<point x="554" y="234" type="line"/>
			<point x="552" y="224" type="line" smooth="yes"/>
			<point x="533" y="131"/>
			<point x="476" y="70"/>
			<point x="372" y="70" type="curve" smooth="yes"/>
			<point x="250" y="70"/>
			<point x="168" y="176"/>
			<point x="168" y="347" type="curve" smooth="yes"/>
			<point x="168" y="510"/>
			<point x="249" y="620"/>
			<point x="377" y="620" type="curve" smooth="yes"/>
			<point x="481" y="620"/>
			<point x="538" y="561"/>
			<point x="557" y="468" type="curve" smooth="yes"/>
			<point x="559" y="458" type="line"/>
			<point x="668" y="458" type="line"/>
			<point x="667" y="468" type="line" smooth="yes"/>
			<point x="653" y="604"/>
			<point x="559" y="704"/>
			<point x="379" y="704" type="curve" smooth="yes"/>
			<point x="185" y="704"/>
			<point x="49" y="559"/>
			<point x="49" y="342" type="curve" smooth="yes"/>
			<point x="49" y="132"/>
			<point x="170" y="-14"/>
			<point x="367" y="-14" type="curve" smooth="yes"/>
			<point x="547" y="-14"/>
			<point x="648" y="89"/>
			<point x="662" y="224" type="curve" smooth="yes"/>
		</contour>
	</outline>
</glyph>
<glyph name="Edotaccent" format="2">
	<advance width="600"/>
	<unicode hex="0116"/>
	<note>
		Edotaccent
	</note>
	<outline>
		<contour>
			<point x="337" y="734" type="curve" smooth="yes"/>
			<point x="370" y="734"/>
			<point x="395" y="758"/>
			<point x="395" y="791" type="curve" smooth="yes"/>
			<point x="395" y="823"/>
			<point x="370" y="847"/>
			<point x="337" y="847" type="curve" smooth="yes"/>
			<point x="304" y="847"/>
			<point x="279" y="823"/>
			<point x="279" y="791" type="curve" smooth="yes"/>
			<point x="279" y="758"/>
			<point x="304" y="734"/>
		</contour>
		<contour>
			<point x="572" y="0" type="line"/>
			<point x="572" y="88" type="line"/>
			<point x="205" y="88" type="line"/>
			<point x="205" y="302" type="line"/>
			<point x="534" y="302" type="line"/>
			<point x="534" y="389" type="line"/>
			<point x="205" y="389" type="line"/>
			<point x="205" y="603" type="line"/>
			<point x="562" y="603" type="line"/>
			<point x="562" y="690" type="line"/>
			<point x="95" y="690" type="line"/>
			<point x="95" y="0" type="line"/>
		</contour>
	</outline>
</glyph>
<glyph name="Eogonek" format="2">
	<advance width="600"/>
	<unicode hex="0118"/>
	<note>
		Eogonek
	</note>
	<outline>
		<contour>
			<point x="522" y="-157" type="curve" smooth="yes"/>
			<point x="495" y="-157"/>
			<point x="478" y="-144"/>
			<point x="478" y="-107" type="curve" smooth="yes"/>
			<point x="478" y="-50"/>
			<point x="516" y="-7"/>
			<point x="560" y="0" type="curve"/>
			<point x="572" y="0" type="line"/>
			<point x="572" y="88" type="line"/>
			<point x="205" y="88" type="line"/>
			<point x="205" y="302" type="line"/>
			<point x="534" y="302" type="line"/>
			<point x="534" y="389" type="line"/>
			<point x="205" y="389" type="line"/>
			<point x="205" y="603" type="line"/>
			<point x="562" y="603" type="line"/>
			<point x="562" y="690" type="line"/>
			<point x="95" y="690" type="line"/>
			<point x="95" y="0" type="line"/>
			<point x="462" y="0" type="line"/>
			<point x="415" y="-27"/>
			<point x="376" y="-75"/>
			<point x="376" y="-138" type="curve" smooth="yes"/>
			<point x="376" y="-201"/>
			<point x="416" y="-223"/>
			<point x="474" y="-223" type="curve" smooth="yes"/>
			<point x="515" y="-223"/>
			<point x="549" y="-212"/>
			<point x="575" y="-192" type="curve"/>
			<point x="575" y="-137" type="line"/>
			<point x="557" y="-151"/>
			<point x="540" y="-157"/>
		</contour>
	</outline>
</glyph>
<glyph name="eogonek" format="2">
	<advance width="562"/>
	<unicode hex="0119"/>
	<note>
		eogonek
	</note>
	<outline>
		<contour>
			<point x="526" y="279" type="curve" smooth="yes"/>
			<point x="526" y="429"/>
			<point x="443" y="545"/>
			<point x="289" y="545" type="curve" smooth="yes"/>
			<point x="136" y="545"/>
			<point x="29" y="432"/>
			<point x="29" y="264" type="curve" smooth="yes"/>
			<point x="29" y="88"/>
			<point x="123" y="-2"/>
			<point x="252" y="-13" type="curve"/>
			<point x="215" y="-41"/>
			<point x="186" y="-84"/>
			<point x="186" y="-138" type="curve" smooth="yes"/>
			<point x="186" y="-201"/>
			<point x="226" y="-223"/>
			<point x="284" y="-223" type="curve" smooth="yes"/>
			<point x="325" y="-223"/>
			<point x="359" y="-212"/>
			<point x="385" y="-192" type="curve"/>
			<point x="385" y="-137" type="line"/>
			<point x="367" y="-151"/>
			<point x="350" y="-157"/>
			<point x="332" y="-157" type="curve" smooth="yes"/>
			<point x="305" y="-157"/>
			<point x="288" y="-144"/>
			<point x="288" y="-107" type="curve" smooth="yes"/>
			<point x="288" y="-58"/>
			<point x="316" y="-20"/>
			<point x="351" y="-5" type="curve"/>
			<point x="357" y="-4"/>
			<point x="363" y="-2"/>
			<point x="370" y="0" type="curve" smooth="yes"/>
			<point x="444" y="24"/>
			<point x="501" y="81"/>
			<point x="518" y="172" type="curve"/>
			<point x="407" y="172" type="line"/>
			<point x="396" y="105"/>
			<point x="346" y="66"/>
			<point x="282" y="66" type="curve" smooth="yes"/>
			<point x="210" y="66"/>
			<point x="152" y="108"/>
			<point x="143" y="235" type="curve"/>
			<point x="524" y="235" type="line"/>
			<point x="526" y="254"/>
			<point x="526" y="269"/>
		</contour>
		<contour>
			<point x="285" y="465" type="curve" smooth="yes"/>
			<point x="362" y="465"/>
			<point x="405" y="410"/>
			<point x="413" y="312" type="curve"/>
			<point x="144" y="312" type="line"/>
			<point x="156" y="414"/>
			<point x="210" y="465"/>
		</contour>
	</outline>
</glyph>
<glyph name="Ecaron" format="2">
	<advance width="600"/>
	<unicode hex="011A"/>
	<note>
		Ecaron
	</note>
	<outline>
		<contour>
			<point x="231" y="838" type="line"/>
			<point x="297" y="736" type="line"/>
			<point x="378" y="736" type="line"/>
			<point x="444" y="838" type="line"/>
			<point x="369" y="838" type="line"/>
			<point x="338" y="777" type="line"/>
			<point x="307" y="838" type="line"/>
		</contour>
		<contour>
			<point x="572" y="0" type="line"/>
			<point x="572" y="88" type="line"/>
			<point x="205" y="88" type="line"/>
			<point x="205" y="302" type="line"/>
			<point x="534" y="302" type="line"/>
			<point x="534" y="389" type="line"/>
			<point x="205" y="389" type="line"/>
			<point x="205" y="603" type="line"/>
			<point x="562" y="603" type="line"/>
			<point x="562" y="690" type="line"/>
			<point x="95" y="690" type="line"/>
			<point x="95" y="0" type="line"/>
		</contour>
	</outline>
</glyph>
<glyph name="gbreve" format="2">
	<advance width="629"/>
	<unicode hex="011F"/>
	<note>
		gbreve
	</note>
	<outline>
		<contour>
			<point x="310" y="567" type="curve" smooth="yes"/>
			<point x="381" y="567"/>
			<point x="420" y="605"/>
			<point x="420" y="692" type="curve"/>
			<point x="358" y="692" type="line"/>
			<point x="357" y="646"/>
			<point x="339" y="629"/>
			<point x="310" y="629" type="curve" smooth="yes"/>
			<point x="281" y="629"/>
			<point x="263" y="646"/>
			<point x="262" y="692" type="curve"/>
			<point x="200" y="692" type="line"/>
			<point x="200" y="605"/>
			<point x="238" y="567"/>
		</contour>
		<contour>
			<point x="557" y="132" type="curve" smooth="yes"/>
			<point x="557" y="531" type="line"/>
			<point x="447" y="531" type="line"/>
			<point x="447" y="459" type="line"/>
			<point x="412" y="512" type="line"/>
			<point x="385" y="533"/>
			<point x="330" y="545"/>
			<point x="286" y="545" type="curve" smooth="yes"/>
			<point x="149" y="545"/>
			<point x="29" y="453"/>
			<point x="29" y="259" type="curve" smooth="yes"/>
			<point x="29" y="103"/>
			<point x="118" y="-9"/>
			<point x="271" y="-9" type="curve" smooth="yes"/>
			<point x="325" y="-9"/>
			<point x="377" y="7"/>
			<point x="407" y="31" type="curve"/>
			<point x="447" y="89" type="line"/>
			<point x="447" y="78" type="line" smooth="yes"/>
			<point x="447" y="59"/>
			<point x="447" y="40"/>
			<point x="446" y="17" type="curve" smooth="yes"/>
			<point x="442" y="-78"/>
			<point x="387" y="-130"/>
			<point x="291" y="-130" type="curve" smooth="yes"/>
			<point x="209" y="-130"/>
			<point x="160" y="-91"/>
			<point x="153" y="-34" type="curve" smooth="yes"/>
			<point x="152" y="-25" type="line"/>
			<point x="44" y="-25" type="line"/>
			<point x="45" y="-35" type="line" smooth="yes"/>
			<point x="56" y="-149"/>
			<point x="137" y="-213"/>
			<point x="290" y="-213" type="curve" smooth="yes"/>
			<point x="450" y="-213"/>
			<point x="550" y="-132"/>
			<point x="556" y="29" type="curve" smooth="yes"/>
			<point x="557" y="58"/>
			<point x="557" y="99"/>
		</contour>
		<contour>
			<point x="293" y="71" type="curve" smooth="yes"/>
			<point x="198" y="71"/>
			<point x="145" y="154"/>
			<point x="145" y="269" type="curve" smooth="yes"/>
			<point x="145" y="401"/>
			<point x="211" y="465"/>
			<point x="298" y="465" type="curve" smooth="yes"/>
			<point x="369" y="465"/>
			<point x="447" y="417"/>
			<point x="447" y="288" type="curve" smooth="yes"/>
			<point x="447" y="265" type="line" smooth="yes"/>
			<point x="447" y="123"/>
			<point x="376" y="71"/>
		</contour>
	</outline>
</glyph>
<glyph name="gdotaccent" format="2">
	<advance width="629"/>
	<unicode hex="0121"/>
	<note>
		gdotaccent
	</note>
	<outline>
		<contour>
			<point x="310" y="589" type="curve" smooth="yes"/>
			<point x="347" y="589"/>
			<point x="375" y="616"/>
			<point x="375" y="653" type="curve" smooth="yes"/>
			<point x="375" y="689"/>
			<point x="347" y="716"/>
			<point x="310" y="716" type="curve" smooth="yes"/>
			<point x="273" y="716"/>
			<point x="246" y="689"/>
			<point x="246" y="653" type="curve" smooth="yes"/>
			<point x="246" y="616"/>
			<point x="273" y="589"/>
		</contour>
		<contour>
			<point x="557" y="132" type="curve" smooth="yes"/>
			<point x="557" y="531" type="line"/>
			<point x="447" y="531" type="line"/>
			<point x="447" y="459" type="line"/>
			<point x="412" y="512" type="line"/>
			<point x="385" y="533"/>
			<point x="330" y="545"/>
			<point x="286" y="545" type="curve" smooth="yes"/>
			<point x="149" y="545"/>
			<point x="29" y="453"/>
			<point x="29" y="259" type="curve" smooth="yes"/>
			<point x="29" y="103"/>
			<point x="118" y="-9"/>
			<point x="271" y="-9" type="curve" smooth="yes"/>
			<point x="325" y="-9"/>
			<point x="377" y="7"/>
			<point x="407" y="31" type="curve"/>
			<point x="447" y="89" type="line"/>
			<point x="447" y="78" type="line" smooth="yes"/>
			<point x="447" y="59"/>
			<point x="447" y="40"/>
			<point x="446" y="17" type="curve" smooth="yes"/>
			<point x="442" y="-78"/>
			<point x="387" y="-130"/>
			<point x="291" y="-130" type="curve" smooth="yes"/>
			<point x="209" y="-130"/>
			<point x="160" y="-91"/>
			<point x="153" y="-34" type="curve" smooth="yes"/>
			<point x="152" y="-25" type="line"/>
			<point x="44" y="-25" type="line"/>
			<point x="45" y="-35" type="line" smooth="yes"/>
			<point x="56" y="-149"/>
			<point x="137" y="-213"/>
			<point x="290" y="-213" type="curve" smooth="yes"/>
			<point x="450" y="-213"/>
			<point x="550" y="-132"/>
			<point x="556" y="29" type="curve" smooth="yes"/>
			<point x="557" y="58"/>
			<point x="557" y="99"/>
		</contour>
		<contour>
			<point x="293" y="71" type="curve" smooth="yes"/>
			<point x="198" y="71"/>
			<point x="145" y="154"/>
			<point x="145" y="269" type="curve" smooth="yes"/>
			<point x="145" y="401"/>
			<point x="211" y="465"/>
			<point x="298" y="465" type="curve" smooth="yes"/>
			<point x="369" y="465"/>
			<point x="447" y="417"/>
			<point x="447" y="288" type="curve" smooth="yes"/>
			<point x="447" y="265" type="line" smooth="yes"/>
			<point x="447" y="123"/>
			<point x="376" y="71"/>
		</contour>
	</outline>
</glyph>
<glyph name="uni0122" format="2">
	<advance width="722"/>
	<unicode hex="0122"/>
	<note>
		Gcommaaccent
	</note>
	<outline>
		<contour>
			<point x="663" y="342" type="line"/>
			<point x="402" y="342" type="line"/>
			<point x="402" y="254" type="line"/>
			<point x="556" y="254" type="line"/>
			<point x="550" y="143"/>
			<point x="476" y="70"/>
			<point x="374" y="70" type="curve" smooth="yes"/>
			<point x="251" y="70"/>
			<point x="168" y="176"/>
			<point x="168" y="347" type="curve" smooth="yes"/>
			<point x="168" y="510"/>
			<point x="251" y="620"/>
			<point x="379" y="620" type="curve" smooth="yes"/>
			<point x="484" y="620"/>
			<point x="541" y="561"/>
			<point x="559" y="468" type="curve" smooth="yes"/>
			<point x="561" y="458" type="line"/>
			<point x="671" y="458" type="line"/>
			<point x="670" y="468" type="line" smooth="yes"/>
			<point x="656" y="604"/>
			<point x="562" y="704"/>
			<point x="381" y="704" type="curve" smooth="yes"/>
			<point x="187" y="704"/>
			<point x="49" y="559"/>
			<point x="49" y="342" type="curve" smooth="yes"/>
			<point x="49" y="132"/>
			<point x="165" y="-14"/>
			<point x="362" y="-14" type="curve" smooth="yes"/>
			<point x="439" y="-14"/>
			<point x="497" y="8"/>
			<point x="536" y="50" type="curve"/>
			<point x="567" y="117" type="line"/>
			<point x="571" y="0" type="line"/>
			<point x="663" y="0" type="line"/>
		</contour>
		<contour>
			<point x="422" y="-48" type="line"/>
			<point x="341" y="-48" type="line"/>
			<point x="281" y="-200" type="line"/>
			<point x="351" y="-200" type="line"/>
			<point x="422" y="-59" type="line"/>
		</contour>
	</outline>
</glyph>
<glyph name="uni0123" format="2">
	<advance width="629"/>
	<unicode hex="0123"/>
	<note>
		gcommaaccent
	</note>
	<outline>
		<contour>
			<point x="263" y="578" type="line"/>
			<point x="343" y="578" type="line"/>
			<point x="403" y="730" type="line"/>
			<point x="333" y="730" type="line"/>
			<point x="263" y="589" type="line"/>
		</contour>
		<contour>
			<point x="557" y="132" type="curve" smooth="yes"/>
			<point x="557" y="531" type="line"/>
			<point x="447" y="531" type="line"/>
			<point x="447" y="459" type="line"/>
			<point x="412" y="512" type="line"/>
			<point x="385" y="533"/>
			<point x="330" y="545"/>
			<point x="286" y="545" type="curve" smooth="yes"/>
			<point x="149" y="545"/>
			<point x="29" y="453"/>
			<point x="29" y="259" type="curve" smooth="yes"/>
			<point x="29" y="103"/>
			<point x="118" y="-9"/>
			<point x="271" y="-9" type="curve" smooth="yes"/>
			<point x="325" y="-9"/>
			<point x="377" y="7"/>
			<point x="407" y="31" type="curve"/>
			<point x="447" y="89" type="line"/>
			<point x="447" y="78" type="line" smooth="yes"/>
			<point x="447" y="59"/>
			<point x="447" y="40"/>
			<point x="446" y="17" type="curve" smooth="yes"/>
			<point x="442" y="-78"/>
			<point x="387" y="-130"/>
			<point x="291" y="-130" type="curve" smooth="yes"/>
			<point x="209" y="-130"/>
			<point x="160" y="-91"/>
			<point x="153" y="-34" type="curve" smooth="yes"/>
			<point x="152" y="-25" type="line"/>
			<point x="44" y="-25" type="line"/>
			<point x="45" y="-35" type="line" smooth="yes"/>
			<point x="56" y="-149"/>
			<point x="137" y="-213"/>
			<point x="290" y="-213" type="curve" smooth="yes"/>
			<point x="450" y="-213"/>
			<point x="550" y="-132"/>
			<point x="556" y="29" type="curve" smooth="yes"/>
			<point x="557" y="58"/>
			<point x="557" y="99"/>
		</contour>
		<contour>
			<point x="293" y="71" type="curve" smooth="yes"/>
			<point x="198" y="71"/>
			<point x="145" y="154"/>
			<point x="145" y="269" type="curve" smooth="yes"/>
			<point x="145" y="401"/>
			<point x="211" y="465"/>
			<point x="298" y="465" type="curve" smooth="yes"/>
			<point x="369" y="465"/>
			<point x="447" y="417"/>
			<point x="447" y="288" type="curve" smooth="yes"/>
			<point x="447" y="265" type="line" smooth="yes"/>
			<point x="447" y="123"/>
			<point x="376" y="71"/>
		</contour>
	</outline>
</glyph>
<glyph name="Hbar" format="2">
	<advance width="740"/>
	<unicode hex="0126"/>
	<note>
		Hbar
	</note>
	<outline>
		<contour>
			<point x="668" y="497" type="line"/>
			<point x="708" y="497" type="line"/>
			<point x="708" y="563" type="line"/>
			<point x="668" y="563" type="line"/>
			<point x="668" y="690" type="line"/>
			<point x="559" y="690" type="line"/>
			<point x="559" y="563" type="line"/>
			<point x="205" y="563" type="line"/>
			<point x="205" y="690" type="line"/>
			<point x="95" y="690" type="line"/>
			<point x="95" y="563" type="line"/>
			<point x="55" y="563" type="line"/>
			<point x="55" y="497" type="line"/>
			<point x="95" y="497" type="line"/>
			<point x="95" y="0" type="line"/>
			<point x="205" y="0" type="line"/>
			<point x="205" y="294" type="line"/>
			<point x="559" y="294" type="line"/>
			<point x="559" y="0" type="line"/>
			<point x="668" y="0" type="line"/>
		</contour>
		<contour>
			<point x="205" y="497" type="line"/>
			<point x="559" y="497" type="line"/>
			<point x="559" y="383" type="line"/>
			<point x="205" y="383" type="line"/>
		</contour>
	</outline>
</glyph>
<glyph name="hbar" format="2">
	<advance width="621"/>
	<unicode hex="0127"/>
	<note>
		hbar
	</note>
	<outline>
		<contour>
			<point x="553" y="393" type="curve" smooth="yes"/>
			<point x="543" y="486"/>
			<point x="478" y="545"/>
			<point x="364" y="545" type="curve" smooth="yes"/>
			<point x="311" y="545"/>
			<point x="272" y="536"/>
			<point x="230" y="504" type="curve"/>
			<point x="194" y="443" type="line"/>
			<point x="194" y="590" type="line"/>
			<point x="299" y="590" type="line"/>
			<point x="299" y="656" type="line"/>
			<point x="194" y="656" type="line"/>
			<point x="194" y="740" type="line"/>
			<point x="84" y="740" type="line"/>
			<point x="84" y="656" type="line"/>
			<point x="29" y="656" type="line"/>
			<point x="29" y="590" type="line"/>
			<point x="84" y="590" type="line"/>
			<point x="84" y="0" type="line"/>
			<point x="194" y="0" type="line"/>
			<point x="194" y="238" type="line" smooth="yes"/>
			<point x="194" y="404"/>
			<point x="256" y="462"/>
			<point x="332" y="464" type="curve" smooth="yes"/>
			<point x="407" y="465"/>
			<point x="439" y="422"/>
			<point x="444" y="362" type="curve" smooth="yes"/>
			<point x="446" y="335"/>
			<point x="446" y="312"/>
			<point x="446" y="287" type="curve" smooth="yes"/>
			<point x="446" y="0" type="line"/>
			<point x="556" y="0" type="line"/>
			<point x="556" y="299" type="line" smooth="yes"/>
			<point x="556" y="342"/>
			<point x="555" y="366"/>
		</contour>
	</outline>
</glyph>
<glyph name="Imacron" format="2">
	<advance width="277"/>
	<unicode hex="012A"/>
	<note>
		Imacron
	</note>
	<outline>
		<contour>
			<point x="23" y="758" type="line"/>
			<point x="278" y="758" type="line"/>
			<point x="278" y="821" type="line"/>
			<point x="23" y="821" type="line"/>
		</contour>
		<contour>
			<point x="95" y="0" type="line"/>
			<point x="205" y="0" type="line"/>
			<point x="205" y="690" type="line"/>
			<point x="95" y="690" type="line"/>
		</contour>
	</outline>
</glyph>
<glyph name="imacron" format="2">
	<advance width="251"/>
	<unicode hex="012B"/>
	<note>
		imacron
	</note>
	<outline>
		<contour>
			<point x="-4" y="600" type="line"/>
			<point x="252" y="600" type="line"/>
			<point x="252" y="663" type="line"/>
			<point x="-4" y="663" type="line"/>
		</contour>
		<contour>
			<point x="69" y="0" type="line"/>
			<point x="179" y="0" type="line"/>
			<point x="179" y="531" type="line"/>
			<point x="69" y="531" type="line"/>
		</contour>
	</outline>
</glyph>
<glyph name="Iogonek" format="2">
	<advance width="277"/>
	<unicode hex="012E"/>
	<note>
		Iogonek
	</note>
	<outline>
		<contour>
			<point x="172" y="0" type="curve"/>
			<point x="205" y="0" type="line"/>
			<point x="205" y="690" type="line"/>
			<point x="95" y="690" type="line"/>
			<point x="95" y="10" type="line"/>
			<point x="94" y="10" type="line"/>
			<point x="39" y="-13"/>
			<point x="-12" y="-66"/>
			<point x="-12" y="-138" type="curve" smooth="yes"/>
			<point x="-12" y="-201"/>
			<point x="28" y="-223"/>
			<point x="86" y="-223" type="curve" smooth="yes"/>
			<point x="127" y="-223"/>
			<point x="161" y="-212"/>
			<point x="187" y="-192" type="curve"/>
			<point x="187" y="-137" type="line"/>
			<point x="169" y="-151"/>
			<point x="152" y="-157"/>
			<point x="134" y="-157" type="curve" smooth="yes"/>
			<point x="107" y="-157"/>
			<point x="90" y="-144"/>
			<point x="90" y="-107" type="curve" smooth="yes"/>
			<point x="90" y="-50"/>
			<point x="128" y="-7"/>
		</contour>
	</outline>
</glyph>
<glyph name="iogonek" format="2">
	<advance width="251"/>
	<unicode hex="012F"/>
	<note>
		iogonek
	</note>
	<outline>
		<contour>
			<point x="179" y="531" type="line"/>
			<point x="69" y="531" type="line"/>
			<point x="69" y="10" type="line"/>
			<point x="14" y="-13"/>
			<point x="-37" y="-66"/>
			<point x="-37" y="-138" type="curve" smooth="yes"/>
			<point x="-37" y="-201"/>
			<point x="3" y="-223"/>
			<point x="61" y="-223" type="curve" smooth="yes"/>
			<point x="102" y="-223"/>
			<point x="136" y="-212"/>
			<point x="162" y="-192" type="curve"/>
			<point x="162" y="-137" type="line"/>
			<point x="144" y="-151"/>
			<point x="127" y="-157"/>
			<point x="109" y="-157" type="curve" smooth="yes"/>
			<point x="82" y="-157"/>
			<point x="65" y="-144"/>
			<point x="65" y="-107" type="curve" smooth="yes"/>
			<point x="65" y="-50"/>
			<point x="103" y="-7"/>
			<point x="147" y="0" type="curve"/>
			<point x="179" y="0" type="line"/>
		</contour>
		<contour>
			<point x="69" y="716" type="line"/>
			<point x="69" y="589" type="line"/>
			<point x="180" y="589" type="line"/>
			<point x="180" y="716" type="line"/>
		</contour>
	</outline>
</glyph>
<glyph name="dotlessi" format="2">
	<advance width="251"/>
	<unicode hex="0131"/>
	<note>
		dotlessi
	</note>
	<outline>
		<contour>
			<point x="69" y="0" type="line"/>
			<point x="179" y="0" type="line"/>
			<point x="179" y="531" type="line"/>
			<point x="69" y="531" type="line"/>
		</contour>
	</outline>
</glyph>
<glyph name="IJ" format="2">
	<advance width="844"/>
	<unicode hex="0132"/>
	<note>
		IJ
	</note>
	<outline>
		<contour>
			<point x="95" y="0" type="line"/>
			<point x="205" y="0" type="line"/>
			<point x="205" y="690" type="line"/>
			<point x="95" y="690" type="line"/>
		</contour>
		<contour>
			<point x="790" y="273" type="curve" smooth="yes"/>
			<point x="790" y="690" type="line"/>
			<point x="680" y="690" type="line"/>
			<point x="680" y="268" type="line" smooth="yes"/>
			<point x="680" y="236"/>
			<point x="680" y="212"/>
			<point x="679" y="191" type="curve" smooth="yes"/>
			<point x="673" y="116"/>
			<point x="637" y="70"/>
			<point x="564" y="70" type="curve" smooth="yes"/>
			<point x="490" y="70"/>
			<point x="447" y="110"/>
			<point x="442" y="204" type="curve" smooth="yes"/>
			<point x="440" y="242" type="line"/>
			<point x="330" y="242" type="line"/>
			<point x="331" y="204" type="line" smooth="yes"/>
			<point x="335" y="70"/>
			<point x="411" y="-14"/>
			<point x="554" y="-14" type="curve" smooth="yes"/>
			<point x="708" y="-14"/>
			<point x="780" y="67"/>
			<point x="787" y="184" type="curve" smooth="yes"/>
			<point x="790" y="223"/>
			<point x="790" y="245"/>
		</contour>
	</outline>
</glyph>
<glyph name="ij" format="2">
	<advance width="496"/>
	<unicode hex="0133"/>
	<note>
		ij
	</note>
	<outline>
		<contour>
			<point x="69" y="0" type="line"/>
			<point x="179" y="0" type="line"/>
			<point x="179" y="531" type="line"/>
			<point x="69" y="531" type="line"/>
		</contour>
		<contour>
			<point x="425" y="-31" type="curve" smooth="yes"/>
			<point x="425" y="531" type="line"/>
			<point x="316" y="531" type="line"/>
			<point x="316" y="-34" type="line" smooth="yes"/>
			<point x="316" y="-49"/>
			<point x="316" y="-65"/>
			<point x="314" y="-79" type="curve" smooth="yes"/>
			<point x="310" y="-115"/>
			<point x="286" y="-130"/>
			<point x="229" y="-125" type="curve"/>
			<point x="229" y="-208" type="line"/>
			<point x="243" y="-210"/>
			<point x="257" y="-210"/>
			<point x="275" y="-210" type="curve" smooth="yes"/>
			<point x="375" y="-210"/>
			<point x="416" y="-168"/>
			<point x="423" y="-95" type="curve" smooth="yes"/>
			<point x="424" y="-77"/>
			<point x="425" y="-51"/>
		</contour>
		<contour>
			<point x="69" y="716" type="line"/>
			<point x="69" y="589" type="line"/>
			<point x="180" y="589" type="line"/>
			<point x="180" y="716" type="line"/>
		</contour>
		<contour>
			<point x="316" y="716" type="line"/>
			<point x="316" y="589" type="line"/>
			<point x="427" y="589" type="line"/>
			<point x="427" y="716" type="line"/>
		</contour>
	</outline>
</glyph>
<glyph name="uni0136" format="2">
	<advance width="643"/>
	<unicode hex="0136"/>
	<note>
		Kcommaaccent
	</note>
	<outline>
		<contour>
			<point x="640" y="0" type="line"/>
			<point x="346" y="356" type="line"/>
			<point x="656" y="690" type="line"/>
			<point x="526" y="690" type="line"/>
			<point x="205" y="339" type="line"/>
			<point x="205" y="690" type="line"/>
			<point x="95" y="690" type="line"/>
			<point x="95" y="0" type="line"/>
			<point x="205" y="0" type="line"/>
			<point x="205" y="222" type="line"/>
			<point x="266" y="288" type="line"/>
			<point x="493" y="0" type="line"/>
		</contour>
		<contour>
			<point x="394" y="-48" type="line"/>
			<point x="313" y="-48" type="line"/>
			<point x="253" y="-200" type="line"/>
			<point x="323" y="-200" type="line"/>
			<point x="394" y="-59" type="line"/>
		</contour>
	</outline>
</glyph>
<glyph name="uni0137" format="2">
	<advance width="550"/>
	<unicode hex="0137"/>
	<note>
		kcommaaccent
	</note>
	<outline>
		<contour>
			<point x="406" y="0" type="line"/>
			<point x="549" y="0" type="line"/>
			<point x="304" y="282" type="line"/>
			<point x="546" y="531" type="line"/>
			<point x="411" y="531" type="line"/>
			<point x="179" y="275" type="line"/>
			<point x="179" y="735" type="line"/>
			<point x="69" y="735" type="line"/>
			<point x="69" y="0" type="line"/>
			<point x="179" y="0" type="line"/>
			<point x="179" y="166" type="line"/>
			<point x="226" y="218" type="line"/>
		</contour>
		<contour>
			<point x="333" y="-48" type="line"/>
			<point x="252" y="-48" type="line"/>
			<point x="192" y="-200" type="line"/>
			<point x="262" y="-200" type="line"/>
			<point x="333" y="-59" type="line"/>
		</contour>
	</outline>
</glyph>
<glyph name="uni013B" format="2">
	<advance width="588"/>
	<unicode hex="013B"/>
	<note>
		Lcommaaccent
	</note>
	<outline>
		<contour>
			<point x="572" y="0" type="line"/>
			<point x="572" y="91" type="line"/>
			<point x="205" y="91" type="line"/>
			<point x="205" y="690" type="line"/>
			<point x="95" y="690" type="line"/>
			<point x="95" y="0" type="line"/>
		</contour>
		<contour>
			<point x="384" y="-48" type="line"/>
			<point x="303" y="-48" type="line"/>
			<point x="243" y="-200" type="line"/>
			<point x="313" y="-200" type="line"/>
			<point x="384" y="-59" type="line"/>
		</contour>
	</outline>
</glyph>
<glyph name="uni013C" format="2">
	<advance width="262"/>
	<unicode hex="013C"/>
	<note>
		lcommaaccent
	</note>
	<outline>
		<contour>
			<point x="175" y="162" type="curve" smooth="yes"/>
			<point x="175" y="735" type="line"/>
			<point x="65" y="735" type="line"/>
			<point x="65" y="159" type="line" smooth="yes"/>
			<point x="65" y="127"/>
			<point x="65" y="103"/>
			<point x="66" y="83" type="curve" smooth="yes"/>
			<point x="70" y="15"/>
			<point x="109" y="-6"/>
			<point x="167" y="-6" type="curve" smooth="yes"/>
			<point x="192" y="-6"/>
			<point x="217" y="-4"/>
			<point x="239" y="-1" type="curve"/>
			<point x="239" y="76" type="line"/>
			<point x="192" y="72"/>
			<point x="178" y="82"/>
			<point x="176" y="112" type="curve" smooth="yes"/>
			<point x="175" y="128"/>
			<point x="175" y="144"/>
		</contour>
		<contour>
			<point x="109" y="-200" type="line"/>
			<point x="180" y="-59" type="line"/>
			<point x="180" y="-48" type="line"/>
			<point x="99" y="-48" type="line"/>
			<point x="39" y="-200" type="line"/>
		</contour>
	</outline>
</glyph>
<glyph name="Lcaron" format="2">
	<advance width="588"/>
	<unicode hex="013D"/>
	<note>
		Lcaron
	</note>
	<outline>
		<contour>
			<point x="572" y="0" type="line"/>
			<point x="572" y="91" type="line"/>
			<point x="205" y="91" type="line"/>
			<point x="205" y="690" type="line"/>
			<point x="95" y="690" type="line"/>
			<point x="95" y="0" type="line"/>
		</contour>
	</outline>
</glyph>
<glyph name="Ldot" format="2">
	<advance width="588"/>
	<unicode hex="013F"/>
	<note>
		Ldot
	</note>
	<outline>
		<contour>
			<point x="572" y="0" type="line"/>
			<point x="572" y="91" type="line"/>
			<point x="205" y="91" type="line"/>
			<point x="205" y="690" type="line"/>
			<point x="95" y="690" type="line"/>
			<point x="95" y="0" type="line"/>
		</contour>
		<contour>
			<point x="407" y="334" type="curve" smooth="yes"/>
			<point x="444" y="334"/>
			<point x="473" y="363"/>
			<point x="473" y="400" type="curve" smooth="yes"/>
			<point x="473" y="438"/>
			<point x="444" y="466"/>
			<point x="407" y="466" type="curve" smooth="yes"/>
			<point x="369" y="466"/>
			<point x="340" y="438"/>
			<point x="340" y="400" type="curve" smooth="yes"/>
			<point x="340" y="363"/>
			<point x="369" y="334"/>
		</contour>
	</outline>
</glyph>
<glyph name="Lslash" format="2">
	<advance width="615"/>
	<unicode hex="0141"/>
	<note>
		Lslash
	</note>
	<outline>
		<contour>
			<point x="598" y="0" type="line"/>
			<point x="598" y="91" type="line"/>
			<point x="231" y="91" type="line"/>
			<point x="231" y="350" type="line"/>
			<point x="347" y="417" type="line"/>
			<point x="347" y="495" type="line"/>
			<point x="231" y="428" type="line"/>
			<point x="231" y="690" type="line"/>
			<point x="122" y="690" type="line"/>
			<point x="122" y="365" type="line"/>
			<point x="17" y="305" type="line"/>
			<point x="17" y="227" type="line"/>
			<point x="122" y="287" type="line"/>
			<point x="122" y="0" type="line"/>
		</contour>
	</outline>
</glyph>
<glyph name="nacute" format="2">
	<advance width="606"/>
	<unicode hex="0144"/>
	<note>
		nacute
	</note>
	<outline>
		<contour>
			<point x="336" y="578" type="line"/>
			<point x="439" y="692" type="line"/>
			<point x="339" y="692" type="line"/>
			<point x="270" y="578" type="line"/>
		</contour>
		<contour>
			<point x="538" y="393" type="curve" smooth="yes"/>
			<point x="528" y="486"/>
			<point x="463" y="545"/>
			<point x="349" y="545" type="curve" smooth="yes"/>
			<point x="296" y="545"/>
			<point x="257" y="536"/>
			<point x="215" y="504" type="curve"/>
			<point x="179" y="443" type="line"/>
			<point x="179" y="531" type="line"/>
			<point x="69" y="531" type="line"/>
			<point x="69" y="0" type="line"/>
			<point x="179" y="0" type="line"/>
			<point x="179" y="238" type="line" smooth="yes"/>
			<point x="179" y="404"/>
			<point x="241" y="464"/>
			<point x="317" y="464" type="curve" smooth="yes"/>
			<point x="392" y="464"/>
			<point x="424" y="422"/>
			<point x="429" y="362" type="curve" smooth="yes"/>
			<point x="431" y="335"/>
			<point x="431" y="312"/>
			<point x="431" y="287" type="curve" smooth="yes"/>
			<point x="431" y="0" type="line"/>
			<point x="541" y="0" type="line"/>
			<point x="541" y="299" type="line" smooth="yes"/>
			<point x="541" y="342"/>
			<point x="540" y="366"/>
		</contour>
	</outline>
</glyph>
<glyph name="Ohungarumlaut" format="2">
	<advance width="750"/>
	<unicode hex="0150"/>
	<note>
		Ohungarumlaut
	</note>
	<outline>
		<contour>
			<point x="260" y="736" type="line"/>
			<point x="326" y="736" type="line"/>
			<point x="423" y="838" type="line"/>
			<point x="323" y="838" type="line"/>
		</contour>
		<contour>
			<point x="455" y="838" type="line"/>
			<point x="392" y="736" type="line"/>
			<point x="458" y="736" type="line"/>
			<point x="555" y="838" type="line"/>
		</contour>
		<contour>
			<point x="382" y="704" type="curve" smooth="yes"/>
			<point x="170" y="704"/>
			<point x="49" y="559"/>
			<point x="49" y="345" type="curve" smooth="yes"/>
			<point x="49" y="132"/>
			<point x="170" y="-14"/>
			<point x="382" y="-14" type="curve" smooth="yes"/>
			<point x="593" y="-14"/>
			<point x="714" y="132"/>
			<point x="714" y="345" type="curve" smooth="yes"/>
			<point x="714" y="559"/>
			<point x="593" y="704"/>
		</contour>
		<contour>
			<point x="382" y="70" type="curve" smooth="yes"/>
			<point x="247" y="70"/>
			<point x="167" y="174"/>
			<point x="167" y="345" type="curve" smooth="yes"/>
			<point x="167" y="517"/>
			<point x="247" y="620"/>
			<point x="382" y="620" type="curve" smooth="yes"/>
			<point x="516" y="620"/>
			<point x="596" y="517"/>
			<point x="596" y="345" type="curve" smooth="yes"/>
			<point x="596" y="174"/>
			<point x="516" y="70"/>
		</contour>
	</outline>
</glyph>
<glyph name="Scedilla" format="2">
	<advance width="595"/>
	<unicode hex="015E"/>
	<note>
		Scedilla
	</note>
	<outline>
		<contour>
			<point x="566" y="187" type="curve" smooth="yes"/>
			<point x="566" y="302"/>
			<point x="494" y="367"/>
			<point x="342" y="402" type="curve" smooth="yes"/>
			<point x="235" y="427"/>
			<point x="194" y="458"/>
			<point x="194" y="525" type="curve" smooth="yes"/>
			<point x="194" y="590"/>
			<point x="245" y="620"/>
			<point x="310" y="620" type="curve" smooth="yes"/>
			<point x="390" y="620"/>
			<point x="436" y="573"/>
			<point x="444" y="494" type="curve"/>
			<point x="558" y="494" type="line"/>
			<point x="544" y="614"/>
			<point x="469" y="704"/>
			<point x="316" y="704" type="curve" smooth="yes"/>
			<point x="187" y="704"/>
			<point x="78" y="629"/>
			<point x="78" y="507" type="curve" smooth="yes"/>
			<point x="78" y="387"/>
			<point x="165" y="338"/>
			<point x="296" y="307" type="curve" smooth="yes"/>
			<point x="408" y="281"/>
			<point x="450" y="244"/>
			<point x="450" y="172" type="curve" smooth="yes"/>
			<point x="450" y="109"/>
			<point x="393" y="70"/>
			<point x="321" y="70" type="curve" smooth="yes"/>
			<point x="240" y="70"/>
			<point x="180" y="115"/>
			<point x="162" y="200" type="curve"/>
			<point x="48" y="200" type="line"/>
			<point x="60" y="76"/>
			<point x="142" y="3"/>
			<point x="271" y="-11" type="curve"/>
			<point x="235" y="-81" type="line"/>
			<point x="305" y="-76"/>
			<point x="331" y="-91"/>
			<point x="331" y="-122" type="curve" smooth="yes"/>
			<point x="331" y="-146"/>
			<point x="311" y="-161"/>
			<point x="269" y="-161" type="curve" smooth="yes"/>
			<point x="250" y="-161"/>
			<point x="233" y="-159"/>
			<point x="215" y="-151" type="curve"/>
			<point x="215" y="-202" type="line"/>
			<point x="230" y="-208"/>
			<point x="248" y="-210"/>
			<point x="267" y="-210" type="curve" smooth="yes"/>
			<point x="345" y="-210"/>
			<point x="401" y="-181"/>
			<point x="401" y="-122" type="curve" smooth="yes"/>
			<point x="401" y="-76"/>
			<point x="372" y="-48"/>
			<point x="317" y="-41" type="curve"/>
			<point x="331" y="-14" type="line"/>
			<point x="460" y="-10"/>
			<point x="566" y="65"/>
		</contour>
	</outline>
</glyph>
<glyph name="uni0162" format="2">
	<advance width="617"/>
	<unicode hex="0162"/>
	<note>
		Tcedilla
	</note>
	<outline>
		<contour>
			<point x="335" y="-41" type="curve"/>
			<point x="356" y="0" type="line"/>
			<point x="379" y="0" type="line"/>
			<point x="379" y="603" type="line"/>
			<point x="620" y="603" type="line"/>
			<point x="620" y="690" type="line"/>
			<point x="29" y="690" type="line"/>
			<point x="29" y="603" type="line"/>
			<point x="270" y="603" type="line"/>
			<point x="270" y="0" type="line"/>
			<point x="295" y="0" type="line"/>
			<point x="253" y="-81" type="line"/>
			<point x="323" y="-76"/>
			<point x="349" y="-91"/>
			<point x="349" y="-122" type="curve" smooth="yes"/>
			<point x="349" y="-146"/>
			<point x="329" y="-161"/>
			<point x="287" y="-161" type="curve" smooth="yes"/>
			<point x="268" y="-161"/>
			<point x="251" y="-159"/>
			<point x="233" y="-151" type="curve"/>
			<point x="233" y="-202" type="line"/>
			<point x="248" y="-208"/>
			<point x="266" y="-210"/>
			<point x="285" y="-210" type="curve" smooth="yes"/>
			<point x="363" y="-210"/>
			<point x="419" y="-181"/>
			<point x="419" y="-122" type="curve" smooth="yes"/>
			<point x="419" y="-76"/>
			<point x="390" y="-48"/>
		</contour>
	</outline>
</glyph>
<glyph name="uni0163" format="2">
	<advance width="335"/>
	<unicode hex="0163"/>
	<note>
		tcedilla
	</note>
	<outline>
		<contour>
			<point x="200" y="172" type="curve" smooth="yes"/>
			<point x="200" y="450" type="line"/>
			<point x="304" y="450" type="line"/>
			<point x="304" y="527" type="line"/>
			<point x="200" y="527" type="line"/>
			<point x="200" y="654" type="line"/>
			<point x="91" y="654" type="line"/>
			<point x="91" y="527" type="line"/>
			<point x="16" y="527" type="line"/>
			<point x="16" y="450" type="line"/>
			<point x="91" y="450" type="line"/>
			<point x="91" y="162" type="line" smooth="yes"/>
			<point x="91" y="132"/>
			<point x="91" y="109"/>
			<point x="92" y="91" type="curve" smooth="yes"/>
			<point x="96" y="41"/>
			<point x="115" y="10"/>
			<point x="157" y="-3" type="curve"/>
			<point x="116" y="-81" type="line"/>
			<point x="186" y="-76"/>
			<point x="212" y="-91"/>
			<point x="212" y="-122" type="curve" smooth="yes"/>
			<point x="212" y="-146"/>
			<point x="192" y="-161"/>
			<point x="150" y="-161" type="curve" smooth="yes"/>
			<point x="131" y="-161"/>
			<point x="114" y="-159"/>
			<point x="96" y="-151" type="curve"/>
			<point x="96" y="-202" type="line"/>
			<point x="111" y="-208"/>
			<point x="129" y="-210"/>
			<point x="148" y="-210" type="curve" smooth="yes"/>
			<point x="226" y="-210"/>
			<point x="282" y="-181"/>
			<point x="282" y="-122" type="curve" smooth="yes"/>
			<point x="282" y="-76"/>
			<point x="253" y="-48"/>
			<point x="198" y="-41" type="curve"/>
			<point x="214" y="-10" type="line"/>
			<point x="216" y="-10" type="line" smooth="yes"/>
			<point x="243" y="-10"/>
			<point x="269" y="-8"/>
			<point x="297" y="-4" type="curve"/>
			<point x="297" y="72" type="line"/>
			<point x="225" y="65"/>
			<point x="205" y="76"/>
			<point x="201" y="128" type="curve" smooth="yes"/>
			<point x="200" y="142"/>
			<point x="200" y="154"/>
		</contour>
	</outline>
</glyph>
<glyph name="tcaron" format="2">
	<advance width="326"/>
	<unicode hex="0165"/>
	<note>
		tcaron
	</note>
	<outline>
		<contour>
			<point x="376" y="724" type="line"/>
			<point x="376" y="735" type="line"/>
			<point x="295" y="735" type="line"/>
			<point x="235" y="582" type="line"/>
			<point x="305" y="582" type="line"/>
		</contour>
		<contour>
			<point x="304" y="527" type="line"/>
			<point x="200" y="527" type="line"/>
			<point x="200" y="654" type="line"/>
			<point x="91" y="654" type="line"/>
			<point x="91" y="527" type="line"/>
			<point x="16" y="527" type="line"/>
			<point x="16" y="450" type="line"/>
			<point x="91" y="450" type="line"/>
			<point x="91" y="162" type="line" smooth="yes"/>
			<point x="91" y="132"/>
			<point x="91" y="109"/>
			<point x="92" y="91" type="curve" smooth="yes"/>
			<point x="97" y="21"/>
			<point x="133" y="-10"/>
			<point x="216" y="-10" type="curve" smooth="yes"/>
			<point x="243" y="-10"/>
			<point x="269" y="-8"/>
			<point x="297" y="-4" type="curve"/>
			<point x="297" y="72" type="line"/>
			<point x="225" y="65"/>
			<point x="205" y="76"/>
			<point x="201" y="128" type="curve" smooth="yes"/>
			<point x="200" y="142"/>
			<point x="200" y="154"/>
			<point x="200" y="172" type="curve" smooth="yes"/>
			<point x="200" y="450" type="line"/>
			<point x="304" y="450" type="line"/>
		</contour>
	</outline>
</glyph>
<glyph name="Tbar" format="2">
	<advance width="617"/>
	<unicode hex="0166"/>
	<note>
		Tbar
	</note>
	<outline>
		<contour>
			<point x="379" y="368" type="line"/>
			<point x="379" y="603" type="line"/>
			<point x="620" y="603" type="line"/>
			<point x="620" y="690" type="line"/>
			<point x="29" y="690" type="line"/>
			<point x="29" y="603" type="line"/>
			<point x="270" y="603" type="line"/>
			<point x="270" y="368" type="line"/>
			<point x="163" y="368" type="line"/>
			<point x="163" y="302" type="line"/>
			<point x="270" y="302" type="line"/>
			<point x="270" y="0" type="line"/>
			<point x="379" y="0" type="line"/>
			<point x="379" y="302" type="line"/>
			<point x="486" y="302" type="line"/>
			<point x="486" y="368" type="line"/>
		</contour>
	</outline>
</glyph>
<glyph name="tbar" format="2">
	<advance width="335"/>
	<unicode hex="0167"/>
	<note>
		tbar
	</note>
	<outline>
		<contour>
			<point x="200" y="347" type="line"/>
			<point x="200" y="450" type="line"/>
			<point x="304" y="450" type="line"/>
			<point x="304" y="527" type="line"/>
			<point x="200" y="527" type="line"/>
			<point x="200" y="654" type="line"/>
			<point x="91" y="654" type="line"/>
			<point x="91" y="527" type="line"/>
			<point x="16" y="527" type="line"/>
			<point x="16" y="450" type="line"/>
			<point x="91" y="450" type="line"/>
			<point x="91" y="347" type="line"/>
			<point x="25" y="347" type="line"/>
			<point x="25" y="284" type="line"/>
			<point x="91" y="284" type="line"/>
			<point x="91" y="162" type="line" smooth="yes"/>
			<point x="91" y="132"/>
			<point x="91" y="109"/>
			<point x="92" y="91" type="curve" smooth="yes"/>
			<point x="97" y="21"/>
			<point x="133" y="-10"/>
			<point x="216" y="-10" type="curve" smooth="yes"/>
			<point x="243" y="-10"/>
			<point x="269" y="-8"/>
			<point x="297" y="-4" type="curve"/>
			<point x="297" y="72" type="line"/>
			<point x="225" y="65"/>
			<point x="205" y="76"/>
			<point x="201" y="128" type="curve" smooth="yes"/>
			<point x="200" y="142"/>
			<point x="200" y="154"/>
			<point x="200" y="172" type="curve" smooth="yes"/>
			<point x="200" y="284" type="line"/>
			<point x="280" y="284" type="line"/>
			<point x="280" y="347" type="line"/>
		</contour>
	</outline>
</glyph>
<glyph name="uhungarumlaut" format="2">
	<advance width="604"/>
	<unicode hex="0171"/>
	<note>
		uhungarumlaut
	</note>
	<outline>
		<contour>
			<point x="186" y="578" type="line"/>
			<point x="252" y="578" type="line"/>
			<point x="354" y="692" type="line"/>
			<point x="254" y="692" type="line"/>
		</contour>
		<contour>
			<point x="393" y="692" type="line"/>
			<point x="325" y="578" type="line"/>
			<point x="391" y="578" type="line"/>
			<point x="493" y="692" type="line"/>
		</contour>
		<contour>
			<point x="532" y="0" type="line"/>
			<point x="532" y="531" type="line"/>
			<point x="423" y="531" type="line"/>
			<point x="423" y="281" type="line" smooth="yes"/>
			<point x="423" y="127"/>
			<point x="365" y="68"/>
			<point x="288" y="68" type="curve" smooth="yes"/>
			<point x="220" y="68"/>
			<point x="182" y="106"/>
			<point x="174" y="164" type="curve" smooth="yes"/>
			<point x="171" y="191"/>
			<point x="170" y="220"/>
			<point x="170" y="237" type="curve" smooth="yes"/>
			<point x="170" y="531" type="line"/>
			<point x="61" y="531" type="line"/>
			<point x="61" y="215" type="line" smooth="yes"/>
			<point x="61" y="172"/>
			<point x="62" y="148"/>
			<point x="66" y="121" type="curve" smooth="yes"/>
			<point x="78" y="48"/>
			<point x="142" y="-14"/>
			<point x="252" y="-14" type="curve" smooth="yes"/>
			<point x="305" y="-14"/>
			<point x="344" y="-5"/>
			<point x="386" y="25" type="curve"/>
			<point x="423" y="91" type="line"/>
			<point x="423" y="0" type="line"/>
		</contour>
	</outline>
</glyph>
<glyph name="Wcircumflex" format="2">
	<advance width="968"/>
	<unicode hex="0174"/>
	<note>
		Wcircumflex
	</note>
	<outline>
		<contour>
			<point x="391" y="736" type="line"/>
			<point x="466" y="736" type="line"/>
			<point x="497" y="796" type="line"/>
			<point x="528" y="736" type="line"/>
			<point x="604" y="736" type="line"/>
			<point x="538" y="838" type="line"/>
			<point x="457" y="838" type="line"/>
		</contour>
		<contour>
			<point x="778" y="0" type="line"/>
			<point x="966" y="690" type="line"/>
			<point x="852" y="690" type="line"/>
			<point x="712" y="88" type="line"/>
			<point x="573" y="680" type="line"/>
			<point x="422" y="680" type="line"/>
			<point x="279" y="91" type="line"/>
			<point x="147" y="690" type="line"/>
			<point x="26" y="690" type="line"/>
			<point x="204" y="0" type="line"/>
			<point x="350" y="0" type="line"/>
			<point x="495" y="588" type="line"/>
			<point x="633" y="0" type="line"/>
		</contour>
	</outline>
</glyph>
<glyph name="wcircumflex" format="2">
	<advance width="806"/>
	<unicode hex="0175"/>
	<note>
		wcircumflex
	</note>
	<outline>
		<contour>
			<point x="298" y="578" type="line"/>
			<point x="371" y="578" type="line"/>
			<point x="404" y="643" type="line"/>
			<point x="437" y="578" type="line"/>
			<point x="511" y="578" type="line"/>
			<point x="445" y="692" type="line"/>
			<point x="364" y="692" type="line"/>
		</contour>
		<contour>
			<point x="634" y="0" type="line"/>
			<point x="803" y="531" type="line"/>
			<point x="686" y="531" type="line"/>
			<point x="577" y="97" type="line"/>
			<point x="471" y="530" type="line"/>
			<point x="337" y="530" type="line"/>
			<point x="234" y="98" type="line"/>
			<point x="125" y="531" type="line"/>
			<point x="1" y="531" type="line"/>
			<point x="170" y="0" type="line"/>
			<point x="297" y="0" type="line"/>
			<point x="403" y="429" type="line"/>
			<point x="508" y="0" type="line"/>
		</contour>
	</outline>
</glyph>
<glyph name="Ydieresis" format="2">
	<advance width="602"/>
	<unicode hex="0178"/>
	<note>
		Ydieresis
	</note>
	<outline>
		<contour>
			<point x="371" y="0" type="line"/>
			<point x="371" y="270" type="line"/>
			<point x="615" y="690" type="line"/>
			<point x="493" y="690" type="line"/>
			<point x="321" y="371" type="line"/>
			<point x="143" y="690" type="line"/>
			<point x="18" y="690" type="line"/>
			<point x="262" y="270" type="line"/>
			<point x="262" y="0" type="line"/>
		</contour>
		<contour>
			<point x="183" y="839" type="line"/>
			<point x="183" y="733" type="line"/>
			<point x="291" y="733" type="line"/>
			<point x="291" y="839" type="line"/>
		</contour>
		<contour>
			<point x="338" y="839" type="line"/>
			<point x="338" y="733" type="line"/>
			<point x="446" y="733" type="line"/>
			<point x="446" y="839" type="line"/>
		</contour>
	</outline>
</glyph>
<glyph name="Zdotaccent" format="2">
	<advance width="605"/>
	<unicode hex="017B"/>
	<note>
		Zdotaccent
	</note>
	<outline>
		<contour>
			<point x="315" y="734" type="curve" smooth="yes"/>
			<point x="348" y="734"/>
			<point x="373" y="758"/>
			<point x="373" y="791" type="curve" smooth="yes"/>
			<point x="373" y="823"/>
			<point x="348" y="847"/>
			<point x="315" y="847" type="curve" smooth="yes"/>
			<point x="282" y="847"/>
			<point x="257" y="823"/>
			<point x="257" y="791" type="curve" smooth="yes"/>
			<point x="257" y="758"/>
			<point x="282" y="734"/>
		</contour>
		<contour>
			<point x="581" y="0" type="line"/>
			<point x="581" y="88" type="line"/>
			<point x="179" y="88" type="line"/>
			<point x="576" y="604" type="line"/>
			<point x="576" y="690" type="line"/>
			<point x="76" y="690" type="line"/>
			<point x="76" y="603" type="line"/>
			<point x="448" y="603" type="line"/>
			<point x="48" y="84" type="line"/>
			<point x="48" y="0" type="line"/>
		</contour>
	</outline>
</glyph>
<glyph name="zdotaccent" format="2">
	<advance width="478"/>
	<unicode hex="017C"/>
	<note>
		zdotaccent
	</note>
	<outline>
		<contour>
			<point x="242" y="589" type="curve" smooth="yes"/>
			<point x="279" y="589"/>
			<point x="307" y="616"/>
			<point x="307" y="653" type="curve" smooth="yes"/>
			<point x="307" y="689"/>
			<point x="279" y="716"/>
			<point x="242" y="716" type="curve" smooth="yes"/>
			<point x="205" y="716"/>
			<point x="178" y="689"/>
			<point x="178" y="653" type="curve" smooth="yes"/>
			<point x="178" y="616"/>
			<point x="205" y="589"/>
		</contour>
		<contour>
			<point x="449" y="0" type="line"/>
			<point x="449" y="79" type="line"/>
			<point x="148" y="79" type="line"/>
			<point x="445" y="448" type="line"/>
			<point x="445" y="527" type="line"/>
			<point x="44" y="527" type="line"/>
			<point x="44" y="448" type="line"/>
			<point x="323" y="448" type="line"/>
			<point x="24" y="76" type="line"/>
			<point x="24" y="0" type="line"/>
		</contour>
	</outline>
</glyph>
<glyph name="Zcaron" format="2">
	<advance width="605"/>
	<unicode hex="017D"/>
	<note>
		Zcaron
	</note>
	<outline>
		<contour>
			<point x="209" y="838" type="line"/>
			<point x="275" y="736" type="line"/>
			<point x="356" y="736" type="line"/>
			<point x="422" y="838" type="line"/>
			<point x="347" y="838" type="line"/>
			<point x="316" y="777" type="line"/>
			<point x="285" y="838" type="line"/>
		</contour>
		<contour>
			<point x="581" y="0" type="line"/>
			<point x="581" y="88" type="line"/>
			<point x="179" y="88" type="line"/>
			<point x="576" y="604" type="line"/>
			<point x="576" y="690" type="line"/>
			<point x="76" y="690" type="line"/>
			<point x="76" y="603" type="line"/>
			<point x="448" y="603" type="line"/>
			<point x="48" y="84" type="line"/>
			<point x="48" y="0" type="line"/>
		</contour>
	</outline>
</glyph>
<glyph name="zcaron" format="2">
	<advance width="478"/>
	<unicode hex="017E"/>
	<note>
		zcaron
	</note>
	<outline>
		<contour>
			<point x="136" y="692" type="line"/>
			<point x="202" y="578" type="line"/>
			<point x="283" y="578" type="line"/>
			<point x="349" y="692" type="line"/>
			<point x="276" y="692" type="line"/>
			<point x="243" y="626" type="line"/>
			<point x="210" y="692" type="line"/>
		</contour>
		<contour>
			<point x="449" y="0" type="line"/>
			<point x="449" y="79" type="line"/>
			<point x="148" y="79" type="line"/>
			<point x="445" y="448" type="line"/>
			<point x="445" y="527" type="line"/>
			<point x="44" y="527" type="line"/>
			<point x="44" y="448" type="line"/>
			<point x="323" y="448" type="line"/>
			<point x="24" y="76" type="line"/>
			<point x="24" y="0" type="line"/>
		</contour>
	</outline>
</glyph>
<glyph name="uni0219" format="2">
	<advance width="476"/>
	<unicode hex="0219"/>
	<note>
		scommaaccent
	</note>
	<outline>
		<contour>
			<point x="240" y="545" type="curve" smooth="yes"/>
			<point x="122" y="545"/>
			<point x="44" y="485"/>
			<point x="44" y="386" type="curve" smooth="yes"/>
			<point x="44" y="293"/>
			<point x="116" y="252"/>
			<point x="213" y="227" type="curve" smooth="yes"/>
			<point x="303" y="203"/>
			<point x="339" y="178"/>
			<point x="339" y="132" type="curve" smooth="yes"/>
			<point x="339" y="86"/>
			<point x="298" y="64"/>
			<point x="247" y="64" type="curve" smooth="yes"/>
			<point x="192" y="64"/>
			<point x="147" y="91"/>
			<point x="134" y="159" type="curve"/>
			<point x="23" y="159" type="line"/>
			<point x="38" y="39"/>
			<point x="125" y="-14"/>
			<point x="243" y="-14" type="curve" smooth="yes"/>
			<point x="359" y="-14"/>
			<point x="450" y="37"/>
			<point x="450" y="140" type="curve" smooth="yes"/>
			<point x="450" y="234"/>
			<point x="389" y="280"/>
			<point x="273" y="310" type="curve" smooth="yes"/>
			<point x="194" y="331"/>
			<point x="155" y="351"/>
			<point x="155" y="399" type="curve" smooth="yes"/>
			<point x="155" y="439"/>
			<point x="180" y="468"/>
			<point x="232" y="468" type="curve" smooth="yes"/>
			<point x="286" y="468"/>
			<point x="319" y="435"/>
			<point x="330" y="379" type="curve"/>
			<point x="442" y="379" type="line"/>
			<point x="430" y="476"/>
			<point x="362" y="545"/>
		</contour>
		<contour>
			<point x="295" y="-59" type="line"/>
			<point x="295" y="-48" type="line"/>
			<point x="214" y="-48" type="line"/>
			<point x="154" y="-200" type="line"/>
			<point x="224" y="-200" type="line"/>
		</contour>
	</outline>
</glyph>
<glyph name="uni021B" format="2">
	<advance width="335"/>
	<unicode hex="021B"/>
	<note>
		uni021B
	</note>
	<outline>
		<contour>
			<point x="200" y="172" type="curve" smooth="yes"/>
			<point x="200" y="450" type="line"/>
			<point x="304" y="450" type="line"/>
			<point x="304" y="527" type="line"/>
			<point x="200" y="527" type="line"/>
			<point x="200" y="654" type="line"/>
			<point x="91" y="654" type="line"/>
			<point x="91" y="527" type="line"/>
			<point x="16" y="527" type="line"/>
			<point x="16" y="450" type="line"/>
			<point x="91" y="450" type="line"/>
			<point x="91" y="162" type="line" smooth="yes"/>
			<point x="91" y="132"/>
			<point x="91" y="109"/>
			<point x="92" y="91" type="curve" smooth="yes"/>
			<point x="97" y="21"/>
			<point x="133" y="-10"/>
			<point x="216" y="-10" type="curve" smooth="yes"/>
			<point x="243" y="-10"/>
			<point x="269" y="-8"/>
			<point x="297" y="-4" type="curve"/>
			<point x="297" y="72" type="line"/>
			<point x="225" y="65"/>
			<point x="205" y="76"/>
			<point x="201" y="128" type="curve" smooth="yes"/>
			<point x="200" y="142"/>
			<point x="200" y="154"/>
		</contour>
		<contour>
			<point x="235" y="-48" type="line"/>
			<point x="154" y="-48" type="line"/>
			<point x="94" y="-200" type="line"/>
			<point x="164" y="-200" type="line"/>
			<point x="235" y="-59" type="line"/>
		</contour>
	</outline>
</glyph>
<glyph name="circumflex" format="2">
	<advance width="300"/>
	<unicode hex="02C6"/>
	<note>
		circumflex
	</note>
	<outline>
		<contour>
			<point x="150" y="643" type="line"/>
			<point x="183" y="578" type="line"/>
			<point x="257" y="578" type="line"/>
			<point x="191" y="692" type="line"/>
			<point x="110" y="692" type="line"/>
			<point x="44" y="578" type="line"/>
			<point x="117" y="578" type="line"/>
		</contour>
	</outline>
</glyph>
<glyph name="caron" format="2">
	<advance width="300"/>
	<unicode hex="02C7"/>
	<note>
		caron
	</note>
	<outline>
		<contour>
			<point x="191" y="578" type="line"/>
			<point x="257" y="692" type="line"/>
			<point x="184" y="692" type="line"/>
			<point x="151" y="626" type="line"/>
			<point x="118" y="692" type="line"/>
			<point x="44" y="692" type="line"/>
			<point x="110" y="578" type="line"/>
		</contour>
	</outline>
</glyph>
<glyph name="breve" format="2">
	<advance width="300"/>
	<unicode hex="02D8"/>
	<note>
		breve
	</note>
	<outline>
		<contour>
			<point x="260" y="692" type="curve"/>
			<point x="198" y="692" type="line"/>
			<point x="197" y="646"/>
			<point x="179" y="629"/>
			<point x="150" y="629" type="curve" smooth="yes"/>
			<point x="121" y="629"/>
			<point x="103" y="646"/>
			<point x="102" y="692" type="curve"/>
			<point x="40" y="692" type="line"/>
			<point x="40" y="605"/>
			<point x="78" y="567"/>
			<point x="150" y="567" type="curve" smooth="yes"/>
			<point x="221" y="567"/>
			<point x="260" y="605"/>
		</contour>
	</outline>
</glyph>
<glyph name="dotaccent" format="2">
	<advance width="300"/>
	<unicode hex="02D9"/>
	<note>
		dotaccent
	</note>
	<outline>
		<contour>
			<point x="89" y="716" type="line"/>
			<point x="89" y="590" type="line"/>
			<point x="215" y="590" type="line"/>
			<point x="215" y="716" type="line"/>
		</contour>
	</outline>
</glyph>
<glyph name="tilde" format="2">
	<advance width="300"/>
	<unicode hex="02DC"/>
	<note>
		tilde
	</note>
	<outline>
		<contour>
			<point x="91" y="680" type="curve" smooth="yes"/>
			<point x="52" y="680"/>
			<point x="30" y="659"/>
			<point x="30" y="594" type="curve"/>
			<point x="82" y="594" type="line"/>
			<point x="82" y="610"/>
			<point x="88" y="616"/>
			<point x="98" y="616" type="curve" smooth="yes"/>
			<point x="107" y="616"/>
			<point x="118" y="613"/>
			<point x="142" y="604" type="curve" smooth="yes"/>
			<point x="172" y="594"/>
			<point x="188" y="590"/>
			<point x="209" y="590" type="curve" smooth="yes"/>
			<point x="249" y="590"/>
			<point x="271" y="611"/>
			<point x="271" y="677" type="curve"/>
			<point x="218" y="677" type="line"/>
			<point x="218" y="660"/>
			<point x="213" y="654"/>
			<point x="202" y="654" type="curve" smooth="yes"/>
			<point x="194" y="654"/>
			<point x="182" y="657"/>
			<point x="158" y="666" type="curve" smooth="yes"/>
			<point x="129" y="677"/>
			<point x="113" y="680"/>
		</contour>
	</outline>
</glyph>
<glyph name="Ygrave" format="2">
	<advance width="602"/>
	<unicode hex="1EF2"/>
	<note>
		Ygrave
	</note>
	<outline>
		<contour>
			<point x="192" y="838" type="line"/>
			<point x="289" y="736" type="line"/>
			<point x="355" y="736" type="line"/>
			<point x="292" y="838" type="line"/>
		</contour>
		<contour>
			<point x="371" y="0" type="line"/>
			<point x="371" y="270" type="line"/>
			<point x="615" y="690" type="line"/>
			<point x="493" y="690" type="line"/>
			<point x="321" y="371" type="line"/>
			<point x="143" y="690" type="line"/>
			<point x="18" y="690" type="line"/>
			<point x="262" y="270" type="line"/>
			<point x="262" y="0" type="line"/>
		</contour>
	</outline>
</glyph>
<glyph name="quoteright" format="2">
	<advance width="266"/>
	<unicode hex="2019"/>
	<note>
		quoteright
	</note>
	<outline>
		<contour>
			<point x="113" y="474" type="line"/>
			<point x="211" y="725" type="line"/>
			<point x="211" y="735" type="line"/>
			<point x="99" y="735" type="line"/>
			<point x="21" y="474" type="line"/>
		</contour>
	</outline>
</glyph>
<glyph name="quotesinglbase" format="2">
	<advance width="232"/>
	<unicode hex="201A"/>
	<note>
		quotesinglbase
	</note>
	<outline>
		<contour>
			<point x="66" y="-121" type="line"/>
			<point x="160" y="108" type="line"/>
			<point x="160" y="118" type="line"/>
			<point x="49" y="118" type="line"/>
			<point x="-30" y="-121" type="line"/>
		</contour>
	</outline>
</glyph>
<glyph name="quotedblright" format="2">
	<advance width="453"/>
	<unicode hex="201D"/>
	<note>
		quotedblright
	</note>
	<outline>
		<contour>
			<point x="113" y="474" type="line"/>
			<point x="211" y="725" type="line"/>
			<point x="211" y="735" type="line"/>
			<point x="99" y="735" type="line"/>
			<point x="21" y="474" type="line"/>
		</contour>
		<contour>
			<point x="301" y="474" type="line"/>
			<point x="398" y="725" type="line"/>
			<point x="398" y="735" type="line"/>
			<point x="287" y="735" type="line"/>
			<point x="208" y="474" type="line"/>
		</contour>
	</outline>
</glyph>
<glyph name="dagger" format="2">
	<advance width="555"/>
	<unicode hex="2020"/>
	<note>
		dagger
	</note>
	<outline>
		<contour>
			<point x="324" y="372" type="line"/>
			<point x="504" y="365" type="line"/>
			<point x="504" y="461" type="line"/>
			<point x="325" y="455" type="line"/>
			<point x="336" y="690" type="line"/>
			<point x="219" y="690" type="line"/>
			<point x="230" y="455" type="line"/>
			<point x="51" y="461" type="line"/>
			<point x="51" y="365" type="line"/>
			<point x="231" y="371" type="line"/>
			<point x="219" y="-160" type="line"/>
			<point x="336" y="-160" type="line"/>
		</contour>
	</outline>
</glyph>
<glyph name="perthousand" format="2">
	<advance width="1091"/>
	<unicode hex="2030"/>
	<note>
		perthousand
	</note>
	<outline>
		<contour>
			<point x="341" y="540" type="curve" smooth="yes"/>
			<point x="341" y="640"/>
			<point x="282" y="701"/>
			<point x="190" y="701" type="curve" smooth="yes"/>
			<point x="97" y="701"/>
			<point x="39" y="640"/>
			<point x="39" y="540" type="curve" smooth="yes"/>
			<point x="39" y="440"/>
			<point x="97" y="378"/>
			<point x="190" y="378" type="curve" smooth="yes"/>
			<point x="282" y="378"/>
			<point x="341" y="440"/>
		</contour>
		<contour>
			<point x="201" y="0" type="line"/>
			<point x="649" y="690" type="line"/>
			<point x="553" y="690" type="line"/>
			<point x="105" y="0" type="line"/>
		</contour>
		<contour>
			<point x="129" y="540" type="curve" smooth="yes"/>
			<point x="129" y="602"/>
			<point x="152" y="635"/>
			<point x="190" y="635" type="curve" smooth="yes"/>
			<point x="227" y="635"/>
			<point x="251" y="602"/>
			<point x="251" y="540" type="curve" smooth="yes"/>
			<point x="251" y="478"/>
			<point x="227" y="444"/>
			<point x="190" y="444" type="curve" smooth="yes"/>
			<point x="152" y="444"/>
			<point x="129" y="478"/>
		</contour>
		<contour>
			<point x="561" y="309" type="curve" smooth="yes"/>
			<point x="469" y="309"/>
			<point x="410" y="248"/>
			<point x="410" y="148" type="curve" smooth="yes"/>
			<point x="410" y="48"/>
			<point x="469" y="-14"/>
			<point x="561" y="-14" type="curve" smooth="yes"/>
			<point x="654" y="-14"/>
			<point x="712" y="48"/>
			<point x="712" y="148" type="curve" smooth="yes"/>
			<point x="712" y="248"/>
			<point x="654" y="309"/>
		</contour>
		<contour>
			<point x="901" y="309" type="curve" smooth="yes"/>
			<point x="809" y="309"/>
			<point x="750" y="248"/>
			<point x="750" y="148" type="curve" smooth="yes"/>
			<point x="750" y="48"/>
			<point x="809" y="-14"/>
			<point x="901" y="-14" type="curve" smooth="yes"/>
			<point x="994" y="-14"/>
			<point x="1052" y="48"/>
			<point x="1052" y="148" type="curve" smooth="yes"/>
			<point x="1052" y="248"/>
			<point x="994" y="309"/>
		</contour>
		<contour>
			<point x="561" y="52" type="curve" smooth="yes"/>
			<point x="524" y="52"/>
			<point x="500" y="86"/>
			<point x="500" y="148" type="curve" smooth="yes"/>
			<point x="500" y="210"/>
			<point x="524" y="243"/>
			<point x="561" y="243" type="curve" smooth="yes"/>
			<point x="599" y="243"/>
			<point x="622" y="210"/>
			<point x="622" y="148" type="curve" smooth="yes"/>
			<point x="622" y="86"/>
			<point x="599" y="52"/>
		</contour>
		<contour>
			<point x="901" y="52" type="curve" smooth="yes"/>
			<point x="864" y="52"/>
			<point x="840" y="86"/>
			<point x="840" y="148" type="curve" smooth="yes"/>
			<point x="840" y="210"/>
			<point x="864" y="243"/>
			<point x="901" y="243" type="curve" smooth="yes"/>
			<point x="939" y="243"/>
			<point x="962" y="210"/>
			<point x="962" y="148" type="curve" smooth="yes"/>
			<point x="962" y="86"/>
			<point x="939" y="52"/>
		</contour>
	</outline>
</glyph>
<glyph name="fraction" format="2">
	<advance width="269"/>
	<unicode hex="2044"/>
	<note>
		fraction
	</note>
	<outline>
		<contour>
			<point x="-138" y="0" type="line"/>
			<point x="-42" y="0" type="line"/>
			<point x="406" y="690" type="line"/>
			<point x="310" y="690" type="line"/>
		</contour>
	</outline>
</glyph>
<glyph name="trademark" format="2">
	<advance width="539"/>
	<unicode hex="2122"/>
	<note>
		trademark
	</note>
	<outline>
		<contour>
			<point x="220" y="618" type="line"/>
			<point x="220" y="660" type="line"/>
			<point x="21" y="660" type="line"/>
			<point x="21" y="618" type="line"/>
			<point x="94" y="618" type="line"/>
			<point x="94" y="456" type="line"/>
			<point x="147" y="456" type="line"/>
			<point x="147" y="618" type="line"/>
		</contour>
		<contour>
			<point x="481" y="456" type="line"/>
			<point x="481" y="659" type="line"/>
			<point x="404" y="659" type="line"/>
			<point x="364" y="508" type="line"/>
			<point x="323" y="659" type="line"/>
			<point x="244" y="659" type="line"/>
			<point x="244" y="456" type="line"/>
			<point x="297" y="456" type="line"/>
			<point x="296" y="597" type="line"/>
			<point x="335" y="460" type="line"/>
			<point x="390" y="460" type="line"/>
			<point x="430" y="598" type="line"/>
			<point x="428" y="456" type="line"/>
		</contour>
	</outline>
</glyph>
<glyph name="partialdiff" format="2">
	<advance width="601"/>
	<unicode hex="2202"/>
	<note>
		partialdiff
	</note>
	<outline>
		<contour>
			<point x="274" y="758" type="curve" smooth="yes"/>
			<point x="193" y="758"/>
			<point x="138" y="739"/>
			<point x="79" y="693" type="curve"/>
			<point x="121" y="625" type="line"/>
			<point x="165" y="660"/>
			<point x="202" y="676"/>
			<point x="264" y="676" type="curve" smooth="yes"/>
			<point x="380" y="676"/>
			<point x="421" y="570"/>
			<point x="431" y="435" type="curve"/>
			<point x="405" y="473"/>
			<point x="357" y="498"/>
			<point x="291" y="498" type="curve" smooth="yes"/>
			<point x="131" y="498"/>
			<point x="44" y="385"/>
			<point x="44" y="239" type="curve" smooth="yes"/>
			<point x="44" y="70"/>
			<point x="155" y="-14"/>
			<point x="285" y="-14" type="curve" smooth="yes"/>
			<point x="441" y="-14"/>
			<point x="551" y="88"/>
			<point x="551" y="352" type="curve" smooth="yes"/>
			<point x="551" y="571"/>
			<point x="482" y="758"/>
		</contour>
		<contour>
			<point x="293" y="69" type="curve" smooth="yes"/>
			<point x="218" y="69"/>
			<point x="161" y="126"/>
			<point x="161" y="242" type="curve" smooth="yes"/>
			<point x="161" y="347"/>
			<point x="208" y="415"/>
			<point x="302" y="415" type="curve" smooth="yes"/>
			<point x="361" y="415"/>
			<point x="407" y="392"/>
			<point x="436" y="334" type="curve"/>
			<point x="433" y="165"/>
			<point x="391" y="69"/>
		</contour>
	</outline>
</glyph>
<glyph name="summation" format="2">
	<advance width="601"/>
	<unicode hex="2211"/>
	<note>
		summation
	</note>
	<outline>
		<contour>
			<point x="555" y="-110" type="line"/>
			<point x="555" y="-23" type="line"/>
			<point x="178" y="-23" type="line"/>
			<point x="443" y="300" type="line"/>
			<point x="209" y="603" type="line"/>
			<point x="549" y="603" type="line"/>
			<point x="549" y="690" type="line"/>
			<point x="78" y="690" type="line"/>
			<point x="78" y="611" type="line"/>
			<point x="316" y="301" type="line"/>
			<point x="48" y="-31" type="line"/>
			<point x="48" y="-110" type="line"/>
		</contour>
	</outline>
</glyph>
<glyph name="minus" format="2">
	<advance width="601"/>
	<unicode hex="2212"/>
	<note>
		minus
	</note>
	<outline>
		<contour>
			<point x="87" y="286" type="line"/>
			<point x="514" y="286" type="line"/>
			<point x="514" y="352" type="line"/>
			<point x="87" y="352" type="line"/>
		</contour>
	</outline>
</glyph>
<glyph name="approxequal" format="2">
	<advance width="601"/>
	<unicode hex="2248"/>
	<note>
		approxequal
	</note>
	<outline>
		<contour>
			<point x="195" y="453" type="curve" smooth="yes"/>
			<point x="142" y="453"/>
			<point x="105" y="431"/>
			<point x="70" y="376" type="curve"/>
			<point x="117" y="332" type="line"/>
			<point x="139" y="366"/>
			<point x="161" y="381"/>
			<point x="192" y="381" type="curve" smooth="yes"/>
			<point x="220" y="381"/>
			<point x="244" y="368"/>
			<point x="286" y="346" type="curve" smooth="yes"/>
			<point x="339" y="317"/>
			<point x="364" y="305"/>
			<point x="404" y="305" type="curve" smooth="yes"/>
			<point x="458" y="305"/>
			<point x="495" y="329"/>
			<point x="530" y="384" type="curve"/>
			<point x="483" y="425" type="line"/>
			<point x="461" y="392"/>
			<point x="439" y="377"/>
			<point x="408" y="377" type="curve" smooth="yes"/>
			<point x="380" y="377"/>
			<point x="356" y="389"/>
			<point x="313" y="412" type="curve" smooth="yes"/>
			<point x="261" y="440"/>
			<point x="235" y="453"/>
		</contour>
		<contour>
			<point x="195" y="283" type="curve" smooth="yes"/>
			<point x="142" y="283"/>
			<point x="105" y="261"/>
			<point x="70" y="206" type="curve"/>
			<point x="117" y="162" type="line"/>
			<point x="139" y="196"/>
			<point x="161" y="211"/>
			<point x="192" y="211" type="curve" smooth="yes"/>
			<point x="220" y="211"/>
			<point x="244" y="198"/>
			<point x="286" y="176" type="curve" smooth="yes"/>
			<point x="339" y="147"/>
			<point x="364" y="135"/>
			<point x="404" y="135" type="curve" smooth="yes"/>
			<point x="458" y="135"/>
			<point x="495" y="159"/>
			<point x="530" y="214" type="curve"/>
			<point x="483" y="255" type="line"/>
			<point x="461" y="222"/>
			<point x="439" y="207"/>
			<point x="408" y="207" type="curve" smooth="yes"/>
			<point x="380" y="207"/>
			<point x="356" y="219"/>
			<point x="313" y="242" type="curve" smooth="yes"/>
			<point x="261" y="270"/>
			<point x="235" y="283"/>
		</contour>
	</outline>
</glyph>
<glyph name="lozenge" format="2">
	<advance width="523"/>
	<unicode hex="25CA"/>
	<note>
		lozenge
	</note>
	<outline>
		<contour>
			<point x="305" y="0" type="line"/>
			<point x="470" y="345" type="line"/>
			<point x="305" y="690" type="line"/>
			<point x="218" y="690" type="line"/>
			<point x="53" y="345" type="line"/>
			<point x="218" y="0" type="line"/>
		</contour>
		<contour>
			<point x="262" y="618" type="line"/>
			<point x="387" y="345" type="line"/>
			<point x="262" y="72" type="line"/>
			<point x="136" y="345" type="line"/>
		</contour>
	</outline>
</glyph>
<glyph name="uF1440" format="2">
	<advance width="1240"/>
	<unicode hex="F1440"/>
	<outline>
		<contour>
			<point x="379" y="704" type="curve" smooth="yes"/>
			<point x="185" y="704"/>
			<point x="49" y="559"/>
			<point x="49" y="342" type="curve" smooth="yes"/>
			<point x="49" y="132"/>
			<point x="170" y="-14"/>
			<point x="367" y="-14" type="curve" smooth="yes"/>
			<point x="485" y="-14"/>
			<point x="569" y="30"/>
			<point x="617" y="98" type="curve"/>
			<point x="673" y="27"/>
			<point x="760" y="-14"/>
			<point x="874" y="-14" type="curve" smooth="yes"/>
			<point x="900" y="-14"/>
			<point x="923" y="-12"/>
			<point x="945" y="-7" type="curve" smooth="yes"/>
			<point x="973" y="-1"/>
			<point x="990" y="2"/>
			<point x="1018" y="2" type="curve" smooth="yes"/>
			<point x="1056" y="2"/>
			<point x="1087" y="-7"/>
			<point x="1154" y="-51" type="curve"/>
			<point x="1213" y="22" type="line"/>
			<point x="1171" y="57"/>
			<point x="1132" y="79"/>
			<point x="1087" y="87" type="curve"/>
			<point x="1165" y="144"/>
			<point x="1206" y="238"/>
			<point x="1206" y="345" type="curve" smooth="yes"/>
			<point x="1206" y="559"/>
			<point x="1085" y="704"/>
			<point x="874" y="704" type="curve" smooth="yes"/>
			<point x="763" y="704"/>
			<point x="679" y="663"/>
			<point x="623" y="594" type="curve"/>
			<point x="578" y="661"/>
			<point x="497" y="704"/>
		</contour>
		<contour>
			<point x="168" y="347" type="curve" smooth="yes"/>
			<point x="168" y="510"/>
			<point x="249" y="620"/>
			<point x="377" y="620" type="curve" smooth="yes"/>
			<point x="481" y="620"/>
			<point x="538" y="561"/>
			<point x="557" y="468" type="curve" smooth="yes"/>
			<point x="559" y="458" type="line"/>
			<point x="668" y="458" type="line"/>
			<point x="697" y="559"/>
			<point x="773" y="620"/>
			<point x="874" y="620" type="curve" smooth="yes"/>
			<point x="1008" y="620"/>
			<point x="1088" y="517"/>
			<point x="1088" y="345" type="curve" smooth="yes"/>
			<point x="1088" y="174"/>
			<point x="1008" y="70"/>
			<point x="874" y="70" type="curve" smooth="yes"/>
			<point x="770" y="70"/>
			<point x="690" y="128"/>
			<point x="663" y="234" type="curve"/>
			<point x="554" y="234" type="line"/>
			<point x="552" y="224" type="line" smooth="yes"/>
			<point x="533" y="131"/>
			<point x="476" y="70"/>
			<point x="372" y="70" type="curve" smooth="yes"/>
			<point x="250" y="70"/>
			<point x="168" y="176"/>
		</contour>
	</outline>
</glyph>
<glyph name="uF1610" format="2">
	<advance width="989"/>
	<unicode hex="F1610"/>
	<outline>
		<contour>
			<point x="383" y="92" type="curve" smooth="yes"/>
			<point x="361" y="88"/>
			<point x="338" y="88"/>
			<point x="304" y="88" type="curve" smooth="yes"/>
			<point x="205" y="88" type="line"/>
			<point x="205" y="603" type="line"/>
			<point x="308" y="603" type="line" smooth="yes"/>
			<point x="341" y="603"/>
			<point x="365" y="602"/>
			<point x="387" y="598" type="curve" smooth="yes"/>
			<point x="497" y="582"/>
			<point x="566" y="498"/>
			<point x="566" y="353" type="curve" smooth="yes"/>
			<point x="566" y="200"/>
			<point x="494" y="108"/>
		</contour>
		<contour>
			<point x="95" y="0" type="line"/>
			<point x="314" y="0" type="line"/>
			<point x="334" y="0" type="line"/>
			<point x="961" y="1" type="line"/>
			<point x="961" y="89" type="line"/>
			<point x="584" y="88" type="line"/>
			<point x="635" y="138"/>
			<point x="670" y="208"/>
			<point x="681" y="297" type="curve"/>
			<point x="684" y="302" type="line"/>
			<point x="923" y="303" type="line"/>
			<point x="923" y="390" type="line"/>
			<point x="684" y="389" type="line"/>
			<point x="683" y="392" type="line"/>
			<point x="676" y="485"/>
			<point x="643" y="555"/>
			<point x="593" y="603" type="curve"/>
			<point x="951" y="604" type="line"/>
			<point x="951" y="691" type="line"/>
			<point x="95" y="690" type="line"/>
		</contour>
	</outline>
</glyph>
<glyph name="uF1820" format="2">
	<advance width="930"/>
	<unicode hex="F1820"/>
	<outline>
		<contour>
			<point x="299" y="736" type="line"/>
			<point x="365" y="736" type="line"/>
			<point x="462" y="838" type="line"/>
			<point x="362" y="838" type="line"/>
		</contour>
		<contour>
			<point x="95" y="0" type="line"/>
			<point x="902" y="0" type="line"/>
			<point x="902" y="88" type="line"/>
			<point x="535" y="88" type="line"/>
			<point x="535" y="302" type="line"/>
			<point x="864" y="302" type="line"/>
			<point x="864" y="389" type="line"/>
			<point x="535" y="389" type="line"/>
			<point x="535" y="603" type="line"/>
			<point x="892" y="603" type="line"/>
			<point x="892" y="690" type="line"/>
			<point x="95" y="690" type="line"/>
		</contour>
		<contour>
			<point x="205" y="88" type="line"/>
			<point x="205" y="302" type="line"/>
			<point x="425" y="302" type="line"/>
			<point x="425" y="88" type="line"/>
		</contour>
		<contour>
			<point x="205" y="389" type="line"/>
			<point x="205" y="603" type="line"/>
			<point x="425" y="603" type="line"/>
			<point x="425" y="389" type="line"/>
		</contour>
	</outline>
</glyph>
<glyph name="uF1850" format="2">
	<advance width="1004"/>
	<unicode hex="F1850"/>
	<outline>
		<contour>
			<point x="725" y="592" type="curve" smooth="yes"/>
			<point x="596" y="592"/>
			<point x="487" y="517"/>
			<point x="487" y="395" type="curve" smooth="yes"/>
			<point x="487" y="389" type="line"/>
			<point x="205" y="389" type="line"/>
			<point x="205" y="603" type="line"/>
			<point x="562" y="603" type="line"/>
			<point x="562" y="690" type="line"/>
			<point x="95" y="690" type="line"/>
			<point x="95" y="0" type="line"/>
			<point x="481" y="0" type="line"/>
			<point x="522" y="-82"/>
			<point x="609" y="-126"/>
			<point x="730" y="-126" type="curve" smooth="yes"/>
			<point x="864" y="-126"/>
			<point x="975" y="-50"/>
			<point x="975" y="75" type="curve" smooth="yes"/>
			<point x="975" y="190"/>
			<point x="903" y="255"/>
			<point x="751" y="290" type="curve" smooth="yes"/>
			<point x="644" y="315"/>
			<point x="603" y="346"/>
			<point x="603" y="413" type="curve" smooth="yes"/>
			<point x="603" y="478"/>
			<point x="654" y="508"/>
			<point x="719" y="508" type="curve" smooth="yes"/>
			<point x="799" y="508"/>
			<point x="845" y="461"/>
			<point x="853" y="382" type="curve"/>
			<point x="967" y="382" type="line"/>
			<point x="953" y="502"/>
			<point x="878" y="592"/>
		</contour>
		<contour>
			<point x="205" y="88" type="line"/>
			<point x="205" y="302" type="line"/>
			<point x="511" y="302" type="line"/>
			<point x="545" y="246"/>
			<point x="615" y="216"/>
			<point x="705" y="195" type="curve" smooth="yes"/>
			<point x="817" y="169"/>
			<point x="859" y="132"/>
			<point x="859" y="60" type="curve" smooth="yes"/>
			<point x="859" y="-3"/>
			<point x="802" y="-42"/>
			<point x="730" y="-42" type="curve" smooth="yes"/>
			<point x="650" y="-42"/>
			<point x="591" y="1"/>
			<point x="572" y="84" type="curve"/>
			<point x="572" y="88" type="line"/>
		</contour>
	</outline>
</glyph>
<glyph name="uF18A0" format="2">
	<advance width="1029"/>
	<unicode hex="F18A0"/>
	<outline>
		<contour>
			<point x="967" y="267" type="curve" smooth="yes"/>
			<point x="967" y="690" type="line"/>
			<point x="858" y="690" type="line"/>
			<point x="858" y="265" type="line" smooth="yes"/>
			<point x="858" y="244"/>
			<point x="858" y="225"/>
			<point x="856" y="209" type="curve" smooth="yes"/>
			<point x="849" y="126"/>
			<point x="796" y="70"/>
			<point x="696" y="70" type="curve" smooth="yes"/>
			<point x="597" y="70"/>
			<point x="544" y="126"/>
			<point x="537" y="209" type="curve" smooth="yes"/>
			<point x="535" y="225"/>
			<point x="535" y="244"/>
			<point x="535" y="265" type="curve" smooth="yes"/>
			<point x="535" y="389" type="line"/>
			<point x="205" y="389" type="line"/>
			<point x="205" y="603" type="line"/>
			<point x="562" y="603" type="line"/>
			<point x="562" y="690" type="line"/>
			<point x="95" y="690" type="line"/>
			<point x="95" y="0" type="line"/>
			<point x="588" y="0" type="line"/>
			<point x="619" y="-9"/>
			<point x="655" y="-14"/>
			<point x="696" y="-14" type="curve" smooth="yes"/>
			<point x="876" y="-14"/>
			<point x="955" y="81"/>
			<point x="965" y="196" type="curve" smooth="yes"/>
			<point x="967" y="222"/>
			<point x="967" y="242"/>
		</contour>
		<contour>
			<point x="205" y="88" type="line"/>
			<point x="205" y="302" type="line"/>
			<point x="426" y="302" type="line"/>
			<point x="426" y="267" type="line" smooth="yes"/>
			<point x="426" y="242"/>
			<point x="426" y="222"/>
			<point x="428" y="196" type="curve" smooth="yes"/>
			<point x="431" y="157"/>
			<point x="442" y="120"/>
			<point x="463" y="88" type="curve"/>
		</contour>
	</outline>
</glyph>
<glyph name="uF1910" format="2">
	<advance width="915"/>
	<unicode hex="F1910"/>
	<outline>
		<contour>
			<point x="285" y="465" type="curve" smooth="yes"/>
			<point x="362" y="465"/>
			<point x="405" y="410"/>
			<point x="413" y="312" type="curve"/>
			<point x="144" y="312" type="line"/>
			<point x="156" y="414"/>
			<point x="210" y="465"/>
		</contour>
		<contour>
			<point x="29" y="264" type="curve" smooth="yes"/>
			<point x="29" y="76"/>
			<point x="136" y="-14"/>
			<point x="278" y="-14" type="curve" smooth="yes"/>
			<point x="394" y="-14"/>
			<point x="495" y="46"/>
			<point x="518" y="172" type="curve"/>
			<point x="407" y="172" type="line"/>
			<point x="396" y="105"/>
			<point x="346" y="66"/>
			<point x="282" y="66" type="curve" smooth="yes"/>
			<point x="210" y="66"/>
			<point x="152" y="108"/>
			<point x="143" y="235" type="curve"/>
			<point x="577" y="235" type="line" smooth="yes"/>
			<point x="627" y="235"/>
			<point x="672" y="244"/>
			<point x="708" y="269" type="curve"/>
			<point x="735" y="326" type="line"/>
			<point x="745" y="249" type="line"/>
			<point x="854" y="249" type="line"/>
			<point x="846" y="308"/>
			<point x="844" y="344"/>
			<point x="844" y="384" type="curve" smooth="yes"/>
			<point x="844" y="571" type="line" smooth="yes"/>
			<point x="844" y="596"/>
			<point x="843" y="624"/>
			<point x="841" y="646" type="curve" smooth="yes"/>
			<point x="832" y="736"/>
			<point x="778" y="794"/>
			<point x="641" y="794" type="curve" smooth="yes"/>
			<point x="520" y="794"/>
			<point x="433" y="728"/>
			<point x="426" y="612" type="curve"/>
			<point x="536" y="612" type="line"/>
			<point x="542" y="678"/>
			<point x="575" y="714"/>
			<point x="639" y="714" type="curve" smooth="yes"/>
			<point x="702" y="714"/>
			<point x="729" y="684"/>
			<point x="732" y="641" type="curve" smooth="yes"/>
			<point x="734" y="621"/>
			<point x="734" y="603"/>
			<point x="734" y="583" type="curve" smooth="yes"/>
			<point x="734" y="570" type="line"/>
			<point x="700" y="570" type="line" smooth="yes"/>
			<point x="570" y="570"/>
			<point x="485" y="543"/>
			<point x="441" y="493" type="curve"/>
			<point x="403" y="526"/>
			<point x="352" y="545"/>
			<point x="289" y="545" type="curve" smooth="yes"/>
			<point x="136" y="545"/>
			<point x="29" y="432"/>
		</contour>
		<contour>
			<point x="522" y="394" type="curve" smooth="yes"/>
			<point x="522" y="475"/>
			<point x="606" y="504"/>
			<point x="735" y="494" type="curve"/>
			<point x="735" y="445" type="line" smooth="yes"/>
			<point x="735" y="359"/>
			<point x="686" y="312"/>
			<point x="617" y="312" type="curve" smooth="yes"/>
			<point x="559" y="312"/>
			<point x="522" y="338"/>
		</contour>
	</outline>
</glyph>
<glyph name="uF1920" format="2">
	<advance width="944"/>
	<unicode hex="F1920"/>
	<outline>
		<contour>
			<point x="244" y="578" type="line"/>
			<point x="310" y="578" type="line"/>
			<point x="413" y="692" type="line"/>
			<point x="313" y="692" type="line"/>
		</contour>
		<contour>
			<point x="29" y="264" type="curve" smooth="yes"/>
			<point x="29" y="76"/>
			<point x="136" y="-14"/>
			<point x="278" y="-14" type="curve" smooth="yes"/>
			<point x="394" y="-14"/>
			<point x="495" y="46"/>
			<point x="518" y="172" type="curve"/>
			<point x="407" y="172" type="line"/>
			<point x="396" y="105"/>
			<point x="346" y="66"/>
			<point x="282" y="66" type="curve" smooth="yes"/>
			<point x="210" y="66"/>
			<point x="152" y="108"/>
			<point x="143" y="235" type="curve"/>
			<point x="524" y="235" type="line"/>
			<point x="525" y="235" type="line"/>
			<point x="906" y="235" type="line"/>
			<point x="908" y="254"/>
			<point x="908" y="269"/>
			<point x="908" y="279" type="curve" smooth="yes"/>
			<point x="908" y="429"/>
			<point x="825" y="545"/>
			<point x="671" y="545" type="curve" smooth="yes"/>
			<point x="589" y="545"/>
			<point x="520" y="513"/>
			<point x="474" y="457" type="curve"/>
			<point x="434" y="511"/>
			<point x="372" y="545"/>
			<point x="289" y="545" type="curve" smooth="yes"/>
			<point x="136" y="545"/>
			<point x="29" y="432"/>
		</contour>
		<contour>
			<point x="144" y="312" type="line"/>
			<point x="156" y="414"/>
			<point x="210" y="465"/>
			<point x="285" y="465" type="curve" smooth="yes"/>
			<point x="362" y="465"/>
			<point x="405" y="410"/>
			<point x="413" y="312" type="curve"/>
		</contour>
		<contour>
			<point x="526" y="312" type="line"/>
			<point x="538" y="414"/>
			<point x="592" y="465"/>
			<point x="667" y="465" type="curve" smooth="yes"/>
			<point x="744" y="465"/>
			<point x="787" y="410"/>
			<point x="795" y="312" type="curve"/>
		</contour>
	</outline>
</glyph>
<glyph name="uF19A0" format="2">
	<advance width="950"/>
	<unicode hex="F19A0"/>
	<outline>
		<contour>
			<point x="526" y="279" type="curve" smooth="yes"/>
			<point x="526" y="429"/>
			<point x="443" y="545"/>
			<point x="289" y="545" type="curve" smooth="yes"/>
			<point x="136" y="545"/>
			<point x="29" y="432"/>
			<point x="29" y="264" type="curve" smooth="yes"/>
			<point x="29" y="76"/>
			<point x="136" y="-14"/>
			<point x="278" y="-14" type="curve" smooth="yes"/>
			<point x="343" y="-14"/>
			<point x="404" y="5"/>
			<point x="449" y="44" type="curve"/>
			<point x="480" y="9"/>
			<point x="530" y="-14"/>
			<point x="598" y="-14" type="curve" smooth="yes"/>
			<point x="651" y="-14"/>
			<point x="690" y="-5"/>
			<point x="732" y="25" type="curve"/>
			<point x="769" y="91" type="line"/>
			<point x="769" y="0" type="line"/>
			<point x="878" y="0" type="line"/>
			<point x="878" y="531" type="line"/>
			<point x="769" y="531" type="line"/>
			<point x="769" y="281" type="line" smooth="yes"/>
			<point x="769" y="127"/>
			<point x="711" y="68"/>
			<point x="634" y="68" type="curve" smooth="yes"/>
			<point x="566" y="68"/>
			<point x="528" y="114"/>
			<point x="520" y="172" type="curve"/>
			<point x="407" y="172" type="line"/>
			<point x="396" y="105"/>
			<point x="346" y="66"/>
			<point x="282" y="66" type="curve" smooth="yes"/>
			<point x="210" y="66"/>
			<point x="152" y="108"/>
			<point x="143" y="235" type="curve"/>
			<point x="524" y="235" type="line"/>
			<point x="526" y="254"/>
			<point x="526" y="269"/>
		</contour>
		<contour>
			<point x="144" y="312" type="line"/>
			<point x="156" y="414"/>
			<point x="210" y="465"/>
			<point x="285" y="465" type="curve" smooth="yes"/>
			<point x="362" y="465"/>
			<point x="405" y="410"/>
			<point x="413" y="312" type="curve"/>
		</contour>
	</outline>
</glyph>
<glyph name="uF1A00" format="2">
	<advance width="1376"/>
	<unicode hex="F1A00"/>
	<outline>
		<contour>
			<point x="572" y="0" type="line"/>
			<point x="572" y="88" type="line"/>
			<point x="205" y="88" type="line"/>
			<point x="205" y="302" type="line"/>
			<point x="534" y="302" type="line"/>
			<point x="534" y="389" type="line"/>
			<point x="205" y="389" type="line"/>
			<point x="205" y="603" type="line"/>
			<point x="562" y="603" type="line"/>
			<point x="562" y="690" type="line"/>
			<point x="95" y="690" type="line"/>
			<point x="95" y="0" type="line"/>
		</contour>
		<contour>
			<point x="210" y="758" type="line"/>
			<point x="465" y="758" type="line"/>
			<point x="465" y="821" type="line"/>
			<point x="210" y="821" type="line"/>
		</contour>
		<contour>
			<point x="629" y="603" type="line"/>
			<point x="870" y="603" type="line"/>
			<point x="870" y="0" type="line"/>
			<point x="871" y="-302" type="line"/>
			<point x="1348" y="-302" type="line"/>
			<point x="1348" y="-214" type="line"/>
			<point x="981" y="-214" type="line"/>
			<point x="981" y="0" type="line"/>
			<point x="1310" y="0" type="line"/>
			<point x="1310" y="87" type="line"/>
			<point x="981" y="87" type="line"/>
			<point x="981" y="301" type="line"/>
			<point x="1338" y="301" type="line"/>
			<point x="1338" y="388" type="line"/>
			<point x="979" y="388" type="line"/>
			<point x="979" y="603" type="line"/>
			<point x="1220" y="603" type="line"/>
			<point x="1220" y="690" type="line"/>
			<point x="629" y="690" type="line"/>
		</contour>
	</outline>
</glyph>
<glyph name="uF1B00" format="2">
	<advance width="1392"/>
	<unicode hex="F1B00"/>
	<outline>
		<contour>
			<point x="526" y="279" type="curve" smooth="yes"/>
			<point x="526" y="429"/>
			<point x="443" y="545"/>
			<point x="289" y="545" type="curve" smooth="yes"/>
			<point x="136" y="545"/>
			<point x="29" y="432"/>
			<point x="29" y="264" type="curve" smooth="yes"/>
			<point x="29" y="76"/>
			<point x="136" y="-14"/>
			<point x="278" y="-14" type="curve" smooth="yes"/>
			<point x="394" y="-14"/>
			<point x="495" y="46"/>
			<point x="518" y="172" type="curve"/>
			<point x="407" y="172" type="line"/>
			<point x="396" y="105"/>
			<point x="346" y="66"/>
			<point x="282" y="66" type="curve" smooth="yes"/>
			<point x="210" y="66"/>
			<point x="152" y="108"/>
			<point x="143" y="235" type="curve"/>
			<point x="524" y="235" type="line"/>
			<point x="526" y="254"/>
			<point x="526" y="269"/>
		</contour>
		<contour>
			<point x="285" y="465" type="curve" smooth="yes"/>
			<point x="362" y="465"/>
			<point x="405" y="410"/>
			<point x="413" y="312" type="curve"/>
			<point x="144" y="312" type="line"/>
			<point x="156" y="414"/>
			<point x="210" y="465"/>
		</contour>
		<contour>
			<point x="762" y="172" type="curve" smooth="yes"/>
			<point x="762" y="450" type="line"/>
			<point x="1354" y="450" type="line"/>
			<point x="1356" y="469"/>
			<point x="1356" y="484"/>
			<point x="1356" y="494" type="curve" smooth="yes"/>
			<point x="1356" y="644"/>
			<point x="1273" y="760"/>
			<point x="1119" y="760" type="curve" smooth="yes"/>
			<point x="981" y="760"/>
			<point x="881" y="668"/>
			<point x="862" y="527" type="curve"/>
			<point x="762" y="527" type="line"/>
			<point x="762" y="654" type="line"/>
			<point x="653" y="654" type="line"/>
			<point x="653" y="527" type="line"/>
			<point x="578" y="527" type="line"/>
			<point x="578" y="450" type="line"/>
			<point x="653" y="450" type="line"/>
			<point x="653" y="162" type="line" smooth="yes"/>
			<point x="653" y="132"/>
			<point x="653" y="109"/>
			<point x="654" y="91" type="curve" smooth="yes"/>
			<point x="659" y="21"/>
			<point x="695" y="-10"/>
			<point x="778" y="-10" type="curve" smooth="yes"/>
			<point x="805" y="-10"/>
			<point x="831" y="-8"/>
			<point x="859" y="-4" type="curve"/>
			<point x="859" y="72" type="line"/>
			<point x="787" y="65"/>
			<point x="767" y="76"/>
			<point x="763" y="128" type="curve" smooth="yes"/>
			<point x="762" y="142"/>
			<point x="762" y="154"/>
		</contour>
		<contour>
			<point x="974" y="527" type="line"/>
			<point x="986" y="629"/>
			<point x="1040" y="680"/>
			<point x="1115" y="680" type="curve" smooth="yes"/>
			<point x="1192" y="680"/>
			<point x="1235" y="625"/>
			<point x="1243" y="527" type="curve"/>
		</contour>
		<contour>
			<point x="156" y="600" type="line"/>
			<point x="411" y="600" type="line"/>
			<point x="411" y="663" type="line"/>
			<point x="156" y="663" type="line"/>
		</contour>
	</outline>
</glyph>
<glyph name="uF2050" format="2">
	<advance width="1063"/>
	<unicode hex="F2050"/>
	<outline>
		<contour>
			<point x="205" y="389" type="line"/>
			<point x="205" y="603" type="line"/>
			<point x="473" y="603" type="line"/>
			<point x="684" y="0" type="line"/>
			<point x="826" y="0" type="line"/>
			<point x="1074" y="690" type="line"/>
			<point x="957" y="690" type="line"/>
			<point x="757" y="84" type="line"/>
			<point x="562" y="690" type="line"/>
			<point x="95" y="690" type="line"/>
			<point x="95" y="0" type="line"/>
			<point x="205" y="0" type="line"/>
			<point x="205" y="302" type="line"/>
			<point x="524" y="302" type="line"/>
			<point x="524" y="389" type="line"/>
		</contour>
	</outline>
</glyph>
<glyph name="uF2610" format="2">
	<advance width="882"/>
	<unicode hex="F2610"/>
	<outline>
		<contour>
			<point x="854" y="0" type="line"/>
			<point x="854" y="88" type="line"/>
			<point x="487" y="88" type="line"/>
			<point x="487" y="302" type="line"/>
			<point x="816" y="302" type="line"/>
			<point x="816" y="389" type="line"/>
			<point x="487" y="389" type="line"/>
			<point x="487" y="603" type="line"/>
			<point x="844" y="603" type="line"/>
			<point x="844" y="690" type="line"/>
			<point x="377" y="690" type="line"/>
			<point x="377" y="0" type="line"/>
		</contour>
		<contour>
			<point x="95" y="159" type="line"/>
			<point x="205" y="159" type="line"/>
			<point x="205" y="690" type="line"/>
			<point x="95" y="690" type="line"/>
		</contour>
		<contour>
			<point x="95" y="875" type="line"/>
			<point x="95" y="748" type="line"/>
			<point x="206" y="748" type="line"/>
			<point x="206" y="875" type="line"/>
		</contour>
	</outline>
</glyph>
<glyph name="uF2640" format="2">
	<advance width="867"/>
	<unicode hex="F2640"/>
	<outline>
		<contour>
			<point x="851" y="0" type="line"/>
			<point x="851" y="91" type="line"/>
			<point x="484" y="91" type="line"/>
			<point x="484" y="690" type="line"/>
			<point x="374" y="690" type="line"/>
			<point x="374" y="0" type="line"/>
		</contour>
		<contour>
			<point x="95" y="160" type="line"/>
			<point x="205" y="160" type="line"/>
			<point x="205" y="691" type="line"/>
			<point x="95" y="691" type="line"/>
		</contour>
		<contour>
			<point x="95" y="876" type="line"/>
			<point x="95" y="749" type="line"/>
			<point x="206" y="749" type="line"/>
			<point x="206" y="876" type="line"/>
		</contour>
	</outline>
</glyph>
<glyph name="uF2710" format="2">
	<advance width="602"/>
	<unicode hex="F2710"/>
	<outline>
		<contour>
			<point x="69" y="0" type="line"/>
			<point x="179" y="0" type="line"/>
			<point x="179" y="236" type="line"/>
			<point x="183" y="235" type="line"/>
			<point x="564" y="235" type="line"/>
			<point x="566" y="254"/>
			<point x="566" y="269"/>
			<point x="566" y="279" type="curve" smooth="yes"/>
			<point x="566" y="429"/>
			<point x="483" y="545"/>
			<point x="329" y="545" type="curve" smooth="yes"/>
			<point x="271" y="545"/>
			<point x="220" y="529"/>
			<point x="179" y="500" type="curve"/>
			<point x="179" y="531" type="line"/>
			<point x="69" y="531" type="line"/>
		</contour>
		<contour>
			<point x="69" y="589" type="line"/>
			<point x="180" y="589" type="line"/>
			<point x="180" y="716" type="line"/>
			<point x="69" y="716" type="line"/>
		</contour>
		<contour>
			<point x="184" y="312" type="line"/>
			<point x="196" y="414"/>
			<point x="250" y="465"/>
			<point x="325" y="465" type="curve" smooth="yes"/>
			<point x="402" y="465"/>
			<point x="445" y="410"/>
			<point x="453" y="312" type="curve"/>
		</contour>
	</outline>
</glyph>
<glyph name="uF2740" format="2">
	<advance width="445"/>
	<unicode hex="F2740"/>
	<outline>
		<contour>
			<point x="69" y="0" type="line"/>
			<point x="179" y="0" type="line"/>
			<point x="179" y="531" type="line"/>
			<point x="69" y="531" type="line"/>
		</contour>
		<contour>
			<point x="69" y="716" type="line"/>
			<point x="69" y="589" type="line"/>
			<point x="180" y="589" type="line"/>
			<point x="180" y="716" type="line"/>
		</contour>
		<contour>
			<point x="314" y="158" type="curve" smooth="yes"/>
			<point x="314" y="731" type="line"/>
			<point x="422" y="731" type="line"/>
			<point x="422" y="155" type="line" smooth="yes"/>
			<point x="422" y="123"/>
			<point x="422" y="99"/>
			<point x="421" y="79" type="curve" smooth="yes"/>
			<point x="418" y="11"/>
			<point x="379" y="-10"/>
			<point x="322" y="-10" type="curve" smooth="yes"/>
			<point x="297" y="-10"/>
			<point x="273" y="-8"/>
			<point x="251" y="-5" type="curve"/>
			<point x="251" y="72" type="line"/>
			<point x="297" y="68"/>
			<point x="312" y="78"/>
			<point x="313" y="108" type="curve" smooth="yes"/>
			<point x="314" y="124"/>
			<point x="314" y="140"/>
		</contour>
	</outline>
</glyph>
<glyph name="uF3210" format="2">
	<advance width="838"/>
	<unicode hex="F3210"/>
	<outline>
		<contour>
			<point x="95" y="0" type="line"/>
			<point x="810" y="0" type="line"/>
			<point x="809" y="92" type="line"/>
			<point x="443" y="92" type="line"/>
			<point x="443" y="302" type="line"/>
			<point x="772" y="302" type="line"/>
			<point x="772" y="389" type="line"/>
			<point x="443" y="389" type="line"/>
			<point x="443" y="603" type="line"/>
			<point x="800" y="603" type="line"/>
			<point x="800" y="690" type="line"/>
			<point x="333" y="690" type="line"/>
			<point x="333" y="91" type="line"/>
			<point x="205" y="91" type="line"/>
			<point x="205" y="690" type="line"/>
			<point x="95" y="690" type="line"/>
		</contour>
	</outline>
</glyph>
<glyph name="uF3230" format="2">
	<advance width="1215"/>
	<unicode hex="F3230"/>
	<outline>
		<contour>
			<point x="472" y="0" type="line"/>
			<point x="1187" y="0" type="line"/>
			<point x="1186" y="92" type="line"/>
			<point x="820" y="92" type="line"/>
			<point x="820" y="302" type="line"/>
			<point x="1149" y="302" type="line"/>
			<point x="1149" y="389" type="line"/>
			<point x="820" y="389" type="line"/>
			<point x="820" y="603" type="line"/>
			<point x="1177" y="603" type="line"/>
			<point x="1177" y="690" type="line"/>
			<point x="710" y="690" type="line"/>
			<point x="710" y="91" type="line"/>
			<point x="582" y="91" type="line"/>
			<point x="582" y="690" type="line"/>
			<point x="472" y="690" type="line"/>
			<point x="472" y="383" type="line"/>
			<point x="205" y="383" type="line"/>
			<point x="205" y="982" type="line"/>
			<point x="95" y="982" type="line"/>
			<point x="95" y="292" type="line"/>
			<point x="472" y="292" type="line"/>
		</contour>
	</outline>
</glyph>
<glyph name="uF3350" format="2">
	<advance width="609"/>
	<unicode hex="F3350"/>
	<outline>
		<contour>
			<point x="537" y="0" type="line"/>
			<point x="537" y="531" type="line"/>
			<point x="428" y="531" type="line"/>
			<point x="428" y="281" type="line" smooth="yes"/>
			<point x="428" y="127"/>
			<point x="370" y="68"/>
			<point x="293" y="68" type="curve" smooth="yes"/>
			<point x="225" y="68"/>
			<point x="176" y="103"/>
			<point x="175" y="176" type="curve" smooth="yes"/>
			<point x="175" y="735" type="line"/>
			<point x="65" y="735" type="line"/>
			<point x="65" y="159" type="line" smooth="yes"/>
			<point x="65" y="127"/>
			<point x="73" y="87"/>
			<point x="83" y="68" type="curve" smooth="yes"/>
			<point x="119" y="0"/>
			<point x="199" y="-14"/>
			<point x="257" y="-14" type="curve" smooth="yes"/>
			<point x="310" y="-14"/>
			<point x="349" y="-5"/>
			<point x="391" y="25" type="curve"/>
			<point x="428" y="91" type="line"/>
			<point x="428" y="0" type="line"/>
		</contour>
	</outline>
</glyph>
<glyph name="uF3510" format="2">
	<advance width="1266"/>
	<unicode hex="F3510"/>
	<outline>
		<contour>
			<point x="998" y="545" type="curve" smooth="yes"/>
			<point x="944" y="545"/>
			<point x="889" y="530"/>
			<point x="859" y="505" type="curve" smooth="yes"/>
			<point x="802" y="452" type="line"/>
			<point x="780" y="507"/>
			<point x="727" y="545"/>
			<point x="647" y="545" type="curve" smooth="yes"/>
			<point x="600" y="545"/>
			<point x="563" y="536"/>
			<point x="534" y="514" type="curve"/>
			<point x="485" y="444" type="line"/>
			<point x="465" y="503"/>
			<point x="412" y="545"/>
			<point x="328" y="545" type="curve" smooth="yes"/>
			<point x="280" y="545"/>
			<point x="243" y="536"/>
			<point x="215" y="514" type="curve"/>
			<point x="179" y="452" type="line"/>
			<point x="179" y="531" type="line"/>
			<point x="69" y="531" type="line"/>
			<point x="69" y="0" type="line"/>
			<point x="179" y="0" type="line"/>
			<point x="179" y="267" type="line" smooth="yes"/>
			<point x="179" y="411"/>
			<point x="221" y="464"/>
			<point x="286" y="464" type="curve" smooth="yes"/>
			<point x="343" y="464"/>
			<point x="377" y="434"/>
			<point x="385" y="377" type="curve" smooth="yes"/>
			<point x="388" y="350"/>
			<point x="389" y="321"/>
			<point x="389" y="281" type="curve" smooth="yes"/>
			<point x="389" y="0" type="line"/>
			<point x="498" y="0" type="line"/>
			<point x="498" y="267" type="line" smooth="yes"/>
			<point x="498" y="411"/>
			<point x="541" y="464"/>
			<point x="605" y="464" type="curve" smooth="yes"/>
			<point x="662" y="464"/>
			<point x="697" y="434"/>
			<point x="704" y="377" type="curve" smooth="yes"/>
			<point x="707" y="350"/>
			<point x="708" y="321"/>
			<point x="708" y="281" type="curve" smooth="yes"/>
			<point x="708" y="0" type="line"/>
			<point x="709" y="0" type="line"/>
			<point x="709" y="-196" type="line"/>
			<point x="819" y="-196" type="line"/>
			<point x="819" y="72" type="line"/>
			<point x="854" y="19" type="line"/>
			<point x="881" y="-2"/>
			<point x="936" y="-14"/>
			<point x="980" y="-14" type="curve" smooth="yes"/>
			<point x="1117" y="-14"/>
			<point x="1237" y="80"/>
			<point x="1237" y="275" type="curve" smooth="yes"/>
			<point x="1237" y="430"/>
			<point x="1150" y="545"/>
		</contour>
		<contour>
			<point x="819" y="244" type="curve" smooth="yes"/>
			<point x="819" y="271" type="line" smooth="yes"/>
			<point x="819" y="413"/>
			<point x="890" y="465"/>
			<point x="972" y="465" type="curve" smooth="yes"/>
			<point x="1068" y="465"/>
			<point x="1121" y="380"/>
			<point x="1121" y="265" type="curve" smooth="yes"/>
			<point x="1121" y="133"/>
			<point x="1055" y="66"/>
			<point x="967" y="66" type="curve" smooth="yes"/>
			<point x="897" y="66"/>
			<point x="819" y="114"/>
		</contour>
	</outline>
</glyph>
<glyph name="uF3610" format="2">
	<advance width="983"/>
	<unicode hex="F3610"/>
	<outline>
		<contour>
			<point x="507" y="0" type="line"/>
			<point x="665" y="0" type="line"/>
			<point x="665" y="228" type="line"/>
			<point x="787" y="229" type="line"/>
			<point x="862" y="1" type="line"/>
			<point x="981" y="1" type="line"/>
			<point x="740" y="691" type="line"/>
			<point x="664" y="690" type="line"/>
			<point x="556" y="690" type="line"/>
			<point x="556" y="358" type="line" smooth="yes"/>
			<point x="556" y="287"/>
			<point x="557" y="195"/>
			<point x="559" y="117" type="curve"/>
			<point x="250" y="690" type="line"/>
			<point x="95" y="690" type="line"/>
			<point x="95" y="0" type="line"/>
			<point x="205" y="0" type="line"/>
			<point x="205" y="330" type="line" smooth="yes"/>
			<point x="205" y="401"/>
			<point x="204" y="490"/>
			<point x="201" y="569" type="curve"/>
		</contour>
		<contour>
			<point x="666" y="315" type="line"/>
			<point x="666" y="599" type="line"/>
			<point x="667" y="600" type="line"/>
			<point x="758" y="316" type="line"/>
		</contour>
	</outline>
</glyph>
<glyph name="uF3650" format="2">
	<advance width="1526"/>
	<unicode hex="F3650"/>
	<outline>
		<contour>
			<point x="507" y="0" type="line"/>
			<point x="665" y="0" type="line"/>
			<point x="664" y="726" type="line"/>
			<point x="969" y="185" type="line"/>
			<point x="1498" y="185" type="line"/>
			<point x="1498" y="273" type="line"/>
			<point x="1131" y="273" type="line"/>
			<point x="1131" y="487" type="line"/>
			<point x="1460" y="487" type="line"/>
			<point x="1460" y="574" type="line"/>
			<point x="1131" y="574" type="line"/>
			<point x="1131" y="788" type="line"/>
			<point x="1488" y="788" type="line"/>
			<point x="1488" y="875" type="line"/>
			<point x="1018" y="875" type="line"/>
			<point x="1018" y="543" type="line" smooth="yes"/>
			<point x="1018" y="472"/>
			<point x="1019" y="380"/>
			<point x="1021" y="302" type="curve"/>
			<point x="712" y="875" type="line"/>
			<point x="557" y="875" type="line"/>
			<point x="556" y="690" type="line"/>
			<point x="556" y="358" type="line" smooth="yes"/>
			<point x="556" y="287"/>
			<point x="557" y="195"/>
			<point x="559" y="117" type="curve"/>
			<point x="250" y="690" type="line"/>
			<point x="95" y="690" type="line"/>
			<point x="95" y="0" type="line"/>
			<point x="205" y="0" type="line"/>
			<point x="205" y="330" type="line" smooth="yes"/>
			<point x="205" y="401"/>
			<point x="204" y="490"/>
			<point x="201" y="569" type="curve"/>
		</contour>
	</outline>
</glyph>
<glyph name="uF3710" format="2">
	<advance width="919"/>
	<unicode hex="F3710"/>
	<outline>
		<contour>
			<point x="739" y="77" type="line"/>
			<point x="749" y="0" type="line"/>
			<point x="858" y="0" type="line"/>
			<point x="850" y="59"/>
			<point x="848" y="95"/>
			<point x="848" y="135" type="curve" smooth="yes"/>
			<point x="848" y="322" type="line" smooth="yes"/>
			<point x="848" y="347"/>
			<point x="847" y="375"/>
			<point x="845" y="397" type="curve" smooth="yes"/>
			<point x="836" y="487"/>
			<point x="782" y="545"/>
			<point x="645" y="545" type="curve" smooth="yes"/>
			<point x="583" y="545"/>
			<point x="530" y="528"/>
			<point x="492" y="495" type="curve"/>
			<point x="460" y="527"/>
			<point x="412" y="545"/>
			<point x="349" y="545" type="curve" smooth="yes"/>
			<point x="296" y="545"/>
			<point x="257" y="536"/>
			<point x="215" y="504" type="curve"/>
			<point x="179" y="443" type="line"/>
			<point x="179" y="531" type="line"/>
			<point x="69" y="531" type="line"/>
			<point x="69" y="0" type="line"/>
			<point x="179" y="0" type="line"/>
			<point x="179" y="238" type="line" smooth="yes"/>
			<point x="179" y="404"/>
			<point x="241" y="464"/>
			<point x="317" y="464" type="curve" smooth="yes"/>
			<point x="392" y="464"/>
			<point x="424" y="422"/>
			<point x="429" y="362" type="curve" smooth="yes"/>
			<point x="431" y="335"/>
			<point x="431" y="312"/>
			<point x="431" y="287" type="curve" smooth="yes"/>
			<point x="431" y="225" type="line"/>
			<point x="416" y="201"/>
			<point x="409" y="172"/>
			<point x="409" y="139" type="curve" smooth="yes"/>
			<point x="409" y="40"/>
			<point x="486" y="-14"/>
			<point x="580" y="-14" type="curve" smooth="yes"/>
			<point x="630" y="-14"/>
			<point x="676" y="-5"/>
			<point x="712" y="20" type="curve"/>
		</contour>
		<contour>
			<point x="525" y="148" type="curve" smooth="yes"/>
			<point x="525" y="229"/>
			<point x="609" y="258"/>
			<point x="738" y="248" type="curve"/>
			<point x="738" y="199" type="line" smooth="yes"/>
			<point x="738" y="113"/>
			<point x="689" y="66"/>
			<point x="620" y="66" type="curve" smooth="yes"/>
			<point x="562" y="66"/>
			<point x="525" y="92"/>
		</contour>
		<contour>
			<point x="540" y="363" type="line" smooth="yes"/>
			<point x="540" y="429"/>
			<point x="579" y="465"/>
			<point x="643" y="465" type="curve" smooth="yes"/>
			<point x="706" y="465"/>
			<point x="733" y="435"/>
			<point x="736" y="392" type="curve" smooth="yes"/>
			<point x="738" y="372"/>
			<point x="738" y="354"/>
			<point x="738" y="334" type="curve" smooth="yes"/>
			<point x="738" y="321" type="line"/>
			<point x="704" y="321" type="line" smooth="yes"/>
			<point x="638" y="321"/>
			<point x="584" y="314"/>
			<point x="541" y="301" type="curve"/>
		</contour>
	</outline>
</glyph>
<glyph name="uF3810" format="2">
	<advance width="1086"/>
	<unicode hex="F3810"/>
	<outline>
		<contour>
			<point x="382" y="704" type="curve" smooth="yes"/>
			<point x="170" y="704"/>
			<point x="49" y="559"/>
			<point x="49" y="345" type="curve" smooth="yes"/>
			<point x="49" y="132"/>
			<point x="170" y="-14"/>
			<point x="382" y="-14" type="curve" smooth="yes"/>
			<point x="578" y="-14"/>
			<point x="697" y="113"/>
			<point x="712" y="302" type="curve"/>
			<point x="1031" y="302" type="line"/>
			<point x="1031" y="389" type="line"/>
			<point x="712" y="389" type="line"/>
			<point x="712" y="392" type="line"/>
			<point x="712" y="603" type="line"/>
			<point x="1069" y="603" type="line"/>
			<point x="1069" y="690" type="line"/>
			<point x="602" y="690" type="line"/>
			<point x="602" y="629" type="line"/>
			<point x="547" y="677"/>
			<point x="473" y="704"/>
		</contour>
		<contour>
			<point x="167" y="345" type="curve" smooth="yes"/>
			<point x="167" y="517"/>
			<point x="247" y="620"/>
			<point x="382" y="620" type="curve" smooth="yes"/>
			<point x="516" y="620"/>
			<point x="596" y="517"/>
			<point x="596" y="345" type="curve" smooth="yes"/>
			<point x="596" y="174"/>
			<point x="516" y="70"/>
			<point x="382" y="70" type="curve" smooth="yes"/>
			<point x="247" y="70"/>
			<point x="167" y="174"/>
		</contour>
	</outline>
</glyph>
<glyph name="uF3870" format="2">
	<advance width="787"/>
	<unicode hex="F3870"/>
	<outline>
		<contour>
			<point x="382" y="704" type="curve" smooth="yes"/>
			<point x="170" y="704"/>
			<point x="49" y="559"/>
			<point x="49" y="345" type="curve" smooth="yes"/>
			<point x="49" y="132"/>
			<point x="170" y="-14"/>
			<point x="382" y="-14" type="curve" smooth="yes"/>
			<point x="593" y="-14"/>
			<point x="714" y="132"/>
			<point x="714" y="345" type="curve" smooth="yes"/>
			<point x="715" y="690" type="line"/>
			<point x="605" y="690" type="line"/>
			<point x="605" y="627" type="line"/>
			<point x="550" y="676"/>
			<point x="475" y="704"/>
		</contour>
		<contour>
			<point x="167" y="345" type="curve" smooth="yes"/>
			<point x="167" y="517"/>
			<point x="247" y="620"/>
			<point x="382" y="620" type="curve" smooth="yes"/>
			<point x="516" y="620"/>
			<point x="596" y="517"/>
			<point x="596" y="345" type="curve" smooth="yes"/>
			<point x="596" y="174"/>
			<point x="516" y="70"/>
			<point x="382" y="70" type="curve" smooth="yes"/>
			<point x="247" y="70"/>
			<point x="167" y="174"/>
		</contour>
		<contour>
			<point x="528" y="733" type="line"/>
			<point x="636" y="733" type="line"/>
			<point x="636" y="839" type="line"/>
			<point x="528" y="839" type="line"/>
		</contour>
		<contour>
			<point x="683" y="733" type="line"/>
			<point x="791" y="733" type="line"/>
			<point x="791" y="839" type="line"/>
			<point x="683" y="839" type="line"/>
		</contour>
	</outline>
</glyph>
<glyph name="uF3950" format="2">
	<advance width="1201"/>
	<unicode hex="F3950"/>
	<outline>
		<contour>
			<point x="298" y="545" type="curve" smooth="yes"/>
			<point x="119" y="545"/>
			<point x="29" y="421"/>
			<point x="29" y="266" type="curve" smooth="yes"/>
			<point x="29" y="111"/>
			<point x="119" y="-14"/>
			<point x="298" y="-14" type="curve" smooth="yes"/>
			<point x="370" y="-14"/>
			<point x="428" y="6"/>
			<point x="471" y="41" type="curve"/>
			<point x="488" y="6"/>
			<point x="523" y="-10"/>
			<point x="583" y="-10" type="curve" smooth="yes"/>
			<point x="610" y="-10"/>
			<point x="636" y="-8"/>
			<point x="664" y="-4" type="curve"/>
			<point x="664" y="72" type="line"/>
			<point x="592" y="65"/>
			<point x="572" y="76"/>
			<point x="568" y="128" type="curve" smooth="yes"/>
			<point x="567" y="142"/>
			<point x="567" y="154"/>
			<point x="567" y="172" type="curve" smooth="yes"/>
			<point x="567" y="450" type="line"/>
			<point x="1165" y="450" type="line"/>
			<point x="1165" y="492" type="line" smooth="yes"/>
			<point x="1165" y="642"/>
			<point x="1082" y="758"/>
			<point x="928" y="758" type="curve" smooth="yes"/>
			<point x="790" y="758"/>
			<point x="689" y="666"/>
			<point x="671" y="525" type="curve" smooth="yes"/>
			<point x="671" y="527" type="line"/>
			<point x="567" y="527" type="line"/>
			<point x="567" y="654" type="line"/>
			<point x="458" y="654" type="line"/>
			<point x="458" y="527" type="line"/>
			<point x="406" y="527" type="line"/>
			<point x="374" y="539"/>
			<point x="338" y="545"/>
		</contour>
		<contour>
			<point x="145" y="266" type="curve" smooth="yes"/>
			<point x="145" y="386"/>
			<point x="201" y="465"/>
			<point x="298" y="465" type="curve" smooth="yes"/>
			<point x="394" y="465"/>
			<point x="450" y="386"/>
			<point x="450" y="266" type="curve" smooth="yes"/>
			<point x="450" y="146"/>
			<point x="394" y="66"/>
			<point x="298" y="66" type="curve" smooth="yes"/>
			<point x="201" y="66"/>
			<point x="145" y="146"/>
		</contour>
		<contour>
			<point x="783" y="525" type="line"/>
			<point x="795" y="627"/>
			<point x="849" y="678"/>
			<point x="924" y="678" type="curve" smooth="yes"/>
			<point x="1001" y="678"/>
			<point x="1044" y="623"/>
			<point x="1052" y="525" type="curve"/>
		</contour>
	</outline>
</glyph>
<glyph name="uF4110" format="2">
	<advance width="1253"/>
	<unicode hex="F4110"/>
	<outline>
		<contour>
			<point x="358" y="545" type="curve" smooth="yes"/>
			<point x="304" y="545"/>
			<point x="249" y="530"/>
			<point x="219" y="505" type="curve"/>
			<point x="179" y="448" type="line"/>
			<point x="179" y="531" type="line"/>
			<point x="69" y="531" type="line"/>
			<point x="69" y="-196" type="line"/>
			<point x="179" y="-196" type="line"/>
			<point x="179" y="72" type="line"/>
			<point x="214" y="19" type="line"/>
			<point x="241" y="-2"/>
			<point x="296" y="-14"/>
			<point x="340" y="-14" type="curve" smooth="yes"/>
			<point x="477" y="-14"/>
			<point x="597" y="80"/>
			<point x="597" y="275" type="curve" smooth="yes"/>
			<point x="597" y="324"/>
			<point x="588" y="369"/>
			<point x="572" y="407" type="curve"/>
			<point x="590" y="447"/>
			<point x="620" y="464"/>
			<point x="656" y="464" type="curve" smooth="yes"/>
			<point x="713" y="464"/>
			<point x="747" y="434"/>
			<point x="755" y="377" type="curve" smooth="yes"/>
			<point x="758" y="350"/>
			<point x="759" y="321"/>
			<point x="759" y="281" type="curve" smooth="yes"/>
			<point x="759" y="0" type="line"/>
			<point x="868" y="0" type="line"/>
			<point x="868" y="267" type="line" smooth="yes"/>
			<point x="868" y="411"/>
			<point x="911" y="464"/>
			<point x="975" y="464" type="curve" smooth="yes"/>
			<point x="1032" y="464"/>
			<point x="1067" y="434"/>
			<point x="1074" y="377" type="curve" smooth="yes"/>
			<point x="1077" y="350"/>
			<point x="1078" y="321"/>
			<point x="1078" y="281" type="curve" smooth="yes"/>
			<point x="1078" y="0" type="line"/>
			<point x="1188" y="0" type="line"/>
			<point x="1188" y="321" type="line" smooth="yes"/>
			<point x="1188" y="364"/>
			<point x="1187" y="388"/>
			<point x="1183" y="415" type="curve" smooth="yes"/>
			<point x="1171" y="488"/>
			<point x="1115" y="545"/>
			<point x="1017" y="545" type="curve" smooth="yes"/>
			<point x="970" y="545"/>
			<point x="933" y="536"/>
			<point x="904" y="514" type="curve"/>
			<point x="855" y="444" type="line"/>
			<point x="835" y="503"/>
			<point x="782" y="545"/>
			<point x="698" y="545" type="curve" smooth="yes"/>
			<point x="650" y="545"/>
			<point x="613" y="536"/>
			<point x="585" y="514" type="curve"/>
			<point x="549" y="452" type="line"/>
			<point x="549" y="449" type="line"/>
			<point x="509" y="509"/>
			<point x="444" y="545"/>
		</contour>
		<contour>
			<point x="179" y="244" type="curve" smooth="yes"/>
			<point x="179" y="271" type="line" smooth="yes"/>
			<point x="179" y="413"/>
			<point x="250" y="465"/>
			<point x="332" y="465" type="curve" smooth="yes"/>
			<point x="428" y="465"/>
			<point x="481" y="380"/>
			<point x="481" y="265" type="curve" smooth="yes"/>
			<point x="481" y="133"/>
			<point x="415" y="66"/>
			<point x="327" y="66" type="curve" smooth="yes"/>
			<point x="257" y="66"/>
			<point x="179" y="114"/>
		</contour>
	</outline>
</glyph>
<glyph name="uF44C0" format="2">
	<advance width="1010"/>
	<unicode hex="F44C0"/>
	<outline>
		<contour>
			<point x="570" y="178" type="curve" smooth="yes"/>
			<point x="563" y="250"/>
			<point x="537" y="310"/>
			<point x="475" y="337" type="curve"/>
			<point x="494" y="343"/>
			<point x="513" y="351"/>
			<point x="529" y="361" type="curve"/>
			<point x="566" y="316"/>
			<point x="630" y="290"/>
			<point x="711" y="271" type="curve" smooth="yes"/>
			<point x="823" y="245"/>
			<point x="865" y="208"/>
			<point x="865" y="136" type="curve" smooth="yes"/>
			<point x="865" y="73"/>
			<point x="808" y="34"/>
			<point x="736" y="34" type="curve" smooth="yes"/>
			<point x="676" y="34"/>
			<point x="626" y="56"/>
			<point x="596" y="101" type="curve" smooth="yes"/>
			<point x="583" y="122"/>
			<point x="573" y="148"/>
		</contour>
		<contour>
			<point x="95" y="0" type="line"/>
			<point x="205" y="0" type="line"/>
			<point x="205" y="288" type="line"/>
			<point x="312" y="288" type="line" smooth="yes"/>
			<point x="329" y="288"/>
			<point x="346" y="288"/>
			<point x="363" y="287" type="curve" smooth="yes"/>
			<point x="426" y="283"/>
			<point x="453" y="237"/>
			<point x="462" y="164" type="curve" smooth="yes"/>
			<point x="463" y="156"/>
			<point x="464" y="149"/>
			<point x="466" y="142" type="curve"/>
			<point x="488" y="17"/>
			<point x="586" y="-50"/>
			<point x="736" y="-50" type="curve" smooth="yes"/>
			<point x="870" y="-50"/>
			<point x="981" y="26"/>
			<point x="981" y="151" type="curve" smooth="yes"/>
			<point x="981" y="266"/>
			<point x="909" y="331"/>
			<point x="757" y="366" type="curve" smooth="yes"/>
			<point x="650" y="391"/>
			<point x="609" y="422"/>
			<point x="609" y="489" type="curve" smooth="yes"/>
			<point x="609" y="554"/>
			<point x="660" y="584"/>
			<point x="725" y="584" type="curve" smooth="yes"/>
			<point x="805" y="584"/>
			<point x="851" y="537"/>
			<point x="859" y="458" type="curve"/>
			<point x="973" y="458" type="line"/>
			<point x="959" y="578"/>
			<point x="884" y="668"/>
			<point x="731" y="668" type="curve" smooth="yes"/>
			<point x="668" y="668"/>
			<point x="610" y="650"/>
			<point x="567" y="618" type="curve"/>
			<point x="536" y="657"/>
			<point x="486" y="678"/>
			<point x="428" y="686" type="curve" smooth="yes"/>
			<point x="395" y="690"/>
			<point x="370" y="690"/>
			<point x="333" y="690" type="curve" smooth="yes"/>
			<point x="95" y="690" type="line"/>
		</contour>
		<contour>
			<point x="205" y="373" type="line"/>
			<point x="205" y="603" type="line"/>
			<point x="327" y="603" type="line" smooth="yes"/>
			<point x="355" y="603"/>
			<point x="373" y="602"/>
			<point x="391" y="599" type="curve" smooth="yes"/>
			<point x="450" y="591"/>
			<point x="487" y="561"/>
			<point x="487" y="488" type="curve" smooth="yes"/>
			<point x="487" y="415"/>
			<point x="442" y="381"/>
			<point x="382" y="375" type="curve" smooth="yes"/>
			<point x="365" y="373"/>
			<point x="348" y="373"/>
			<point x="320" y="373" type="curve" smooth="yes"/>
		</contour>
	</outline>
</glyph>
<glyph name="uF4510" format="2">
	<advance width="771"/>
	<unicode hex="F4510"/>
	<outline>
		<contour>
			<point x="735" y="493" type="curve" smooth="yes"/>
			<point x="735" y="643"/>
			<point x="652" y="759"/>
			<point x="498" y="759" type="curve" smooth="yes"/>
			<point x="360" y="759"/>
			<point x="259" y="667"/>
			<point x="241" y="525" type="curve"/>
			<point x="235" y="522"/>
			<point x="229" y="518"/>
			<point x="224" y="514" type="curve"/>
			<point x="179" y="441" type="line"/>
			<point x="179" y="531" type="line"/>
			<point x="69" y="531" type="line"/>
			<point x="69" y="0" type="line"/>
			<point x="179" y="0" type="line"/>
			<point x="179" y="276" type="line" smooth="yes"/>
			<point x="179" y="354"/>
			<point x="201" y="404"/>
			<point x="241" y="430" type="curve"/>
			<point x="257" y="275"/>
			<point x="358" y="200"/>
			<point x="487" y="200" type="curve"/>
			<point x="491" y="280" type="line"/>
			<point x="419" y="280"/>
			<point x="361" y="322"/>
			<point x="352" y="449" type="curve"/>
			<point x="733" y="449" type="line"/>
			<point x="735" y="468"/>
			<point x="735" y="483"/>
		</contour>
		<contour>
			<point x="353" y="526" type="line"/>
			<point x="365" y="628"/>
			<point x="419" y="679"/>
			<point x="494" y="679" type="curve" smooth="yes"/>
			<point x="571" y="679"/>
			<point x="614" y="624"/>
			<point x="622" y="526" type="curve"/>
		</contour>
	</outline>
</glyph>
<glyph name="uF4660" format="2">
	<advance width="937"/>
	<unicode hex="F4660"/>
	<outline>
		<contour>
			<point x="316" y="704" type="curve" smooth="yes"/>
			<point x="187" y="704"/>
			<point x="78" y="629"/>
			<point x="78" y="507" type="curve" smooth="yes"/>
			<point x="78" y="387"/>
			<point x="165" y="338"/>
			<point x="296" y="307" type="curve" smooth="yes"/>
			<point x="408" y="281"/>
			<point x="436" y="243"/>
			<point x="436" y="171" type="curve" smooth="yes"/>
			<point x="436" y="108"/>
			<point x="393" y="70"/>
			<point x="321" y="70" type="curve" smooth="yes"/>
			<point x="240" y="70"/>
			<point x="180" y="115"/>
			<point x="162" y="200" type="curve"/>
			<point x="48" y="200" type="line"/>
			<point x="62" y="61"/>
			<point x="163" y="-14"/>
			<point x="321" y="-14" type="curve" smooth="yes"/>
			<point x="367" y="-14"/>
			<point x="409" y="-5"/>
			<point x="444" y="12" type="curve"/>
			<point x="444" y="-194" type="line"/>
			<point x="921" y="-194" type="line"/>
			<point x="921" y="-103" type="line"/>
			<point x="554" y="-103" type="line"/>
			<point x="554" y="496" type="line"/>
			<point x="540" y="616"/>
			<point x="469" y="704"/>
		</contour>
		<contour>
			<point x="194" y="525" type="curve" smooth="yes"/>
			<point x="194" y="590"/>
			<point x="245" y="620"/>
			<point x="310" y="620" type="curve" smooth="yes"/>
			<point x="390" y="620"/>
			<point x="436" y="573"/>
			<point x="444" y="494" type="curve"/>
			<point x="444" y="367" type="line"/>
			<point x="416" y="381"/>
			<point x="382" y="393"/>
			<point x="342" y="402" type="curve" smooth="yes"/>
			<point x="235" y="427"/>
			<point x="194" y="458"/>
		</contour>
	</outline>
</glyph>
<glyph name="uF47A0" format="2">
	<advance width="1151"/>
	<unicode hex="F47A0"/>
	<outline>
		<contour>
			<point x="240" y="545" type="curve" smooth="yes"/>
			<point x="122" y="545"/>
			<point x="44" y="485"/>
			<point x="44" y="386" type="curve" smooth="yes"/>
			<point x="44" y="293"/>
			<point x="116" y="252"/>
			<point x="213" y="227" type="curve" smooth="yes"/>
			<point x="303" y="203"/>
			<point x="339" y="178"/>
			<point x="339" y="132" type="curve" smooth="yes"/>
			<point x="339" y="86"/>
			<point x="298" y="64"/>
			<point x="247" y="64" type="curve" smooth="yes"/>
			<point x="192" y="64"/>
			<point x="147" y="91"/>
			<point x="134" y="159" type="curve"/>
			<point x="23" y="159" type="line"/>
			<point x="38" y="39"/>
			<point x="125" y="-14"/>
			<point x="243" y="-14" type="curve" smooth="yes"/>
			<point x="359" y="-14"/>
			<point x="450" y="37"/>
			<point x="450" y="140" type="curve" smooth="yes"/>
			<point x="450" y="183"/>
			<point x="437" y="216"/>
			<point x="413" y="241" type="curve"/>
			<point x="450" y="218"/>
			<point x="497" y="207"/>
			<point x="551" y="207" type="curve" smooth="yes"/>
			<point x="667" y="207"/>
			<point x="758" y="258"/>
			<point x="758" y="361" type="curve" smooth="yes"/>
			<point x="758" y="399"/>
			<point x="748" y="429"/>
			<point x="728" y="454" type="curve"/>
			<point x="732" y="453" type="line"/>
			<point x="1113" y="453" type="line"/>
			<point x="1115" y="472"/>
			<point x="1115" y="487"/>
			<point x="1115" y="497" type="curve" smooth="yes"/>
			<point x="1115" y="647"/>
			<point x="1032" y="763"/>
			<point x="878" y="763" type="curve" smooth="yes"/>
			<point x="810" y="763"/>
			<point x="752" y="741"/>
			<point x="708" y="702" type="curve"/>
			<point x="674" y="742"/>
			<point x="620" y="766"/>
			<point x="548" y="766" type="curve" smooth="yes"/>
			<point x="430" y="766"/>
			<point x="352" y="706"/>
			<point x="352" y="607" type="curve" smooth="yes"/>
			<point x="352" y="514"/>
			<point x="424" y="473"/>
			<point x="521" y="448" type="curve" smooth="yes"/>
			<point x="611" y="424"/>
			<point x="647" y="399"/>
			<point x="647" y="353" type="curve" smooth="yes"/>
			<point x="647" y="307"/>
			<point x="606" y="285"/>
			<point x="555" y="285" type="curve" smooth="yes"/>
			<point x="500" y="285"/>
			<point x="455" y="312"/>
			<point x="442" y="380" type="curve"/>
			<point x="430" y="476"/>
			<point x="362" y="545"/>
		</contour>
		<contour>
			<point x="155" y="399" type="curve" smooth="yes"/>
			<point x="155" y="439"/>
			<point x="180" y="468"/>
			<point x="232" y="468" type="curve" smooth="yes"/>
			<point x="286" y="468"/>
			<point x="319" y="435"/>
			<point x="330" y="379" type="curve"/>
			<point x="331" y="379" type="line"/>
			<point x="337" y="331"/>
			<point x="355" y="294"/>
			<point x="381" y="267" type="curve"/>
			<point x="353" y="285"/>
			<point x="317" y="299"/>
			<point x="273" y="310" type="curve" smooth="yes"/>
			<point x="194" y="331"/>
			<point x="155" y="351"/>
		</contour>
		<contour>
			<point x="463" y="620" type="curve" smooth="yes"/>
			<point x="463" y="660"/>
			<point x="488" y="689"/>
			<point x="540" y="689" type="curve" smooth="yes"/>
			<point x="594" y="689"/>
			<point x="627" y="656"/>
			<point x="638" y="600" type="curve"/>
			<point x="629" y="575"/>
			<point x="623" y="548"/>
			<point x="620" y="520" type="curve"/>
			<point x="608" y="524"/>
			<point x="595" y="527"/>
			<point x="581" y="531" type="curve" smooth="yes"/>
			<point x="502" y="552"/>
			<point x="463" y="572"/>
		</contour>
		<contour>
			<point x="733" y="530" type="line"/>
			<point x="745" y="632"/>
			<point x="799" y="683"/>
			<point x="874" y="683" type="curve" smooth="yes"/>
			<point x="951" y="683"/>
			<point x="994" y="628"/>
			<point x="1002" y="530" type="curve"/>
		</contour>
	</outline>
</glyph>
